<svg width="1800" height="453" viewBox="0 0 1800 453" fill="none" xmlns="http://www.w3.org/2000/svg">
<path d="M592.751 342.755V108.231H688.148C711.997 108.231 731.304 115.045 745.5 128.106C759.696 141.166 766.51 158.202 766.51 179.78C766.51 201.359 759.696 218.394 745.5 231.455C731.304 244.516 711.997 251.33 687.58 251.33H626.253V342.755H592.751ZM626.253 221.802H681.334C697.233 221.802 709.158 217.827 717.676 209.877C726.193 201.927 730.168 191.705 730.168 179.213C730.168 166.72 726.193 157.066 717.676 149.684C709.158 142.302 697.233 138.895 681.334 138.895H626.253V221.802Z" fill="#9835BA"/>
<path d="M784.681 299.598L814.776 289.944C820.455 310.955 834.651 321.176 858.5 321.176C882.349 321.176 894.274 313.226 894.274 297.894C894.274 285.401 884.053 277.451 864.178 273.476L844.304 270.069C827.269 266.662 814.208 260.984 805.123 254.169C796.037 247.355 792.063 236.566 792.063 222.37C792.063 207.605 798.309 195.68 810.233 186.027C822.158 176.373 836.922 171.83 854.525 171.83C872.696 171.83 887.46 175.805 898.817 183.188C910.173 190.57 918.123 201.359 922.098 213.852L894.274 224.641C887.46 205.902 874.399 196.248 853.957 196.248C843.736 196.248 835.786 198.52 830.108 203.062C824.429 207.605 821.59 212.716 821.59 218.962C821.59 224.641 823.294 229.184 827.269 232.591C831.244 235.998 838.625 238.27 849.982 240.541L869.857 244.516C884.053 247.355 897.113 252.466 908.47 260.416C919.827 267.798 926.073 279.723 926.073 296.191C926.073 312.091 919.827 324.583 907.902 333.669C895.977 342.755 878.942 347.298 857.932 347.298C839.761 347.298 823.862 343.323 810.233 334.805C796.605 326.287 788.088 314.362 784.681 299.598Z" fill="#9835BA"/>
<path d="M1068.03 176.373H1100.97L1036.23 366.037C1030.56 381.937 1023.74 393.294 1016.36 398.972C1008.98 404.651 998.189 408.058 983.425 408.058H948.787V379.665H982.289C988.535 379.665 993.646 378.529 997.053 376.258C1000.46 373.987 1003.3 370.012 1005 364.333L1013.52 341.051L940.269 176.373H975.475L1010.11 258.712C1015.22 271.205 1018.63 287.673 1018.63 309.251H1032.83C1032.83 292.215 1035.67 276.316 1039.64 262.687L1068.03 176.373Z" fill="#9835BA"/>
<path d="M1136.74 342.755V108.231H1219.08C1252.58 108.231 1279.84 119.02 1300.85 140.598C1321.86 162.177 1332.08 190.002 1332.08 224.641C1332.08 261.551 1321.86 289.944 1300.85 311.523C1280.41 332.533 1252.01 343.322 1216.81 343.322H1136.74V342.755ZM1170.24 312.09H1212.26C1269.05 312.09 1296.87 283.13 1296.87 225.209C1296.87 198.52 1290.06 177.509 1275.86 162.177C1261.67 146.845 1241.22 139.463 1214.54 139.463H1170.24V312.09Z" fill="#9835BA"/>
<path d="M1523.44 342.755L1501.86 280.858H1398.52L1376.37 342.755H1340.03L1428.04 108.231H1474.04L1560.35 342.755H1523.44ZM1409.87 250.194H1491.07L1468.36 186.027C1461.55 165.016 1458.14 146.845 1457.57 131.513H1443.37C1442.24 149.684 1438.83 167.855 1432.59 186.027L1409.87 250.194Z" fill="#9835BA"/>
<path d="M1564.89 225.209C1564.32 189.434 1575.68 160.473 1598.4 137.191C1621.11 113.909 1649.5 102.552 1683 103.12C1716.51 102.552 1744.33 113.909 1767.04 137.191C1789.76 160.473 1800.55 189.434 1799.98 225.209C1800.55 260.984 1789.19 289.944 1767.04 313.226C1744.9 336.508 1716.51 347.865 1683 347.298C1649.5 347.865 1621.11 336.508 1598.4 313.226C1575.68 290.512 1564.89 260.984 1564.89 225.209ZM1764.77 225.209C1764.77 198.52 1757.39 176.941 1742.63 159.338C1727.86 142.302 1707.99 133.784 1683 133.784C1658.02 133.784 1638.14 142.302 1623.38 159.338C1608.62 176.373 1601.23 198.52 1601.23 225.209C1601.23 252.466 1608.62 274.044 1623.38 291.08C1638.14 308.116 1658.02 316.633 1683 316.633C1707.99 316.633 1727.86 308.116 1742.63 291.08C1757.39 274.612 1764.77 252.466 1764.77 225.209Z" fill="#9835BA"/>
<path d="M361.876 92.877L360.5 92.189L359.812 90.813C337.797 35.7748 285.511 0 226.345 0C167.179 0 114.892 35.7748 92.877 90.813L92.189 92.189L90.813 92.877C35.7748 114.892 0 167.179 0 226.345C0 285.511 35.7748 337.797 90.813 359.812L92.189 360.5L92.877 361.876C114.892 416.914 167.179 452.689 226.345 452.689C285.511 452.689 337.797 416.914 359.812 361.876L360.5 360.5L361.876 359.812C416.914 337.797 452.689 285.511 452.689 226.345C452.689 167.179 416.914 114.892 361.876 92.877ZM135.532 65.3579C158.235 39.2147 191.258 24.0792 226.345 24.0792C261.431 24.0792 294.454 39.2147 317.158 65.3579C319.91 68.7978 320.598 72.9256 318.534 76.3655C316.47 79.8054 313.03 82.5573 308.902 82.5573C281.383 82.5573 254.552 90.1251 231.848 104.573C229.784 105.949 228.409 105.949 226.345 105.949C224.281 105.949 222.217 105.261 220.841 104.573C198.138 90.1251 171.306 82.5573 143.787 82.5573C139.659 82.5573 135.532 80.4934 134.156 76.3655C132.092 72.2376 132.78 68.1098 135.532 65.3579ZM108.012 123.836C109.388 115.58 115.58 109.388 123.836 108.012C130.716 106.637 137.596 106.637 143.787 106.637C171.306 106.637 197.45 115.58 218.777 132.78C222.905 136.22 229.097 136.22 233.912 132.78C255.24 115.58 280.695 106.637 308.214 106.637C315.094 106.637 321.973 107.324 328.165 108.012C336.421 109.388 342.613 115.58 343.989 123.836C345.365 130.716 345.365 137.596 345.365 143.787C345.365 156.859 343.301 169.93 339.173 183.002C337.109 188.506 332.293 193.322 326.789 195.386C320.598 197.45 314.406 196.074 309.59 192.634C284.823 174.746 255.928 165.803 225.657 165.803C195.386 165.803 166.491 175.434 141.723 192.634C138.283 195.386 134.156 196.074 130.716 196.074C128.652 196.074 126.588 196.074 124.524 195.386C118.332 193.322 114.204 189.194 112.14 183.002C108.012 170.618 105.949 157.547 105.949 143.787C105.949 136.908 106.637 130.028 108.012 123.836ZM303.398 226.345C303.398 232.536 299.958 238.728 295.142 242.168C275.191 256.616 251.112 263.495 226.345 263.495C201.577 263.495 178.186 255.928 157.547 242.168C152.043 238.728 149.291 232.536 149.291 226.345C149.291 220.153 152.731 213.961 157.547 210.521C177.498 196.074 201.577 189.194 226.345 189.194C251.112 189.194 274.503 196.762 295.142 210.521C299.958 213.961 303.398 220.153 303.398 226.345ZM82.5573 308.902C82.5573 313.03 80.4934 317.158 76.3655 318.534C74.9895 319.222 73.6136 319.222 72.2376 319.222C69.4857 319.222 67.4218 318.534 65.3579 316.47C39.2147 293.766 24.0792 260.743 24.0792 225.657C24.0792 190.57 39.2147 157.547 65.3579 134.844C68.7978 132.092 72.9256 131.404 76.3655 133.468C80.4934 135.532 82.5573 138.971 82.5573 143.099C82.5573 170.618 90.1251 196.762 104.573 220.153C106.637 223.593 106.637 227.721 104.573 231.16C90.1251 254.552 82.5573 281.383 82.5573 308.902ZM317.158 387.331C294.454 413.474 261.431 428.61 226.345 428.61C191.258 428.61 158.235 413.474 135.532 387.331C132.78 383.891 132.092 379.764 134.156 376.324C136.22 372.196 139.659 370.132 143.787 370.132C171.306 370.132 198.138 362.564 220.841 348.117C224.281 346.053 228.409 346.053 232.536 348.117C255.24 362.564 282.071 370.132 309.59 370.132C313.718 370.132 317.846 372.196 319.222 376.324C319.91 379.764 319.91 384.579 317.158 387.331ZM344.677 328.853C343.301 337.109 337.109 343.301 328.853 344.677C321.973 346.053 315.094 346.053 308.902 346.053C281.383 346.053 255.24 337.109 233.912 319.91C229.784 316.47 223.593 316.47 219.465 319.91C198.138 337.109 171.994 346.053 144.475 346.053C137.596 346.053 130.716 345.365 124.524 344.677C116.268 343.301 110.076 337.109 108.7 328.853C107.324 321.973 107.324 315.094 107.324 308.902C107.324 295.83 109.388 282.759 113.516 269.687C115.58 264.183 120.396 259.368 125.9 257.304C132.092 255.24 138.283 256.616 143.099 260.055C167.867 277.943 196.762 286.887 227.033 286.887C257.304 286.887 286.199 277.255 310.966 260.055C315.782 256.616 321.973 255.24 328.165 257.304C334.357 259.368 338.485 263.495 340.549 269.687C344.677 282.071 346.741 295.142 346.741 308.902C346.053 315.782 346.053 321.973 344.677 328.853ZM387.331 317.158C385.267 318.534 383.203 319.91 380.452 319.91C379.076 319.91 377.7 319.91 376.324 319.222C372.196 317.158 370.132 313.718 370.132 309.59C370.132 282.071 362.564 255.928 348.117 232.536C346.053 229.096 346.053 224.969 348.117 221.529C362.564 198.826 370.132 171.994 370.132 144.475C370.132 140.347 372.196 136.22 376.324 134.844C379.764 132.78 384.579 133.468 387.331 136.22C413.474 158.923 428.61 191.946 428.61 227.033C428.61 260.743 413.474 293.766 387.331 317.158Z" fill="#9835BA"/>
</svg>
