<svg viewBox="0 0 1800 453" fill="none" xmlns="http://www.w3.org/2000/svg">
   <style>
        path {
            fill: #9835ba;
        }
        @media (prefers-color-scheme: dark) {
            path { fill: white; }
        }
    </style>
  <path d="M593 343V108h95c24 0 43 7 58 20 14 13 21 30 21 52 0 21-7 38-21 51a82 82 0 0 1-58 20h-62v92h-33Zm33-121h55c16 0 28-4 37-12 8-8 12-18 12-31 0-12-4-22-12-29-9-8-21-11-37-11h-55v83Zm159 78 30-10c5 21 20 31 44 31 23 0 35-8 35-23 0-13-10-21-30-25l-20-3c-17-3-30-9-39-16s-13-17-13-32c0-14 6-26 18-36s27-14 45-14 32 4 44 11c11 8 19 18 23 31l-28 11c-7-19-20-29-40-29-10 0-18 3-24 7-6 5-8 10-8 16s1 10 5 14c4 3 12 5 23 8l20 4c14 2 27 7 38 15 12 8 18 20 18 36s-6 29-18 38-29 13-50 13c-18 0-34-4-48-12-13-9-22-21-25-35Zm283-124h33l-65 190c-5 16-12 27-20 33-7 6-18 9-33 9h-34v-28h33c7 0 12-1 15-4 3-2 6-6 8-12l9-23-74-165h35l35 83c5 12 9 29 9 50h14c0-17 3-33 7-46l28-87Zm69 167V108h82c34 0 61 11 82 33 21 21 31 49 31 84 0 37-10 65-31 87-21 21-49 31-84 31h-80Zm33-31h42c57 0 85-29 85-87 0-26-7-47-21-63a81 81 0 0 0-61-23h-45v173Zm353 31-21-62h-103l-23 62h-36l88-235h46l86 235h-37Zm-113-93h81l-23-64c-6-21-10-39-10-54h-15c-1 18-4 36-10 54l-23 64Zm155-25c-1-36 11-65 33-88 23-23 52-34 85-34 34 0 61 11 84 34s34 52 33 88c1 36-11 65-33 88-22 24-50 35-84 34-33 1-62-10-85-34-22-22-33-52-33-88Zm200 0c0-26-8-48-22-66a75 75 0 0 0-60-25c-25 0-45 8-60 25a97 97 0 0 0-22 66c0 27 8 49 22 66 15 17 35 26 60 26s45-9 60-26c14-16 22-39 22-66ZM362 93l-1-1-1-1a143 143 0 0 0-267 0l-1 1-1 1a143 143 0 0 0 0 267l1 1 1 1a143 143 0 0 0 267 0l1-1 1-1a143 143 0 0 0 0-267ZM136 65a120 120 0 0 1 181 0c3 4 4 8 2 11-3 4-6 7-10 7-28 0-54 7-77 22l-6 1-5-1c-23-15-50-22-77-22-4 0-8-3-10-7s-1-8 2-11Zm-28 59c1-8 8-15 16-16l20-1c27 0 53 9 75 26 4 3 10 3 15 0a117 117 0 0 1 94-25c8 1 15 8 16 16l1 20c0 13-2 26-6 39-2 6-7 10-12 12-6 2-13 1-17-2-25-18-54-27-84-27-31 0-60 9-84 27l-11 3-6-1c-7-2-11-6-13-12a123 123 0 0 1-4-59Zm195 102c0 7-3 13-8 16a123 123 0 0 1-138 0c-5-3-8-9-8-16 0-6 4-12 9-15 19-15 44-22 68-22 25 0 49 8 69 22 5 3 8 9 8 15ZM83 309c0 4-3 8-7 10h-4c-3 0-5 0-7-3a120 120 0 0 1 0-181c4-3 8-4 11-2 4 3 7 6 7 10 0 28 7 54 22 77 2 4 2 8 0 11-15 24-22 50-22 78Zm234 78a120 120 0 0 1-181 0c-3-3-4-7-2-11s6-6 10-6c27 0 54-7 77-22 3-2 7-2 12 0 22 15 49 22 77 22 4 0 8 2 9 6s1 9-2 11Zm28-58c-2 8-8 14-16 16l-20 1c-28 0-54-9-75-26-4-4-10-4-15 0a118 118 0 0 1-94 25c-9-2-15-8-16-16-2-7-2-14-2-20 0-13 2-26 7-39 2-6 6-11 12-13s12 0 17 3a143 143 0 0 0 168 0c5-3 11-5 17-3s10 6 13 13c4 12 6 25 6 39l-2 20Zm42-12c-2 2-4 3-7 3l-4-1c-4-2-6-5-6-9 0-28-7-54-22-77-2-4-2-8 0-11 15-23 22-50 22-78 0-4 2-8 6-9 4-2 9-2 11 1a120 120 0 0 1 0 181Z" />
</svg>
