<svg width="24" height="24" viewBox="0 0 24 24" fill="none" xmlns="http://www.w3.org/2000/svg">
<path d="M4.98798 11.4084C4.988 11.2745 5.01449 11.1419 5.06591 11.0182C5.11733 10.8945 5.19267 10.7822 5.28762 10.6877C5.38258 10.5932 5.49524 10.5184 5.61918 10.4676C5.74312 10.4167 5.87588 10.3909 6.00984 10.3915L7.70406 10.397C7.97416 10.397 8.23323 10.5044 8.42423 10.6954C8.61524 10.8864 8.72256 11.1454 8.72256 11.4155V17.8216C8.91328 17.765 9.15824 17.7047 9.42628 17.6416C9.61247 17.5978 9.7784 17.4925 9.89717 17.3425C10.0159 17.1926 10.0805 17.007 10.0805 16.8157V8.86929C10.0805 8.59914 10.1878 8.34006 10.3788 8.14902C10.5698 7.95798 10.8289 7.85065 11.099 7.85059H12.7966C13.0667 7.85065 13.3258 7.95798 13.5168 8.14902C13.7078 8.34006 13.8151 8.59914 13.8151 8.86929V16.2444C13.8151 16.2444 14.2401 16.0724 14.6541 15.8976C14.8079 15.8326 14.9391 15.7237 15.0314 15.5846C15.1238 15.4454 15.1731 15.2822 15.1732 15.1152V6.32303C15.1732 6.05294 15.2805 5.7939 15.4714 5.6029C15.6624 5.4119 15.9214 5.30459 16.1915 5.30453H17.8891C18.1592 5.30453 18.4183 5.41182 18.6093 5.60284C18.8003 5.79384 18.9076 6.0529 18.9076 6.32303V13.5632C20.3793 12.4966 21.8708 11.2138 23.0544 9.67123C23.2262 9.44733 23.3398 9.1844 23.3851 8.90593C23.4305 8.62746 23.4062 8.34207 23.3145 8.07523C22.7666 6.49892 21.8958 5.05432 20.7576 3.83389C19.6194 2.61348 18.239 1.6441 16.7046 0.987806C15.1703 0.331514 13.5158 0.00275658 11.8471 0.022574C10.1784 0.0423912 8.53225 0.410348 7.01394 1.10289C5.49562 1.79544 4.13859 2.79732 3.02969 4.04444C1.9208 5.29153 1.08446 6.75641 0.574202 8.3453C0.0639439 9.93418 -0.109 11.6121 0.0664376 13.2717C0.241875 14.9312 0.761832 16.5359 1.59303 17.983C1.73783 18.2326 1.95086 18.4357 2.20708 18.5685C2.4633 18.7012 2.75209 18.7581 3.03953 18.7324C3.36063 18.7042 3.76041 18.6642 4.23574 18.6084C4.44266 18.5849 4.6337 18.4861 4.77245 18.3308C4.91122 18.1755 4.988 17.9746 4.98818 17.7664L4.98798 11.4084Z" fill="#DA7C7C"/>
<path d="M4.95117 21.6832C6.74051 22.9849 8.85513 23.7663 11.061 23.9409C13.2669 24.1152 15.4781 23.6762 17.4499 22.6719C19.4217 21.6676 21.0772 20.1374 22.2334 18.2507C23.3893 16.3639 24.0009 14.1941 24.0004 11.9813C24.0004 11.7052 23.9875 11.432 23.9692 11.1604C19.5869 17.6963 11.4955 20.7518 4.95155 21.6822" fill="#DA7C7C"/>
</svg>