<svg width="143" height="149" viewBox="0 0 143 149" fill="none" xmlns="http://www.w3.org/2000/svg">
<path d="M28.4855 99.3934L28.8344 99.4945L28.8808 99.9283C29.353 107.524 31.9102 114.661 36.2216 120.416C40.5331 126.171 46.4004 130.279 53.0647 132.209C59.7291 134.14 66.8837 133.803 73.6035 131.244C80.3234 128.684 86.2991 124.019 90.7579 117.852L90.8703 117.464L91.2193 117.565C98.2045 116.618 104.887 113.414 110.403 108.367C115.92 103.32 120.015 96.663 122.161 89.256C124.306 81.849 124.403 74.0332 122.438 66.8194C120.473 59.6057 116.538 53.3259 111.14 48.7922L110.791 48.6911L110.914 48.268C110.441 40.6724 107.884 33.5356 103.573 27.7806C99.2613 22.0257 93.3942 17.9173 86.7299 15.9869C80.0655 14.0565 72.9107 14.3929 66.1909 16.9526C59.471 19.5122 53.4953 24.1773 49.0365 30.3446L48.7552 30.7217L48.4064 30.6206C41.4211 31.5675 34.7382 34.7715 29.222 39.8183C23.7059 44.8651 19.6102 51.5225 17.4647 58.9295C15.3192 66.3365 15.2225 74.1524 17.1873 81.3661C19.152 88.5799 23.0878 94.8597 28.4855 99.3934ZM78.9013 121.638C75.3198 124.222 71.3155 125.965 67.1592 126.75C63.0028 127.536 58.791 127.345 54.8079 126.192C50.8247 125.038 47.1629 122.948 44.0698 120.062C40.9768 117.177 38.5243 113.564 36.878 109.466C36.6888 108.982 36.6336 108.442 36.7195 107.908C36.8053 107.375 37.0284 106.871 37.3621 106.456C37.6958 106.042 38.1261 105.734 38.6019 105.57C39.0777 105.406 39.5789 105.393 40.0459 105.531C46.3479 107.388 53.1074 107.198 59.5242 104.984C60.0039 104.822 60.508 104.809 60.9787 104.947C61.438 105.084 61.8461 105.361 62.1566 105.746C66.4005 111.024 71.9963 114.791 78.295 116.61C78.7723 116.737 79.1971 117.016 79.5159 117.415C79.8347 117.813 80.0335 118.312 80.0874 118.849C80.1578 119.387 80.0811 119.944 79.8667 120.453C79.6522 120.961 79.3095 121.398 78.8809 121.709L78.9013 121.638ZM89.6146 108.389C89.1685 109.358 88.464 110.168 87.5996 110.706C86.7353 111.243 85.7541 111.481 84.793 111.386C83.1649 111.25 81.5598 110.952 79.9979 110.494C73.6561 108.683 68.2031 104.499 64.5567 98.647C64.1934 98.0674 63.6528 97.6521 63.0241 97.47C62.3955 97.2879 61.7166 97.3499 61.0998 97.6457C54.9332 100.592 48.1469 101.189 41.8747 99.3364C40.3091 98.8907 38.7928 98.2852 37.3451 97.5276C36.4778 97.0946 35.7708 96.3691 35.322 95.4518C34.8732 94.5344 34.7048 93.4707 34.8404 92.4082C35.0823 90.6218 35.457 88.8519 35.9608 87.1162C36.9468 83.7109 38.43 80.4746 40.3511 77.537C40.7927 76.8666 41.3658 76.3096 42.0246 75.9101C42.6834 75.5106 43.4098 75.2797 44.1461 75.2358C44.8899 75.191 45.6232 75.337 46.2872 75.662C46.9512 75.987 47.5275 76.482 47.9698 77.1075C52.3089 83.2845 58.3984 87.6967 65.3731 89.717C72.3478 91.7373 79.8529 91.2629 86.8216 88.3613C87.7641 87.9539 88.7851 87.8875 89.7295 88.1721C90.1882 88.3192 90.623 88.5352 91.0218 88.8139C91.6264 89.2379 92.1213 89.8196 92.4652 90.5107C92.8092 91.2018 92.9923 91.9823 92.9993 92.7871C93.0799 96.2979 92.6141 99.8319 91.6218 103.239C91.1009 105.035 90.4437 106.787 89.6574 108.478L89.6146 108.389ZM52.0142 68.8417C52.2543 68.0349 52.6631 67.2912 53.2071 66.6717C53.7511 66.0521 54.4147 65.5745 55.1434 65.2778C60.8399 63.0245 66.9333 62.697 72.6036 64.3394C78.2739 65.9819 83.2489 69.5155 86.8591 74.4647C87.3188 75.1062 87.6247 75.8677 87.7513 76.6855C87.8778 77.5032 87.8212 78.3533 87.5862 79.1646C87.3512 79.9759 86.9447 80.7246 86.4006 81.3482C85.8566 81.9717 85.1911 82.4519 84.4596 82.7483C78.7619 84.9807 72.6744 85.2973 67.0083 83.6561C61.3422 82.0148 56.3664 78.4936 52.7439 73.5615C52.3038 72.922 52.0125 72.1703 51.8932 71.3663C51.774 70.5622 51.8302 69.7282 52.0572 68.9306L52.0142 68.8417ZM109.266 62.5008C109.416 61.9643 109.703 61.4784 110.093 61.1026C110.482 60.7269 110.958 60.4776 111.46 60.3854C111.826 60.3263 112.194 60.3423 112.547 60.4325C113.118 60.6063 113.601 61.0041 113.907 61.5525C116.082 65.3245 117.461 69.6109 117.952 74.1206C118.442 78.6302 118.032 83.2574 116.748 87.6881C115.465 92.1188 113.339 96.2491 110.514 99.7985C107.689 103.348 104.232 106.233 100.378 108.259C99.9341 108.498 99.4435 108.596 98.9656 108.539C98.4878 108.482 98.0433 108.273 97.6863 107.938C97.3151 107.595 97.0483 107.137 96.9182 106.618C96.788 106.099 96.7998 105.541 96.9522 105.012C98.9968 98.0046 99.2051 90.6173 97.5526 83.7135C97.4318 83.2035 97.4473 82.6584 97.5972 82.1408C97.7471 81.6232 98.0254 81.1543 98.4001 80.7878C103.536 75.8839 107.37 69.5606 109.456 62.5559L109.266 62.5008ZM60.84 26.5042C64.4183 23.9208 68.4195 22.1772 72.5732 21.3912C76.7269 20.6052 80.9363 20.7952 84.9171 21.9483C88.8978 23.1014 92.5571 25.1906 95.6476 28.075C98.7382 30.9593 101.188 34.5715 102.832 38.6675C103.02 39.1481 103.075 39.6854 102.991 40.2161C102.908 40.7468 102.688 41.2488 102.359 41.6631C102.029 42.0774 101.604 42.3868 101.132 42.5547C100.66 42.7227 100.161 42.7425 99.6952 42.6115C93.3933 40.7548 86.6337 40.9448 80.2169 43.159C79.7377 43.3356 79.2295 43.3566 78.7557 43.2194C78.2818 43.0821 77.8635 42.7927 77.5529 42.3873C73.3175 37.1172 67.7329 33.3534 61.4461 31.5322C60.9727 31.4058 60.5506 31.1301 60.2306 30.7385C59.9105 30.3469 59.7062 29.8561 59.6421 29.3249C59.5781 28.7937 59.657 28.2449 59.8695 27.7445C60.082 27.244 60.4191 26.8133 60.84 26.5042ZM50.1267 39.7538C50.598 38.7846 51.3219 37.9803 52.2011 37.4492C53.0803 36.9182 54.0724 36.686 55.0434 36.7841C56.6663 36.948 58.2664 37.2582 59.828 37.7116C66.1532 39.5221 71.5958 43.6879 75.2479 49.5139C75.607 50.0893 76.1426 50.5016 76.7658 50.6821C77.389 50.8626 78.0623 50.8005 78.6733 50.5061C84.8707 47.5165 91.7026 46.9041 98.0138 48.7725C99.5977 49.2279 101.137 49.8272 102.617 50.5643C103.474 51.0143 104.169 51.7486 104.609 52.6685C105.05 53.5883 105.214 54.6497 105.08 55.7099C104.849 57.4984 104.485 59.2714 103.991 61.0111C103.009 64.4211 101.514 67.6569 99.569 70.5811C99.1329 71.2575 98.5612 71.8193 97.9011 72.2196C97.241 72.6199 96.5118 72.847 95.7742 72.8823C95.0361 72.9255 94.3087 72.7795 93.6503 72.4561C92.9918 72.1327 92.4206 71.6408 91.9822 71.0198C87.6432 64.8428 81.5536 60.4306 74.5789 58.4103C67.6042 56.39 60.0992 56.8644 53.1305 59.766C52.4223 60.0581 51.6706 60.1685 50.9357 60.0883C50.2008 60.0082 49.5031 59.7396 48.8983 59.3042C48.2995 58.8735 47.809 58.2902 47.4657 57.6004C47.1224 56.9106 46.9359 56.1336 46.921 55.331C46.8674 51.8214 47.3434 48.2933 48.33 44.8882C48.7905 43.1314 49.3809 41.4111 50.095 39.7446L50.1267 39.7538ZM39.3431 39.9543C39.907 39.658 40.5374 39.5835 41.1229 39.7439C41.4677 39.859 41.7873 40.0422 42.0664 40.2846C42.4336 40.6279 42.6953 41.0862 42.82 41.604C42.9446 42.1217 42.9268 42.6764 42.7685 43.2007C40.7232 50.2135 40.5258 57.6072 42.1998 64.5088C42.3206 65.0188 42.3052 65.5639 42.1553 66.0814C42.0054 66.599 41.727 67.068 41.3523 67.4345C36.2534 72.3606 32.4715 78.7035 30.4545 85.7124C30.3119 86.2379 30.0356 86.7157 29.6588 87.0883C29.2819 87.4609 28.8206 87.7125 28.3304 87.8127C27.8401 87.9129 27.3419 87.8574 26.8955 87.653C26.4491 87.4487 26.0736 87.104 25.8141 86.6606C23.639 82.8886 22.2592 78.6022 21.7689 74.0926C21.2787 69.5829 21.6892 64.9556 22.9726 60.5249C24.256 56.0943 26.3822 51.964 29.2068 48.4146C32.0315 44.8652 35.4886 41.9798 39.3431 39.9543Z" fill="#FFF9F0" stroke="#F2BEBE"/>
<path d="M29.427 99.7301L29.7758 99.8311L29.8222 100.265C30.2944 107.861 32.8516 114.997 37.163 120.752C41.4745 126.507 47.3418 130.616 54.0061 132.546C60.6705 134.476 67.8251 134.14 74.5449 131.58C81.2648 129.021 87.2405 124.356 91.6993 118.188L91.8117 117.801L92.1607 117.902C99.1459 116.955 105.829 113.751 111.345 108.704C116.861 103.657 120.957 96.9996 123.102 89.5926C125.248 82.1856 125.344 74.3699 123.38 67.1561C121.415 59.9423 117.479 53.6626 112.082 49.1288L111.732 49.0277L111.855 48.6047C111.383 41.009 108.826 33.8723 104.514 28.1173C100.203 22.3624 94.3356 18.254 87.6713 16.3236C81.0069 14.3932 73.8521 14.7296 67.1323 17.2892C60.4124 19.8489 54.4367 24.514 49.9779 30.6812L49.6966 31.0583L49.3478 30.9573C42.3625 31.9042 35.6796 35.1082 30.1634 40.155C24.6473 45.2018 20.5516 51.8592 18.4061 59.2662C16.2606 66.6732 16.1639 74.489 18.1287 81.7028C20.0934 88.9165 24.0292 95.1964 29.427 99.7301ZM79.8427 121.975C76.2612 124.558 72.2569 126.302 68.1006 127.087C63.9442 127.873 59.7324 127.682 55.7493 126.528C51.7661 125.374 48.1043 123.284 45.0113 120.399C41.9182 117.514 39.4657 113.9 37.8194 109.803C37.6302 109.319 37.575 108.779 37.6609 108.245C37.7467 107.711 37.9698 107.207 38.3035 106.793C38.6372 106.378 39.0675 106.071 39.5433 105.907C40.0191 105.743 40.5203 105.729 40.9873 105.868C47.2893 107.725 54.0489 107.535 60.4656 105.32C60.9454 105.159 61.4494 105.146 61.9201 105.283C62.3794 105.42 62.7875 105.697 63.098 106.083C67.3419 111.361 72.9377 115.128 79.2364 116.947C79.7137 117.073 80.1385 117.353 80.4573 117.751C80.7761 118.149 80.9749 118.648 81.0288 119.186C81.0992 119.723 81.0225 120.281 80.8081 120.789C80.5936 121.298 80.2509 121.735 79.8223 122.046L79.8427 121.975ZM90.556 108.725C90.1099 109.695 89.4054 110.505 88.541 111.042C87.6767 111.58 86.6955 111.817 85.7344 111.723C84.1063 111.587 82.5013 111.288 80.9393 110.83C74.5975 109.019 69.1445 104.836 65.4981 98.9837C65.1349 98.404 64.5942 97.9888 63.9655 97.8067C63.3369 97.6246 62.658 97.6866 62.0412 97.9824C55.8746 100.929 49.0883 101.525 42.8161 99.673C41.2505 99.2274 39.7342 98.6219 38.2865 97.8643C37.4192 97.4312 36.7122 96.7058 36.2634 95.7884C35.8146 94.8711 35.6462 93.8074 35.7818 92.7449C36.0237 90.9585 36.3985 89.1885 36.9022 87.4529C37.8883 84.0475 39.3714 80.8112 41.2925 77.8736C41.7341 77.2033 42.3072 76.6463 42.966 76.2468C43.6248 75.8472 44.3512 75.6164 45.0875 75.5725C45.8313 75.5277 46.5646 75.6736 47.2286 75.9986C47.8926 76.3237 48.4689 76.8187 48.9113 77.4442C53.2503 83.6211 59.3398 88.0333 66.3145 90.0536C73.2892 92.0739 80.7943 91.5995 87.763 88.698C88.7055 88.2906 89.7265 88.2241 90.6709 88.5087C91.1297 88.6559 91.5644 88.8718 91.9632 89.1505C92.5678 89.5746 93.0627 90.1563 93.4066 90.8474C93.7506 91.5385 93.9337 92.319 93.9407 93.1238C94.0213 96.6346 93.5555 100.169 92.5632 103.576C92.0423 105.371 91.3851 107.124 90.5988 108.814L90.556 108.725ZM52.9556 69.1783C53.1957 68.3715 53.6045 67.6279 54.1485 67.0083C54.6925 66.3888 55.3561 65.9111 56.0848 65.6145C61.7813 63.3612 67.8747 63.0336 73.545 64.6761C79.2153 66.3186 84.1903 69.8522 87.8005 74.8013C88.2603 75.4428 88.5661 76.2044 88.6927 77.0221C88.8192 77.8399 88.7626 78.69 88.5276 79.5013C88.2926 80.3126 87.8861 81.0613 87.3421 81.6849C86.798 82.3084 86.1325 82.7885 85.401 83.085C79.7033 85.3174 73.6158 85.634 67.9497 83.9927C62.2836 82.3515 57.3078 78.8303 53.6853 73.8982C53.2452 73.2587 52.9539 72.507 52.8346 71.7029C52.7154 70.8989 52.7716 70.0648 52.9986 69.2673L52.9556 69.1783ZM110.208 62.8374C110.357 62.301 110.644 61.815 111.034 61.4393C111.424 61.0636 111.899 60.8143 112.402 60.722C112.767 60.663 113.136 60.679 113.488 60.7692C114.06 60.943 114.543 61.3408 114.848 61.8891C117.023 65.6612 118.403 69.9476 118.893 74.4572C119.383 78.9669 118.973 83.5941 117.69 88.0248C116.406 92.4554 114.28 96.5858 111.455 100.135C108.631 103.685 105.174 106.57 101.319 108.595C100.876 108.835 100.385 108.932 99.907 108.875C99.4292 108.818 98.9848 108.61 98.6277 108.274C98.2565 107.932 97.9897 107.473 97.8596 106.954C97.7294 106.436 97.7412 105.878 97.8936 105.349C99.9382 98.3413 100.146 90.954 98.4941 84.0502C98.3732 83.5402 98.3887 82.995 98.5386 82.4775C98.6885 81.9599 98.9668 81.491 99.3415 81.1245C104.477 76.2206 108.312 69.8972 110.398 62.8925L110.208 62.8374ZM61.7814 26.8408C65.3597 24.2574 69.3609 22.5138 73.5146 21.7279C77.6683 20.9419 81.8778 21.1319 85.8585 22.285C89.8392 23.438 93.4985 25.5273 96.589 28.4116C99.6796 31.296 102.129 34.9082 103.773 39.0042C103.961 39.4848 104.017 40.0221 103.933 40.5528C103.849 41.0835 103.63 41.5855 103.3 41.9998C102.971 42.4141 102.545 42.7234 102.073 42.8914C101.601 43.0594 101.103 43.0791 100.637 42.9481C94.3347 41.0915 87.5751 41.2815 81.1583 43.4956C80.6791 43.6723 80.1709 43.6933 79.6971 43.556C79.2232 43.4188 78.8049 43.1294 78.4943 42.724C74.2589 37.4538 68.6743 33.6901 62.3875 31.8688C61.9141 31.7424 61.492 31.4668 61.172 31.0752C60.8519 30.6836 60.6476 30.1927 60.5835 29.6615C60.5195 29.1304 60.5985 28.5815 60.8109 28.0811C61.0234 27.5807 61.3605 27.15 61.7814 26.8408ZM51.0681 40.0905C51.5394 39.1213 52.2633 38.317 53.1425 37.7859C54.0217 37.2549 55.0138 37.0227 55.9848 37.1208C57.6077 37.2846 59.2079 37.5948 60.7694 38.0482C67.0946 39.8588 72.5372 44.0245 76.1893 49.8506C76.5484 50.426 77.084 50.8383 77.7072 51.0188C78.3304 51.1993 79.0037 51.1372 79.6147 50.8428C85.8121 47.8532 92.644 47.2408 98.9553 49.1092C100.539 49.5646 102.079 50.1639 103.558 50.901C104.415 51.351 105.111 52.0853 105.551 53.0051C105.991 53.925 106.155 54.9864 106.021 56.0465C105.79 57.835 105.426 59.6081 104.933 61.3477C103.95 64.7578 102.455 67.9935 100.51 70.9177C100.074 71.5942 99.5026 72.156 98.8425 72.5563C98.1824 72.9566 97.4532 73.1837 96.7156 73.219C95.9775 73.2621 95.2501 73.1161 94.5917 72.7927C93.9333 72.4693 93.362 71.9775 92.9236 71.3565C88.5846 65.1795 82.495 60.7673 75.5203 58.747C68.5456 56.7267 61.0406 57.2011 54.0719 60.1026C53.3637 60.3948 52.612 60.5052 51.8771 60.425C51.1422 60.3448 50.4445 60.0762 49.8397 59.6408C49.2409 59.2102 48.7504 58.6268 48.4071 57.9371C48.0638 57.2473 47.8773 56.4702 47.8624 55.6676C47.8088 52.158 48.2848 48.63 49.2714 45.2248C49.7319 43.4681 50.3223 41.7477 51.0364 40.0813L51.0681 40.0905ZM40.2846 40.2909C40.8484 39.9947 41.4788 39.9202 42.0643 40.0805C42.4091 40.1957 42.7287 40.3789 43.0078 40.6213C43.375 40.9646 43.6367 41.4229 43.7614 41.9406C43.886 42.4584 43.8682 43.0131 43.7099 43.5374C41.6646 50.5501 41.4672 57.9439 43.1412 64.8455C43.262 65.3555 43.2466 65.9005 43.0967 66.4181C42.9468 66.9357 42.6684 67.4047 42.2937 67.7712C37.1948 72.6972 33.4129 79.0402 31.3959 86.049C31.2533 86.5746 30.977 87.0523 30.6002 87.425C30.2233 87.7976 29.762 88.0492 29.2718 88.1494C28.7815 88.2496 28.2833 88.1941 27.8369 87.9897C27.3905 87.7853 27.015 87.4407 26.7555 86.9973C24.5804 83.2252 23.2006 78.9389 22.7103 74.4292C22.2201 69.9196 22.6306 65.2923 23.914 60.8616C25.1974 56.4309 27.3236 52.3007 30.1483 48.7513C32.9729 45.2019 36.4301 42.3164 40.2846 40.2909Z" fill="#FFF9F0" stroke="#F2BEBE"/>
<path d="M30.3684 100.067L30.7172 100.168L30.7636 100.602C31.2358 108.198 33.793 115.334 38.1045 121.089C42.4159 126.844 48.2832 130.953 54.9475 132.883C61.6119 134.814 68.7665 134.477 75.4864 131.918C82.2062 129.358 88.1819 124.693 92.6408 118.525L92.7531 118.138L93.1021 118.239C100.087 117.292 106.77 114.088 112.286 109.041C117.802 103.994 121.898 97.3368 124.044 89.9298C126.189 82.5228 126.286 74.707 124.321 67.4933C122.356 60.2795 118.421 53.9997 113.023 49.466L112.674 49.3649L112.796 48.9418C112.324 41.3462 109.767 34.2094 105.456 28.4545C101.144 22.6995 95.277 18.5911 88.6127 16.6607C81.9484 14.7304 74.7935 15.0668 68.0737 17.6264C61.3538 20.186 55.3781 24.8511 50.9193 31.0184L50.638 31.3955L50.2892 31.2945C43.3039 32.2413 36.621 35.4453 31.1049 40.4921C25.5887 45.539 21.493 52.1964 19.3475 59.6034C17.202 67.0103 17.1053 74.8262 19.0701 82.0399C21.0348 89.2537 24.9706 95.5335 30.3684 100.067ZM80.7841 122.312C77.2026 124.896 73.1984 126.639 69.042 127.424C64.8856 128.21 60.6739 128.019 56.6907 126.865C52.7075 125.712 49.0457 123.622 45.9527 120.736C42.8596 117.851 40.4071 114.237 38.7608 110.14C38.5716 109.656 38.5165 109.116 38.6023 108.582C38.6881 108.049 38.9112 107.545 39.2449 107.13C39.5786 106.716 40.0089 106.408 40.4847 106.244C40.9605 106.08 41.4617 106.067 41.9287 106.205C48.2307 108.062 54.9903 107.872 61.407 105.658C61.8868 105.496 62.3908 105.483 62.8615 105.62C63.3209 105.757 63.7289 106.034 64.0395 106.42C68.2833 111.698 73.8792 115.465 80.1778 117.284C80.6551 117.411 81.0799 117.69 81.3987 118.088C81.7175 118.487 81.9163 118.986 81.9702 119.523C82.0407 120.061 81.9639 120.618 81.7495 121.127C81.535 121.635 81.1923 122.072 80.7637 122.383L80.7841 122.312ZM91.4974 109.063C91.0513 110.032 90.3468 110.842 89.4824 111.379C88.6181 111.917 87.6369 112.155 86.6758 112.06C85.0477 111.924 83.4427 111.626 81.8808 111.168C75.5389 109.356 70.0859 105.173 66.4395 99.3208C66.0763 98.7412 65.5356 98.326 64.907 98.1439C64.2783 97.9618 63.5994 98.0238 62.9826 98.3195C56.816 101.266 50.0297 101.863 43.7575 100.01C42.192 99.5645 40.6756 98.959 39.2279 98.2014C38.3606 97.7684 37.6536 97.0429 37.2048 96.1256C36.756 95.2083 36.5876 94.1446 36.7232 93.082C36.9651 91.2956 37.3399 89.5257 37.8436 87.79C38.8297 84.3847 40.3128 81.1484 42.2339 78.2108C42.6755 77.5405 43.2486 76.9834 43.9074 76.5839C44.5662 76.1844 45.2926 75.9536 46.0289 75.9096C46.7727 75.8648 47.506 76.0108 48.17 76.3358C48.834 76.6608 49.4103 77.1559 49.8527 77.7813C54.1917 83.9583 60.2812 88.3705 67.2559 90.3908C74.2307 92.4111 81.7357 91.9367 88.7044 89.0351C89.6469 88.6277 90.6679 88.5613 91.6123 88.8459C92.0711 88.9931 92.5058 89.209 92.9046 89.4877C93.5092 89.9118 94.0041 90.4935 94.348 91.1846C94.692 91.8757 94.8751 92.6562 94.8821 93.4609C94.9627 96.9717 94.4969 100.506 93.5046 103.913C92.9837 105.708 92.3265 107.461 91.5403 109.152L91.4974 109.063ZM53.897 69.5155C54.1372 68.7087 54.5459 67.965 55.0899 67.3455C55.6339 66.726 56.2975 66.2483 57.0262 65.9517C62.7227 63.6983 68.8161 63.3708 74.4864 65.0133C80.1567 66.6557 85.1317 70.1893 88.7419 75.1385C89.2017 75.78 89.5076 76.5415 89.6341 77.3593C89.7606 78.1771 89.704 79.0272 89.469 79.8385C89.234 80.6497 88.8275 81.3985 88.2835 82.022C87.7395 82.6455 87.0739 83.1257 86.3424 83.4222C80.6447 85.6545 74.5572 85.9712 68.8911 84.3299C63.225 82.6887 58.2492 79.1674 54.6267 74.2354C54.1866 73.5958 53.8953 72.8441 53.7761 72.0401C53.6568 71.236 53.713 70.402 53.94 69.6044L53.897 69.5155ZM111.149 63.1746C111.299 62.6381 111.586 62.1522 111.976 61.7765C112.365 61.4007 112.841 61.1515 113.343 61.0592C113.709 61.0002 114.077 61.0161 114.429 61.1063C115.001 61.2801 115.484 61.6779 115.79 62.2263C117.965 65.9983 119.344 70.2848 119.835 74.7944C120.325 79.304 119.914 83.9313 118.631 88.3619C117.348 92.7926 115.221 96.9229 112.397 100.472C109.572 104.022 106.115 106.907 102.261 108.933C101.817 109.172 101.326 109.269 100.848 109.212C100.371 109.155 99.9262 108.947 99.5691 108.612C99.1979 108.269 98.9311 107.811 98.801 107.292C98.6708 106.773 98.6827 106.215 98.8351 105.686C100.88 98.6785 101.088 91.2911 99.4355 84.3874C99.3146 83.8774 99.3301 83.3322 99.48 82.8146C99.6299 82.297 99.9082 81.8281 100.283 81.4617C105.418 76.5577 109.253 70.2344 111.339 63.2297L111.149 63.1746ZM62.7228 27.178C66.3012 24.5946 70.3023 22.851 74.456 22.065C78.6097 21.2791 82.8192 21.4691 86.7999 22.6221C90.7806 23.7752 94.4399 25.8645 97.5304 28.7488C100.621 31.6331 103.071 35.2453 104.714 39.3413C104.903 39.822 104.958 40.3592 104.874 40.8899C104.791 41.4206 104.571 41.9226 104.242 42.3369C103.912 42.7512 103.486 43.0606 103.015 43.2286C102.543 43.3966 102.044 43.4163 101.578 43.2853C95.2761 41.4286 88.5165 41.6186 82.0997 43.8328C81.6205 44.0094 81.1123 44.0304 80.6385 43.8932C80.1646 43.7559 79.7463 43.4666 79.4357 43.0611C75.2004 37.791 69.6157 34.0272 63.3289 32.206C62.8555 32.0796 62.4334 31.8039 62.1134 31.4123C61.7933 31.0207 61.589 30.5299 61.525 29.9987C61.4609 29.4675 61.5399 28.9187 61.7523 28.4183C61.9648 27.9179 62.3019 27.4872 62.7228 27.178ZM52.0096 40.4276C52.4808 39.4585 53.2047 38.6541 54.0839 38.1231C54.9631 37.592 55.9552 37.3599 56.9262 37.458C58.5491 37.6218 60.1493 37.932 61.7108 38.3854C68.036 40.196 73.4787 44.3617 77.1308 50.1878C77.4898 50.7632 78.0254 51.1754 78.6486 51.356C79.2718 51.5365 79.9451 51.4744 80.5561 51.18C86.7535 48.1903 93.5854 47.578 99.8967 49.4464C101.481 49.9018 103.02 50.501 104.5 51.2382C105.357 51.6882 106.052 52.4224 106.492 53.3423C106.933 54.2622 107.097 55.3235 106.963 56.3837C106.732 58.1722 106.368 59.9452 105.874 61.6849C104.892 65.0949 103.396 68.3307 101.452 71.2549C101.016 71.9313 100.444 72.4932 99.7839 72.8934C99.1238 73.2937 98.3946 73.5208 97.657 73.5561C96.9189 73.5993 96.1915 73.4533 95.5331 73.1299C94.8747 72.8065 94.3034 72.3147 93.865 71.6936C89.526 65.5166 83.4364 61.1044 76.4617 59.0841C69.487 57.0638 61.982 57.5382 55.0133 60.4398C54.3051 60.732 53.5534 60.8423 52.8185 60.7622C52.0836 60.682 51.3859 60.4134 50.7811 59.978C50.1823 59.5473 49.6918 58.964 49.3485 58.2742C49.0052 57.5844 48.8187 56.8074 48.8038 56.0048C48.7502 52.4952 49.2262 48.9672 50.2129 45.562C50.6733 43.8053 51.2637 42.0849 51.9778 40.4185L52.0096 40.4276ZM41.226 40.6281C41.7898 40.3319 42.4202 40.2573 43.0057 40.4177C43.3505 40.5329 43.6701 40.716 43.9492 40.9584C44.3164 41.3017 44.5781 41.7601 44.7028 42.2778C44.8275 42.7955 44.8096 43.3502 44.6513 43.8745C42.606 50.8873 42.4087 58.2811 44.0826 65.1826C44.2034 65.6926 44.188 66.2377 44.0381 66.7553C43.8882 67.2728 43.6098 67.7418 43.2351 68.1083C38.1362 73.0344 34.3543 79.3773 32.3373 86.3862C32.1947 86.9118 31.9184 87.3895 31.5416 87.7621C31.1647 88.1347 30.7034 88.3864 30.2132 88.4866C29.7229 88.5867 29.2248 88.5312 28.7783 88.3269C28.3319 88.1225 27.9564 87.7778 27.6969 87.3344C25.5218 83.5624 24.142 79.276 23.6517 74.7664C23.1615 70.2568 23.572 65.6294 24.8554 61.1988C26.1388 56.7681 28.265 52.6379 31.0897 49.0884C33.9143 45.539 37.3715 42.6536 41.226 40.6281Z" fill="#FFF9F0" stroke="#F2BEBE"/>
<path d="M31.3103 100.404L31.6591 100.505L31.7055 100.939C32.1777 108.535 34.7349 115.671 39.0463 121.426C43.3578 127.181 49.2251 131.29 55.8894 133.22C62.5538 135.151 69.7084 134.814 76.4282 132.254C83.1481 129.695 89.1238 125.03 93.5826 118.862L93.695 118.475L94.044 118.576C101.029 117.629 107.712 114.425 113.228 109.378C118.744 104.331 122.84 97.6737 124.986 90.2667C127.131 82.8597 127.228 75.0439 125.263 67.8302C123.298 60.6164 119.363 54.3366 113.965 49.8029L113.616 49.7018L113.738 49.2787C113.266 41.6831 110.709 34.5464 106.397 28.7914C102.086 23.0364 96.2189 18.9281 89.5546 16.9977C82.8902 15.0673 75.7354 15.4037 69.0156 17.9633C62.2957 20.5229 56.32 25.188 51.8612 31.3553L51.5799 31.7324L51.2311 31.6314C44.2458 32.5782 37.5629 35.7822 32.0467 40.8291C26.5306 45.8759 22.4349 52.5333 20.2894 59.9403C18.1439 67.3473 18.0472 75.1631 20.012 82.3769C21.9767 89.5906 25.9125 95.8704 31.3103 100.404ZM81.726 122.649C78.1445 125.233 74.1402 126.976 69.9839 127.761C65.8275 128.547 61.6157 128.356 57.6326 127.202C53.6494 126.049 49.9876 123.958 46.8946 121.073C43.8015 118.188 41.349 114.574 39.7027 110.477C39.5135 109.993 39.4584 109.453 39.5442 108.919C39.63 108.385 39.8531 107.881 40.1868 107.467C40.5205 107.052 40.9508 106.745 41.4266 106.581C41.9024 106.417 42.4036 106.403 42.8706 106.542C49.1726 108.399 55.9322 108.209 62.3489 105.994C62.8287 105.833 63.3327 105.82 63.8034 105.957C64.2627 106.094 64.6708 106.371 64.9813 106.757C69.2252 112.035 74.8211 115.802 81.1197 117.621C81.597 117.747 82.0218 118.027 82.3406 118.425C82.6594 118.823 82.8582 119.322 82.9121 119.86C82.9825 120.398 82.9058 120.955 82.6914 121.464C82.4769 121.972 82.1342 122.409 81.7056 122.72L81.726 122.649ZM92.4393 109.4C91.9932 110.369 91.2887 111.179 90.4243 111.716C89.56 112.254 88.5788 112.491 87.6177 112.397C85.9896 112.261 84.3846 111.962 82.8227 111.505C76.4808 109.693 71.0278 105.51 67.3814 99.6578C67.0182 99.0781 66.4775 98.6629 65.8488 98.4808C65.2202 98.2987 64.5413 98.3607 63.9245 98.6564C57.7579 101.603 50.9716 102.199 44.6994 100.347C43.1338 99.9015 41.6175 99.2959 40.1698 98.5383C39.3025 98.1053 38.5955 97.3799 38.1467 96.4625C37.6979 95.5452 37.5295 94.4815 37.6651 93.419C37.907 91.6326 38.2818 89.8626 38.7855 88.127C39.7716 84.7216 41.2547 81.4853 43.1758 78.5477C43.6174 77.8774 44.1905 77.3203 44.8493 76.9208C45.5081 76.5213 46.2345 76.2905 46.9708 76.2465C47.7146 76.2018 48.4479 76.3477 49.1119 76.6727C49.7759 76.9977 50.3522 77.4928 50.7946 78.1182C55.1336 84.2952 61.2231 88.7074 68.1978 90.7277C75.1725 92.748 82.6776 92.2736 89.6463 89.3721C90.5888 88.9647 91.6098 88.8982 92.5542 89.1828C93.013 89.33 93.4477 89.5459 93.8465 89.8246C94.4511 90.2487 94.946 90.8304 95.2899 91.5215C95.6339 92.2126 95.817 92.9931 95.824 93.7978C95.9046 97.3086 95.4388 100.843 94.4465 104.25C93.9256 106.045 93.2684 107.798 92.4822 109.488L92.4393 109.4ZM54.8389 69.8524C55.079 69.0456 55.4878 68.302 56.0318 67.6824C56.5758 67.0629 57.2394 66.5852 57.9681 66.2886C63.6646 64.0352 69.758 63.7077 75.4283 65.3502C81.0986 66.9926 86.0736 70.5263 89.6838 75.4754C90.1436 76.1169 90.4494 76.8784 90.576 77.6962C90.7025 78.514 90.6459 79.3641 90.4109 80.1754C90.1759 80.9867 89.7694 81.7354 89.2254 82.3589C88.6813 82.9825 88.0158 83.4626 87.2843 83.7591C81.5866 85.9914 75.4991 86.3081 69.833 84.6668C64.1669 83.0256 59.1911 79.5043 55.5686 74.5723C55.1285 73.9327 54.8372 73.181 54.7179 72.377C54.5987 71.5729 54.6549 70.7389 54.8819 69.9414L54.8389 69.8524ZM112.091 63.5115C112.241 62.975 112.528 62.4891 112.917 62.1134C113.307 61.7376 113.783 61.4884 114.285 61.3961C114.651 61.3371 115.019 61.353 115.371 61.4433C115.943 61.6171 116.426 62.0149 116.731 62.5632C118.907 66.3353 120.286 70.6217 120.776 75.1313C121.267 79.6409 120.856 84.2682 119.573 88.6988C118.289 93.1295 116.163 97.2598 113.339 100.809C110.514 104.359 107.057 107.244 103.202 109.27C102.759 109.509 102.268 109.606 101.79 109.549C101.312 109.492 100.868 109.284 100.511 108.949C100.14 108.606 99.873 108.147 99.7429 107.629C99.6127 107.11 99.6245 106.552 99.7769 106.023C101.822 99.0154 102.03 91.6281 100.377 84.7243C100.257 84.2143 100.272 83.6691 100.422 83.1515C100.572 82.634 100.85 82.165 101.225 81.7986C106.36 76.8946 110.195 70.5713 112.281 63.5666L112.091 63.5115ZM63.6647 27.5149C67.243 24.9315 71.2442 23.1879 75.3979 22.4019C79.5516 21.616 83.7611 21.806 87.7418 22.9591C91.7225 24.1121 95.3818 26.2014 98.4723 29.0857C101.563 31.9701 104.013 35.5823 105.656 39.6782C105.844 40.1589 105.9 40.6961 105.816 41.2268C105.732 41.7575 105.513 42.2596 105.183 42.6739C104.854 43.0882 104.428 43.3975 103.956 43.5655C103.485 43.7335 102.986 43.7532 102.52 43.6222C96.218 41.7655 89.4584 41.9555 83.0416 44.1697C82.5624 44.3464 82.0542 44.3674 81.5804 44.2301C81.1065 44.0929 80.6882 43.8035 80.3776 43.3981C76.1422 38.1279 70.5576 34.3642 64.2708 32.5429C63.7974 32.4165 63.3753 32.1408 63.0553 31.7493C62.7352 31.3577 62.5309 30.8668 62.4668 30.3356C62.4028 29.8044 62.4818 29.2556 62.6942 28.7552C62.9067 28.2548 63.2438 27.8241 63.6647 27.5149ZM52.9514 40.7646C53.4227 39.7954 54.1466 38.991 55.0258 38.46C55.905 37.9289 56.8971 37.6968 57.8681 37.7949C59.491 37.9587 61.0912 38.2689 62.6527 38.7223C68.9779 40.5329 74.4205 44.6986 78.0726 50.5247C78.4317 51.1001 78.9673 51.5124 79.5905 51.6929C80.2137 51.8734 80.887 51.8113 81.498 51.5169C87.6954 48.5272 94.5273 47.9149 100.839 49.7833C102.422 50.2387 103.962 50.838 105.442 51.5751C106.299 52.0251 106.994 52.7594 107.434 53.6792C107.874 54.5991 108.039 55.6604 107.905 56.7206C107.674 58.5091 107.309 60.2821 106.816 62.0218C105.834 65.4319 104.338 68.6676 102.394 71.5918C101.958 72.2682 101.386 72.8301 100.726 73.2303C100.066 73.6306 99.3365 73.8578 98.5989 73.893C97.8608 73.9362 97.1334 73.7902 96.475 73.4668C95.8166 73.1434 95.2453 72.6516 94.8069 72.0305C90.4679 65.8536 84.3783 61.4414 77.4036 59.4211C70.4289 57.4008 62.9239 57.8751 55.9552 60.7767C55.247 61.0689 54.4953 61.1793 53.7604 61.0991C53.0255 61.0189 52.3278 60.7503 51.723 60.3149C51.1242 59.8843 50.6337 59.3009 50.2904 58.6111C49.9471 57.9214 49.7606 57.1443 49.7457 56.3417C49.6921 52.8321 50.1681 49.3041 51.1547 45.8989C51.6152 44.1422 52.2056 42.4218 52.9197 40.7554L52.9514 40.7646ZM42.1679 40.965C42.7317 40.6688 43.3621 40.5942 43.9476 40.7546C44.2924 40.8698 44.612 41.0529 44.8911 41.2954C45.2583 41.6386 45.52 42.097 45.6447 42.6147C45.7693 43.1324 45.7515 43.6871 45.5932 44.2115C43.5479 51.2242 43.3505 58.618 45.0245 65.5195C45.1453 66.0295 45.1299 66.5746 44.98 67.0922C44.8301 67.6097 44.5517 68.0788 44.177 68.4452C39.0781 73.3713 35.2962 79.7142 33.2792 86.7231C33.1366 87.2487 32.8603 87.7264 32.4835 88.099C32.1066 88.4716 31.6453 88.7233 31.1551 88.8235C30.6648 88.9236 30.1666 88.8682 29.7202 88.6638C29.2738 88.4594 28.8983 88.1147 28.6388 87.6713C26.4637 83.8993 25.0839 79.6129 24.5936 75.1033C24.1034 70.5937 24.5139 65.9663 25.7973 61.5357C27.0807 57.105 29.2069 52.9748 32.0316 49.4253C34.8562 45.8759 38.3134 42.9905 42.1679 40.965Z" fill="#FFF9F0" stroke="#F2BEBE"/>
<path d="M32.2517 100.741L32.6005 100.842L32.6469 101.276C33.1191 108.871 35.6763 116.008 39.9878 121.763C44.2992 127.518 50.1665 131.626 56.8308 133.557C63.4952 135.487 70.6498 135.151 77.3697 132.591C84.0895 130.031 90.0652 125.366 94.5241 119.199L94.6364 118.811L94.9854 118.912C101.971 117.966 108.653 114.761 114.17 109.715C119.686 104.668 123.782 98.0104 125.927 90.6034C128.073 83.1964 128.169 75.3806 126.204 68.1668C124.24 60.9531 120.304 54.6733 114.906 50.1396L114.557 50.0385L114.68 49.6154C114.208 42.0198 111.65 34.883 107.339 29.1281C103.027 23.3731 97.1603 19.2647 90.496 17.3343C83.8317 15.4039 76.6768 15.7403 69.957 18.3C63.2371 20.8596 57.2614 25.5247 52.8026 31.692L52.5213 32.0691L52.1725 31.968C45.1872 32.9149 38.5043 36.1189 32.9882 41.1657C27.472 46.2126 23.3763 52.8699 21.2308 60.2769C19.0853 67.6839 18.9886 75.4998 20.9534 82.7135C22.9181 89.9273 26.8539 96.2071 32.2517 100.741ZM82.6674 122.986C79.0859 125.569 75.0817 127.312 70.9253 128.098C66.7689 128.883 62.5572 128.693 58.574 127.539C54.5908 126.385 50.9291 124.295 47.836 121.41C44.7429 118.524 42.2904 114.911 40.6441 110.813C40.4549 110.33 40.3998 109.789 40.4856 109.256C40.5714 108.722 40.7945 108.218 41.1282 107.804C41.4619 107.389 41.8922 107.082 42.368 106.918C42.8438 106.754 43.345 106.74 43.812 106.879C50.114 108.735 56.8736 108.545 63.2903 106.331C63.7701 106.169 64.2741 106.157 64.7448 106.294C65.2042 106.431 65.6122 106.708 65.9228 107.094C70.1666 112.371 75.7625 116.138 82.0611 117.958C82.5384 118.084 82.9632 118.364 83.282 118.762C83.6008 119.16 83.7996 119.659 83.8535 120.196C83.924 120.734 83.8472 121.292 83.6328 121.8C83.4183 122.308 83.0756 122.745 82.647 123.056L82.6674 122.986ZM93.3807 109.736C92.9346 110.706 92.2301 111.516 91.3657 112.053C90.5014 112.59 89.5202 112.828 88.5591 112.733C86.931 112.598 85.326 112.299 83.7641 111.841C77.4222 110.03 71.9692 105.846 68.3228 99.9944C67.9596 99.4148 67.4189 98.9995 66.7903 98.8174C66.1616 98.6353 65.4827 98.6973 64.8659 98.9931C58.6993 101.939 51.913 102.536 45.6408 100.684C44.0753 100.238 42.5589 99.6326 41.1112 98.875C40.2439 98.442 39.5369 97.7165 39.0881 96.7992C38.6393 95.8818 38.4709 94.8182 38.6065 93.7556C38.8484 91.9692 39.2232 90.1993 39.7269 88.4636C40.713 85.0583 42.1961 81.822 44.1172 78.8844C44.5588 78.214 45.1319 77.657 45.7907 77.2575C46.4495 76.858 47.1759 76.6271 47.9122 76.5832C48.656 76.5384 49.3893 76.6844 50.0533 77.0094C50.7173 77.3344 51.2936 77.8294 51.736 78.4549C56.075 84.6319 62.1645 89.0441 69.1392 91.0644C76.114 93.0847 83.619 92.6103 90.5877 89.7087C91.5302 89.3013 92.5512 89.2349 93.4956 89.5195C93.9544 89.6667 94.3891 89.8826 94.7879 90.1613C95.3925 90.5853 95.8874 91.167 96.2313 91.8582C96.5753 92.5493 96.7584 93.3298 96.7654 94.1345C96.846 97.6453 96.3802 101.179 95.3879 104.586C94.867 106.382 94.2098 108.135 93.4236 109.825L93.3807 109.736ZM55.7803 70.1891C56.0205 69.3823 56.4292 68.6386 56.9732 68.0191C57.5172 67.3996 58.1808 66.9219 58.9095 66.6253C64.606 64.3719 70.6994 64.0444 76.3697 65.6869C82.04 67.3293 87.015 70.8629 90.6252 75.8121C91.085 76.4536 91.3909 77.2151 91.5174 78.0329C91.6439 78.8506 91.5873 79.7008 91.3523 80.512C91.1173 81.3233 90.7108 82.0721 90.1668 82.6956C89.6228 83.3191 88.9572 83.7993 88.2257 84.0957C82.528 86.3281 76.4405 86.6447 70.7744 85.0035C65.1083 83.3622 60.1325 79.841 56.51 74.9089C56.0699 74.2694 55.7786 73.5177 55.6594 72.7137C55.5401 71.9096 55.5963 71.0756 55.8233 70.278L55.7803 70.1891ZM113.032 63.8482C113.182 63.3117 113.469 62.8258 113.859 62.45C114.249 62.0743 114.724 61.8251 115.226 61.7328C115.592 61.6738 115.96 61.6897 116.313 61.7799C116.884 61.9537 117.367 62.3515 117.673 62.8999C119.848 66.6719 121.228 70.9583 121.718 75.468C122.208 79.9776 121.798 84.6048 120.514 89.0355C119.231 93.4662 117.105 97.5965 114.28 101.146C111.455 104.695 107.998 107.581 104.144 109.606C103.7 109.846 103.21 109.943 102.732 109.886C102.254 109.829 101.809 109.62 101.452 109.285C101.081 108.942 100.814 108.484 100.684 107.965C100.554 107.446 100.566 106.889 100.718 106.36C102.763 99.352 102.971 91.9647 101.319 85.061C101.198 84.551 101.213 84.0058 101.363 83.4882C101.513 82.9706 101.792 82.5017 102.166 82.1352C107.302 77.2313 111.136 70.908 113.223 63.9033L113.032 63.8482ZM64.6061 27.8516C68.1845 25.2682 72.1856 23.5246 76.3393 22.7386C80.493 21.9527 84.7025 22.1427 88.6832 23.2957C92.6639 24.4488 96.3232 26.538 99.4137 29.4224C102.504 32.3067 104.954 35.9189 106.598 40.0149C106.786 40.4956 106.841 41.0328 106.758 41.5635C106.674 42.0942 106.454 42.5962 106.125 43.0105C105.795 43.4248 105.37 43.7342 104.898 43.9022C104.426 44.0701 103.928 44.0899 103.461 43.9589C97.1594 42.1022 90.3998 42.2922 83.983 44.5064C83.5038 44.683 82.9956 44.704 82.5218 44.5668C82.0479 44.4295 81.6296 44.1401 81.319 43.7347C77.0837 38.4646 71.499 34.7008 65.2122 32.8796C64.7388 32.7532 64.3167 32.4775 63.9967 32.0859C63.6766 31.6943 63.4723 31.2035 63.4083 30.6723C63.3442 30.1411 63.4232 29.5923 63.6356 29.0919C63.8481 28.5915 64.1852 28.1607 64.6061 27.8516ZM53.8929 41.1012C54.3641 40.1321 55.088 39.3277 55.9672 38.7966C56.8464 38.2656 57.8385 38.0335 58.8095 38.1315C60.4324 38.2954 62.0326 38.6056 63.5941 39.059C69.9193 40.8696 75.362 45.0353 79.0141 50.8613C79.3731 51.4368 79.9087 51.849 80.5319 52.0295C81.1551 52.2101 81.8284 52.148 82.4394 51.8535C88.6368 48.8639 95.4687 48.2516 101.78 50.1199C103.364 50.5753 104.903 51.1746 106.383 51.9117C107.24 52.3617 107.935 53.096 108.376 54.0159C108.816 54.9357 108.98 55.9971 108.846 57.0573C108.615 58.8458 108.251 60.6188 107.757 62.3585C106.775 65.7685 105.28 69.0043 103.335 71.9285C102.899 72.6049 102.327 73.1667 101.667 73.567C101.007 73.9673 100.278 74.1944 99.5403 74.2297C98.8022 74.2729 98.0748 74.1269 97.4164 73.8035C96.758 73.4801 96.1867 72.9883 95.7483 72.3672C91.4093 66.1902 85.3197 61.778 78.345 59.7577C71.3703 57.7374 63.8653 58.2118 56.8966 61.1134C56.1884 61.4055 55.4367 61.5159 54.7018 61.4358C53.9669 61.3556 53.2692 61.087 52.6644 60.6516C52.0656 60.2209 51.5751 59.6376 51.2318 58.9478C50.8885 58.258 50.702 57.481 50.6871 56.6784C50.6335 53.1688 51.1095 49.6408 52.0962 46.2356C52.5566 44.4789 53.147 42.7585 53.8611 41.092L53.8929 41.1012ZM43.1093 41.3017C43.6731 41.0054 44.3035 40.9309 44.889 41.0913C45.2338 41.2064 45.5534 41.3896 45.8325 41.632C46.1997 41.9753 46.4614 42.4337 46.5861 42.9514C46.7108 43.4691 46.6929 44.0238 46.5346 44.5481C44.4893 51.5609 44.292 58.9547 45.9659 65.8562C46.0867 66.3662 46.0713 66.9113 45.9214 67.4288C45.7715 67.9464 45.4931 68.4154 45.1184 68.7819C40.0195 73.708 36.2376 80.0509 34.2206 87.0598C34.078 87.5853 33.8017 88.0631 33.4249 88.4357C33.048 88.8083 32.5867 89.06 32.0965 89.1601C31.6062 89.2603 31.1081 89.2048 30.6616 89.0004C30.2152 88.7961 29.8397 88.4514 29.5802 88.008C27.4051 84.236 26.0253 79.9496 25.535 75.44C25.0448 70.9303 25.4553 66.303 26.7387 61.8723C28.0221 57.4417 30.1483 53.3114 32.973 49.762C35.7976 46.2126 39.2548 43.3272 43.1093 41.3017Z" fill="#FFFAF9" stroke="#F2BEBE"/>
</svg>
