<svg width="196" height="199" viewBox="0 0 196 199" fill="none" xmlns="http://www.w3.org/2000/svg">
<g filter="url(#filter0_f_18_38)">
<path d="M71.5114 141.956L71.8662 141.878L72.1139 142.238C76.1527 148.688 81.8049 153.74 88.3396 156.741C94.8744 159.742 101.991 160.553 108.769 159.07C115.547 157.588 121.674 153.878 126.359 148.423C131.044 142.968 134.07 136.017 135.046 128.469L134.96 128.075L135.315 127.997C141.002 123.833 145.347 117.828 147.787 110.761C150.227 103.694 150.651 95.8892 149.003 88.3559C147.354 80.8226 143.71 73.9076 138.542 68.5051C133.374 63.1026 126.919 59.4611 120.012 58.0518L119.657 58.1294L119.563 57.6991C115.524 51.2489 109.872 46.1967 103.337 43.1958C96.8028 40.1949 89.6864 39.3833 82.9084 40.8662C76.1304 42.3491 70.0028 46.0582 65.3182 51.5136C60.6335 56.9691 57.6073 63.92 56.6309 71.4673L56.5636 71.933L56.2089 72.0106C50.5216 76.1753 46.1768 82.1794 43.7366 89.2465C41.2964 96.3136 40.873 104.118 42.5211 111.652C44.1692 119.185 47.8131 126.1 52.9813 131.503C58.1496 136.905 64.6046 140.547 71.5114 141.956ZM126.432 137.454C124.517 141.433 121.83 144.875 118.552 147.549C115.273 150.222 111.481 152.064 107.43 152.95C103.379 153.836 99.1635 153.746 95.0686 152.686C90.9737 151.626 87.0944 149.62 83.6926 146.804C83.2957 146.47 82.9893 146.021 82.8102 145.511C82.6311 145.001 82.5866 144.452 82.6822 143.928C82.7777 143.405 83.0092 142.929 83.3491 142.558C83.6891 142.187 84.1231 141.936 84.5996 141.835C91.0239 140.46 96.874 137.068 101.457 132.061C101.802 131.69 102.238 131.438 102.718 131.335C103.187 131.236 103.677 131.285 104.134 131.475C110.382 134.089 117.097 134.73 123.501 133.324C123.981 133.208 124.487 133.251 124.958 133.449C125.428 133.646 125.84 133.99 126.144 134.436C126.463 134.876 126.661 135.402 126.715 135.951C126.769 136.5 126.676 137.048 126.448 137.526L126.432 137.454ZM129.527 120.698C129.597 121.763 129.365 122.811 128.861 123.696C128.358 124.58 127.609 125.257 126.719 125.633C125.224 126.29 123.671 126.793 122.079 127.136C115.642 128.57 108.853 127.495 102.857 124.091C102.261 123.755 101.588 123.648 100.948 123.788C100.309 123.928 99.7419 124.306 99.341 124.86C95.327 130.392 89.6475 134.154 83.2514 135.518C81.6629 135.873 80.0413 136.065 78.4076 136.09C77.4387 136.123 76.4713 135.822 75.6392 135.23C74.8071 134.638 74.1517 133.784 73.7639 132.785C73.1243 131.1 72.6092 129.366 72.2239 127.6C71.4659 124.137 71.2254 120.585 71.5123 117.086C71.5806 116.287 71.8185 115.524 72.2069 114.858C72.5953 114.193 73.1236 113.643 73.7497 113.254C74.3821 112.859 75.0962 112.638 75.8348 112.607C76.5734 112.575 77.316 112.736 78.0032 113.074C84.7635 116.433 92.2204 117.405 99.314 115.853C106.408 114.302 112.777 110.304 117.517 104.429C118.151 103.622 119.017 103.076 119.983 102.876C120.456 102.786 120.941 102.769 121.425 102.823C122.158 102.908 122.871 103.183 123.503 103.626C124.135 104.069 124.668 104.668 125.058 105.372C126.804 108.419 128.081 111.747 128.834 115.215C129.233 117.041 129.491 118.895 129.607 120.756L129.527 120.698ZM77.6141 103.88C77.4403 103.057 77.4448 102.208 77.6273 101.404C77.8098 100.6 78.1652 99.8636 78.664 99.2553C82.5954 94.5572 87.7944 91.3623 93.5614 90.1007C99.3284 88.839 105.387 89.571 110.921 92.1983C111.631 92.5427 112.263 93.0661 112.764 93.7244C113.265 94.3828 113.621 95.1569 113.802 95.982C113.982 96.8071 113.982 97.6591 113.802 98.4666C113.621 99.2742 113.265 100.014 112.764 100.623C108.821 105.303 103.622 108.486 97.8595 109.747C92.0968 111.007 86.0439 110.287 80.5072 107.68C79.8153 107.328 79.2007 106.806 78.7123 106.157C78.2239 105.507 77.8754 104.747 77.6944 103.938L77.6141 103.88ZM124.905 70.9937C124.781 70.4508 124.802 69.8868 124.965 69.3706C125.128 68.8545 125.427 68.4086 125.825 68.0878C126.118 67.8615 126.449 67.6998 126.802 67.611C127.387 67.4911 128.001 67.6102 128.532 67.9463C132.243 70.2237 135.5 73.3327 138.082 77.0622C140.665 80.7916 142.512 85.0541 143.497 89.5603C144.483 94.0665 144.585 98.7109 143.796 103.178C143.007 107.645 141.345 111.83 138.924 115.449C138.649 115.871 138.264 116.191 137.817 116.369C137.369 116.547 136.879 116.575 136.405 116.451C135.916 116.327 135.463 116.051 135.101 115.657C134.739 115.264 134.483 114.768 134.365 114.23C132.818 107.096 129.477 100.504 124.731 95.2251C124.382 94.8345 124.135 94.348 124.02 93.8216C123.905 93.2952 123.926 92.7503 124.08 92.2495C126.254 85.4895 126.607 78.1028 125.099 70.9514L124.905 70.9937ZM65.1724 62.4609C67.0848 58.4833 69.7694 55.0421 73.045 52.3697C76.3205 49.6973 80.1107 47.856 84.1592 46.9703C88.2078 46.0845 92.4206 46.1749 96.5128 47.2354C100.605 48.2959 104.481 50.3018 107.88 53.1174C108.275 53.4501 108.58 53.8958 108.759 54.4021C108.939 54.9085 108.985 55.4545 108.894 55.9757C108.802 56.497 108.575 56.972 108.241 57.3447C107.906 57.7175 107.477 57.9726 107.005 58.0799C100.581 59.4547 94.7307 62.8466 90.1477 67.8538C89.8108 68.2377 89.3742 68.4986 88.8922 68.604C88.4103 68.7095 87.9046 68.6547 87.4382 68.4466C81.2017 65.8355 74.4979 65.192 68.1039 66.5907C67.6275 66.7054 67.125 66.6646 66.6569 66.4731C66.1888 66.2816 65.7751 65.9477 65.4654 65.5114C65.1557 65.0751 64.9632 64.5551 64.9112 64.014C64.8592 63.4728 64.95 62.9334 65.1724 62.4609ZM62.0781 79.2166C62.0299 78.14 62.2824 77.0877 62.8017 76.2016C63.3211 75.3154 64.0822 74.6381 64.9824 74.261C66.4868 73.6308 68.0411 73.14 69.6298 72.7935C76.0526 71.3671 82.8233 72.4316 88.8125 75.8095C89.4026 76.144 90.07 76.2507 90.7038 76.1121C91.3376 75.9734 91.8997 75.5976 92.2962 75.0474C96.3166 69.4633 102.029 65.6657 108.467 64.2968C110.076 63.9414 111.715 63.7336 113.367 63.6755C114.335 63.6621 115.296 63.9758 116.122 64.5742C116.948 65.1725 117.599 66.0269 117.987 67.0226C118.637 68.7047 119.163 70.4367 119.559 72.201C120.322 75.6667 120.552 79.2238 120.238 82.7215C120.177 83.524 119.943 84.2906 119.554 84.9573C119.165 85.624 118.632 86.1715 118.001 86.5544C117.373 86.9444 116.664 87.1632 115.931 87.1931C115.198 87.223 114.461 87.0632 113.78 86.7266C107.019 83.368 99.5624 82.3955 92.4688 83.9474C85.3751 85.4993 79.0056 89.4968 74.2653 95.3715C73.7824 95.9661 73.1744 96.4217 72.4903 96.7018C71.8062 96.982 71.0648 97.0788 70.3256 96.9847C69.5939 96.8919 68.8844 96.6132 68.2537 96.1708C67.6229 95.7283 67.0883 95.1344 66.6922 94.4362C64.9708 91.3773 63.7059 88.0495 62.9486 84.5861C62.5152 82.8225 62.2133 81.0289 62.0458 79.2237L62.0781 79.2166ZM52.6965 84.5374C53.0507 84.0081 53.5691 83.6418 54.1603 83.5034C54.5182 83.4401 54.8865 83.4487 55.2474 83.5286C55.7339 83.6551 56.1826 83.933 56.5391 84.3286C56.8957 84.7241 57.1446 85.2201 57.2557 85.7564C58.8038 92.8954 62.1578 99.4877 66.9215 104.755C67.271 105.145 67.5175 105.632 67.6327 106.158C67.7479 106.684 67.727 107.229 67.5725 107.73C65.4414 114.492 65.1438 121.871 66.7149 128.993C66.8403 129.523 66.8254 130.075 66.672 130.582C66.5186 131.089 66.2332 131.53 65.8501 131.852C65.4671 132.174 65.0028 132.363 64.5129 132.396C64.0231 132.43 63.5286 132.306 63.0891 132.04C59.3778 129.763 56.1203 126.654 53.5379 122.925C50.9556 119.195 49.1088 114.932 48.1229 110.426C47.137 105.92 47.0352 101.276 47.8243 96.8087C48.6135 92.3417 50.2752 88.1564 52.6965 84.5374Z" fill="#FFF9F0"/>
<path d="M71.5114 141.956L71.8662 141.878L72.1139 142.238C76.1527 148.688 81.8049 153.74 88.3396 156.741C94.8744 159.742 101.991 160.553 108.769 159.07C115.547 157.588 121.674 153.878 126.359 148.423C131.044 142.968 134.07 136.017 135.046 128.469L134.96 128.075L135.315 127.997C141.002 123.833 145.347 117.828 147.787 110.761C150.227 103.694 150.651 95.8892 149.003 88.3559C147.354 80.8226 143.71 73.9076 138.542 68.5051C133.374 63.1026 126.919 59.4611 120.012 58.0518L119.657 58.1294L119.563 57.6991C115.524 51.2489 109.872 46.1967 103.337 43.1958C96.8028 40.1949 89.6864 39.3833 82.9084 40.8662C76.1304 42.3491 70.0028 46.0582 65.3182 51.5136C60.6335 56.9691 57.6073 63.92 56.6309 71.4673L56.5636 71.933L56.2089 72.0106C50.5216 76.1753 46.1768 82.1794 43.7366 89.2465C41.2964 96.3136 40.873 104.118 42.5211 111.652C44.1692 119.185 47.8131 126.1 52.9813 131.503C58.1496 136.905 64.6046 140.547 71.5114 141.956ZM126.432 137.454C124.517 141.433 121.83 144.875 118.552 147.549C115.273 150.222 111.481 152.064 107.43 152.95C103.379 153.836 99.1635 153.746 95.0686 152.686C90.9737 151.626 87.0944 149.62 83.6926 146.804C83.2957 146.47 82.9893 146.021 82.8102 145.511C82.6311 145.001 82.5866 144.452 82.6822 143.928C82.7777 143.405 83.0092 142.929 83.3491 142.558C83.6891 142.187 84.1231 141.936 84.5996 141.835C91.0239 140.46 96.874 137.068 101.457 132.061C101.802 131.69 102.238 131.438 102.718 131.335C103.187 131.236 103.677 131.285 104.134 131.475C110.382 134.089 117.097 134.73 123.501 133.324C123.981 133.208 124.487 133.251 124.958 133.449C125.428 133.646 125.84 133.99 126.144 134.436C126.463 134.876 126.661 135.402 126.715 135.951C126.769 136.5 126.676 137.048 126.448 137.526L126.432 137.454ZM129.527 120.698C129.597 121.763 129.365 122.811 128.861 123.696C128.358 124.58 127.609 125.257 126.719 125.633C125.224 126.29 123.671 126.793 122.079 127.136C115.642 128.57 108.853 127.495 102.857 124.091C102.261 123.755 101.588 123.648 100.948 123.788C100.309 123.928 99.7419 124.306 99.341 124.86C95.327 130.392 89.6475 134.154 83.2514 135.518C81.6629 135.873 80.0413 136.065 78.4076 136.09C77.4387 136.123 76.4713 135.822 75.6392 135.23C74.8071 134.638 74.1517 133.784 73.7639 132.785C73.1243 131.1 72.6092 129.366 72.2239 127.6C71.4659 124.137 71.2254 120.585 71.5123 117.086C71.5806 116.287 71.8185 115.524 72.2069 114.858C72.5953 114.193 73.1236 113.643 73.7497 113.254C74.3821 112.859 75.0962 112.638 75.8348 112.607C76.5734 112.575 77.316 112.736 78.0032 113.074C84.7635 116.433 92.2204 117.405 99.314 115.853C106.408 114.302 112.777 110.304 117.517 104.429C118.151 103.622 119.017 103.076 119.983 102.876C120.456 102.786 120.941 102.769 121.425 102.823C122.158 102.908 122.871 103.183 123.503 103.626C124.135 104.069 124.668 104.668 125.058 105.372C126.804 108.419 128.081 111.747 128.834 115.215C129.233 117.041 129.491 118.895 129.607 120.756L129.527 120.698ZM77.6141 103.88C77.4403 103.057 77.4448 102.208 77.6273 101.404C77.8098 100.6 78.1652 99.8636 78.664 99.2553C82.5954 94.5572 87.7944 91.3623 93.5614 90.1007C99.3284 88.839 105.387 89.571 110.921 92.1983C111.631 92.5427 112.263 93.0661 112.764 93.7244C113.265 94.3828 113.621 95.1569 113.802 95.982C113.982 96.8071 113.982 97.6591 113.802 98.4666C113.621 99.2742 113.265 100.014 112.764 100.623C108.821 105.303 103.622 108.486 97.8595 109.747C92.0968 111.007 86.0439 110.287 80.5072 107.68C79.8153 107.328 79.2007 106.806 78.7123 106.157C78.2239 105.507 77.8754 104.747 77.6944 103.938L77.6141 103.88ZM124.905 70.9937C124.781 70.4508 124.802 69.8868 124.965 69.3706C125.128 68.8545 125.427 68.4086 125.825 68.0878C126.118 67.8615 126.449 67.6998 126.802 67.611C127.387 67.4911 128.001 67.6102 128.532 67.9463C132.243 70.2237 135.5 73.3327 138.082 77.0622C140.665 80.7916 142.512 85.0541 143.497 89.5603C144.483 94.0665 144.585 98.7109 143.796 103.178C143.007 107.645 141.345 111.83 138.924 115.449C138.649 115.871 138.264 116.191 137.817 116.369C137.369 116.547 136.879 116.575 136.405 116.451C135.916 116.327 135.463 116.051 135.101 115.657C134.739 115.264 134.483 114.768 134.365 114.23C132.818 107.096 129.477 100.504 124.731 95.2251C124.382 94.8345 124.135 94.348 124.02 93.8216C123.905 93.2952 123.926 92.7503 124.08 92.2495C126.254 85.4895 126.607 78.1028 125.099 70.9514L124.905 70.9937ZM65.1724 62.4609C67.0848 58.4833 69.7694 55.0421 73.045 52.3697C76.3205 49.6973 80.1107 47.856 84.1592 46.9703C88.2078 46.0845 92.4206 46.1749 96.5128 47.2354C100.605 48.2959 104.481 50.3018 107.88 53.1174C108.275 53.4501 108.58 53.8958 108.759 54.4021C108.939 54.9085 108.985 55.4545 108.894 55.9757C108.802 56.497 108.575 56.972 108.241 57.3447C107.906 57.7175 107.477 57.9726 107.005 58.0799C100.581 59.4547 94.7307 62.8466 90.1477 67.8538C89.8108 68.2377 89.3742 68.4986 88.8922 68.604C88.4103 68.7095 87.9046 68.6547 87.4382 68.4466C81.2017 65.8355 74.4979 65.192 68.1039 66.5907C67.6275 66.7054 67.125 66.6646 66.6569 66.4731C66.1888 66.2816 65.7751 65.9477 65.4654 65.5114C65.1557 65.0751 64.9632 64.5551 64.9112 64.014C64.8592 63.4728 64.95 62.9334 65.1724 62.4609ZM62.0781 79.2166C62.0299 78.14 62.2824 77.0877 62.8017 76.2016C63.3211 75.3154 64.0822 74.6381 64.9824 74.261C66.4868 73.6308 68.0411 73.14 69.6298 72.7935C76.0526 71.3671 82.8233 72.4316 88.8125 75.8095C89.4026 76.144 90.07 76.2507 90.7038 76.1121C91.3376 75.9734 91.8997 75.5976 92.2962 75.0474C96.3166 69.4633 102.029 65.6657 108.467 64.2968C110.076 63.9414 111.715 63.7336 113.367 63.6755C114.335 63.6621 115.296 63.9758 116.122 64.5742C116.948 65.1725 117.599 66.0269 117.987 67.0226C118.637 68.7047 119.163 70.4367 119.559 72.201C120.322 75.6667 120.552 79.2238 120.238 82.7215C120.177 83.524 119.943 84.2906 119.554 84.9573C119.165 85.624 118.632 86.1715 118.001 86.5544C117.373 86.9444 116.664 87.1632 115.931 87.1931C115.198 87.223 114.461 87.0632 113.78 86.7266C107.019 83.368 99.5624 82.3955 92.4688 83.9474C85.3751 85.4993 79.0056 89.4968 74.2653 95.3715C73.7824 95.9661 73.1744 96.4217 72.4903 96.7018C71.8062 96.982 71.0648 97.0788 70.3256 96.9847C69.5939 96.8919 68.8844 96.6132 68.2537 96.1708C67.6229 95.7283 67.0883 95.1344 66.6922 94.4362C64.9708 91.3773 63.7059 88.0495 62.9486 84.5861C62.5152 82.8225 62.2133 81.0289 62.0458 79.2237L62.0781 79.2166ZM52.6965 84.5374C53.0507 84.0081 53.5691 83.6418 54.1603 83.5034C54.5182 83.4401 54.8865 83.4487 55.2474 83.5286C55.7339 83.6551 56.1826 83.933 56.5391 84.3286C56.8957 84.7241 57.1446 85.2201 57.2557 85.7564C58.8038 92.8954 62.1578 99.4877 66.9215 104.755C67.271 105.145 67.5175 105.632 67.6327 106.158C67.7479 106.684 67.727 107.229 67.5725 107.73C65.4414 114.492 65.1438 121.871 66.7149 128.993C66.8403 129.523 66.8254 130.075 66.672 130.582C66.5186 131.089 66.2332 131.53 65.8501 131.852C65.4671 132.174 65.0028 132.363 64.5129 132.396C64.0231 132.43 63.5286 132.306 63.0891 132.04C59.3778 129.763 56.1203 126.654 53.5379 122.925C50.9556 119.195 49.1088 114.932 48.1229 110.426C47.137 105.92 47.0352 101.276 47.8243 96.8087C48.6135 92.3417 50.2752 88.1564 52.6965 84.5374Z" stroke="#9A4CB5" stroke-width="4"/>
</g>
<path d="M71.5114 141.956L71.8662 141.878L72.1139 142.238C76.1527 148.688 81.8049 153.74 88.3396 156.741C94.8744 159.742 101.991 160.553 108.769 159.07C115.547 157.588 121.674 153.879 126.359 148.423C131.044 142.968 134.07 136.017 135.046 128.469L134.96 128.075L135.315 127.997C141.002 123.833 145.347 117.828 147.787 110.761C150.227 103.694 150.651 95.8893 149.003 88.356C147.354 80.8227 143.71 73.9077 138.542 68.5051C133.374 63.1026 126.919 59.4612 120.012 58.0518L119.657 58.1295L119.563 57.6992C115.524 51.249 109.872 46.1968 103.337 43.1959C96.8028 40.195 89.6864 39.3834 82.9084 40.8663C76.1304 42.3491 70.0028 46.0582 65.3182 51.5137C60.6335 56.9691 57.6073 63.92 56.6309 71.4674L56.5636 71.933L56.2089 72.0106C50.5216 76.1753 46.1768 82.1795 43.7366 89.2466C41.2964 96.3137 40.873 104.119 42.5211 111.652C44.1692 119.185 47.8131 126.1 52.9813 131.503C58.1496 136.905 64.6046 140.547 71.5114 141.956ZM126.432 137.454C124.517 141.433 121.83 144.875 118.552 147.549C115.273 150.222 111.481 152.064 107.43 152.95C103.379 153.836 99.1635 153.746 95.0686 152.686C90.9737 151.626 87.0944 149.62 83.6926 146.805C83.2957 146.47 82.9893 146.021 82.8102 145.511C82.6311 145.001 82.5866 144.452 82.6822 143.928C82.7777 143.405 83.0092 142.929 83.3491 142.558C83.6891 142.187 84.1231 141.936 84.5996 141.835C91.0239 140.46 96.874 137.068 101.457 132.061C101.802 131.69 102.238 131.438 102.718 131.335C103.187 131.236 103.677 131.285 104.134 131.475C110.382 134.089 117.097 134.73 123.501 133.324C123.981 133.208 124.487 133.251 124.958 133.449C125.428 133.646 125.84 133.99 126.144 134.437C126.463 134.876 126.661 135.402 126.715 135.951C126.769 136.5 126.676 137.048 126.448 137.526L126.432 137.454ZM129.527 120.698C129.597 121.763 129.365 122.811 128.861 123.696C128.358 124.58 127.609 125.257 126.719 125.633C125.224 126.29 123.671 126.793 122.079 127.136C115.642 128.57 108.853 127.495 102.857 124.091C102.261 123.755 101.588 123.648 100.948 123.788C100.309 123.928 99.7419 124.306 99.341 124.86C95.327 130.392 89.6475 134.154 83.2514 135.518C81.6629 135.873 80.0413 136.065 78.4076 136.09C77.4387 136.123 76.4713 135.822 75.6392 135.23C74.8071 134.638 74.1517 133.784 73.7639 132.785C73.1243 131.1 72.6092 129.366 72.2239 127.6C71.4659 124.137 71.2254 120.585 71.5123 117.087C71.5806 116.287 71.8185 115.524 72.2069 114.858C72.5953 114.193 73.1236 113.643 73.7497 113.254C74.3821 112.859 75.0962 112.638 75.8348 112.607C76.5734 112.576 77.316 112.736 78.0032 113.074C84.7635 116.433 92.2204 117.405 99.314 115.853C106.408 114.302 112.777 110.304 117.517 104.429C118.151 103.622 119.017 103.076 119.983 102.876C120.456 102.786 120.941 102.769 121.425 102.823C122.158 102.908 122.871 103.183 123.503 103.626C124.135 104.069 124.668 104.668 125.058 105.372C126.804 108.419 128.081 111.747 128.834 115.215C129.233 117.041 129.491 118.895 129.607 120.756L129.527 120.698ZM77.6141 103.88C77.4403 103.057 77.4448 102.208 77.6273 101.404C77.8098 100.6 78.1652 99.8637 78.664 99.2554C82.5954 94.5573 87.7944 91.3624 93.5614 90.1007C99.3284 88.839 105.387 89.5711 110.921 92.1983C111.631 92.5428 112.263 93.0661 112.764 93.7245C113.265 94.3828 113.621 95.1569 113.802 95.982C113.982 96.8072 113.982 97.6592 113.802 98.4667C113.621 99.2742 113.265 100.014 112.764 100.623C108.821 105.303 103.622 108.486 97.8595 109.747C92.0968 111.007 86.0439 110.287 80.5072 107.68C79.8153 107.328 79.2007 106.807 78.7123 106.157C78.2239 105.507 77.8754 104.747 77.6944 103.938L77.6141 103.88ZM124.905 70.9938C124.781 70.4509 124.802 69.8868 124.965 69.3707C125.128 68.8545 125.427 68.4087 125.825 68.0878C126.118 67.8616 126.449 67.6999 126.802 67.6111C127.387 67.4911 128.001 67.6102 128.532 67.9464C132.243 70.2238 135.5 73.3328 138.082 77.0622C140.665 80.7916 142.512 85.0542 143.497 89.5604C144.483 94.0666 144.585 98.711 143.796 103.178C143.007 107.645 141.345 111.83 138.924 115.449C138.649 115.871 138.264 116.191 137.817 116.369C137.369 116.547 136.879 116.575 136.405 116.451C135.916 116.327 135.463 116.051 135.101 115.657C134.739 115.264 134.483 114.768 134.365 114.23C132.818 107.096 129.477 100.504 124.731 95.2251C124.382 94.8345 124.135 94.348 124.02 93.8216C123.905 93.2952 123.926 92.7504 124.08 92.2495C126.254 85.4896 126.607 78.1028 125.099 70.9514L124.905 70.9938ZM65.1724 62.461C67.0848 58.4834 69.7694 55.0421 73.045 52.3697C76.3205 49.6973 80.1107 47.8561 84.1592 46.9703C88.2078 46.0846 92.4206 46.175 96.5128 47.2355C100.605 48.296 104.481 50.3018 107.88 53.1175C108.275 53.4501 108.58 53.8958 108.759 54.4022C108.939 54.9086 108.985 55.4545 108.894 55.9758C108.802 56.4971 108.575 56.9721 108.241 57.3448C107.906 57.7175 107.477 57.9727 107.005 58.08C100.581 59.4548 94.7307 62.8466 90.1477 67.8539C89.8108 68.2378 89.3742 68.4987 88.8922 68.6041C88.4103 68.7095 87.9046 68.6548 87.4382 68.4466C81.2017 65.8355 74.4979 65.1921 68.1039 66.5908C67.6275 66.7055 67.125 66.6646 66.6569 66.4731C66.1888 66.2817 65.7751 65.9478 65.4654 65.5115C65.1557 65.0752 64.9632 64.5552 64.9112 64.014C64.8592 63.4729 64.95 62.9335 65.1724 62.461ZM62.0781 79.2167C62.0299 78.1401 62.2824 77.0878 62.8017 76.2016C63.3211 75.3155 64.0822 74.6381 64.9824 74.2611C66.4868 73.6309 68.0411 73.14 69.6298 72.7935C76.0526 71.3672 82.8233 72.4317 88.8125 75.8096C89.4026 76.144 90.07 76.2508 90.7038 76.1121C91.3376 75.9735 91.8997 75.5977 92.2962 75.0474C96.3166 69.4633 102.029 65.6658 108.467 64.2968C110.076 63.9414 111.715 63.7336 113.367 63.6755C114.335 63.6622 115.296 63.9758 116.122 64.5742C116.948 65.1726 117.599 66.027 117.987 67.0227C118.637 68.7048 119.163 70.4367 119.559 72.2011C120.322 75.6667 120.552 79.2239 120.238 82.7216C120.177 83.5241 119.943 84.2906 119.554 84.9573C119.165 85.624 118.632 86.1715 118.001 86.5544C117.373 86.9445 116.664 87.1632 115.931 87.1931C115.198 87.223 114.461 87.0633 113.78 86.7267C107.019 83.368 99.5624 82.3955 92.4688 83.9475C85.3751 85.4994 79.0056 89.4968 74.2653 95.3715C73.7824 95.9662 73.1744 96.4218 72.4903 96.7019C71.8062 96.982 71.0648 97.0789 70.3256 96.9847C69.5939 96.8919 68.8844 96.6133 68.2537 96.1708C67.6229 95.7284 67.0883 95.1344 66.6922 94.4362C64.9708 91.3773 63.7059 88.0496 62.9486 84.5862C62.5152 82.8226 62.2133 81.029 62.0458 79.2237L62.0781 79.2167ZM52.6965 84.5375C53.0507 84.0081 53.5691 83.6419 54.1603 83.5035C54.5182 83.4402 54.8865 83.4487 55.2474 83.5286C55.7339 83.6551 56.1826 83.9331 56.5391 84.3286C56.8957 84.7241 57.1446 85.2202 57.2557 85.7565C58.8038 92.8955 62.1578 99.4877 66.9215 104.755C67.271 105.145 67.5175 105.632 67.6327 106.158C67.7479 106.684 67.727 107.229 67.5725 107.73C65.4414 114.492 65.1438 121.871 66.7149 128.993C66.8403 129.523 66.8254 130.075 66.672 130.582C66.5186 131.089 66.2332 131.53 65.8501 131.852C65.4671 132.174 65.0028 132.363 64.5129 132.397C64.0231 132.43 63.5286 132.306 63.0891 132.04C59.3778 129.763 56.1203 126.654 53.5379 122.925C50.9556 119.195 49.1088 114.933 48.1229 110.426C47.137 105.92 47.0352 101.276 47.8243 96.8088C48.6135 92.3417 50.2752 88.1565 52.6965 84.5375Z" fill="#FFF9F0" stroke="#9A4CB5"/>
<path d="M72.4997 141.803L72.8545 141.725L73.1022 142.084C77.141 148.534 82.7932 153.587 89.3279 156.588C95.8626 159.588 102.979 160.4 109.757 158.917C116.535 157.434 122.663 153.725 127.347 148.27C132.032 142.814 135.058 135.863 136.034 128.316L135.948 127.922L136.303 127.844C141.99 123.679 146.335 117.675 148.775 110.608C151.215 103.541 151.639 95.7359 149.991 88.2026C148.343 80.6693 144.699 73.7543 139.53 68.3518C134.362 62.9492 127.907 59.3078 121.001 57.8984L120.646 57.9761L120.551 57.5458C116.513 51.0956 110.86 46.0434 104.326 43.0425C97.791 40.0416 90.6746 39.23 83.8967 40.7129C77.1187 42.1958 70.9911 45.9048 66.3065 51.3603C61.6218 56.8158 58.5956 63.7666 57.6192 71.314L57.5519 71.7797L57.1972 71.8573C51.5098 76.022 47.1651 82.0261 44.7249 89.0932C42.2847 96.1603 41.8613 103.965 43.5094 111.498C45.1575 119.032 48.8013 125.947 53.9696 131.349C59.1379 136.752 65.5929 140.393 72.4997 141.803ZM127.421 137.301C125.506 141.28 122.818 144.722 119.54 147.395C116.262 150.068 112.469 151.91 108.418 152.797C104.367 153.683 100.152 153.593 96.0569 152.533C91.962 151.473 88.0827 149.467 84.6809 146.651C84.2839 146.317 83.9776 145.868 83.7985 145.358C83.6193 144.848 83.5749 144.299 83.6704 143.775C83.766 143.252 83.9975 142.776 84.3374 142.405C84.6773 142.034 85.1113 141.783 85.5878 141.682C92.0122 140.307 97.8623 136.915 102.445 131.908C102.79 131.537 103.227 131.285 103.706 131.181C104.175 131.083 104.666 131.131 105.123 131.322C111.37 133.936 118.085 134.577 124.489 133.171C124.969 133.054 125.476 133.097 125.946 133.295C126.416 133.493 126.829 133.837 127.132 134.283C127.451 134.722 127.649 135.249 127.704 135.798C127.758 136.347 127.665 136.894 127.436 137.372L127.421 137.301ZM130.515 120.545C130.586 121.61 130.353 122.658 129.849 123.542C129.346 124.427 128.597 125.104 127.707 125.479C126.212 126.137 124.659 126.64 123.068 126.983C116.63 128.417 109.842 127.341 103.845 123.938C103.249 123.602 102.576 123.495 101.937 123.635C101.297 123.775 100.73 124.153 100.329 124.707C96.3153 130.238 90.6357 134 84.2397 135.365C82.6512 135.72 81.0296 135.911 79.3959 135.936C78.427 135.969 77.4596 135.669 76.6275 135.077C75.7954 134.485 75.1399 133.63 74.7522 132.632C74.1126 130.947 73.5975 129.212 73.2122 127.446C72.4542 123.983 72.2137 120.431 72.5006 116.933C72.5689 116.133 72.8068 115.37 73.1952 114.705C73.5836 114.04 74.1119 113.49 74.738 113.1C75.3704 112.706 76.0845 112.484 76.8231 112.453C77.5617 112.422 78.3043 112.582 78.9915 112.921C85.7518 116.28 93.2086 117.252 100.302 115.7C107.396 114.148 113.765 110.151 118.506 104.276C119.14 103.468 120.005 102.923 120.971 102.722C121.444 102.633 121.93 102.615 122.413 102.67C123.147 102.754 123.859 103.029 124.491 103.473C125.123 103.916 125.656 104.514 126.046 105.218C127.792 108.265 129.069 111.594 129.822 115.061C130.221 116.888 130.48 118.742 130.595 120.603L130.515 120.545ZM78.6024 103.727C78.4286 102.903 78.4331 102.055 78.6156 101.251C78.7981 100.447 79.1534 99.7103 79.6523 99.102C83.5837 94.4039 88.7827 91.209 94.5497 89.9473C100.317 88.6856 106.375 89.4177 111.909 92.045C112.619 92.3894 113.251 92.9128 113.752 93.5711C114.254 94.2294 114.61 95.0035 114.79 95.8287C114.971 96.6538 114.971 97.5058 114.79 98.3133C114.609 99.1209 114.253 99.8604 113.752 100.47C109.809 105.15 104.611 108.333 98.8478 109.593C93.0851 110.854 87.0322 110.133 81.4955 107.527C80.8036 107.175 80.189 106.653 79.7006 106.003C79.2122 105.354 78.8637 104.594 78.6827 103.785L78.6024 103.727ZM125.894 70.8404C125.769 70.2975 125.79 69.7335 125.953 69.2173C126.116 68.7011 126.415 68.2553 126.813 67.9344C127.106 67.7082 127.437 67.5465 127.79 67.4577C128.375 67.3378 128.99 67.4568 129.52 67.793C133.231 70.0704 136.488 73.1794 139.071 76.9088C141.653 80.6383 143.5 84.9008 144.486 89.407C145.472 93.9132 145.573 98.5576 144.784 103.025C143.995 107.492 142.334 111.677 139.912 115.296C139.637 115.718 139.252 116.038 138.805 116.215C138.358 116.393 137.867 116.422 137.394 116.298C136.904 116.174 136.451 115.898 136.089 115.504C135.727 115.11 135.472 114.615 135.353 114.077C133.807 106.943 130.465 100.351 125.719 95.0717C125.37 94.6812 125.123 94.1947 125.008 93.6683C124.893 93.1419 124.914 92.597 125.068 92.0961C127.242 85.3362 127.596 77.9495 126.087 70.798L125.894 70.8404ZM66.1607 62.3076C68.0731 58.33 70.7577 54.8888 74.0332 52.2164C77.3088 49.544 81.0989 47.7027 85.1475 46.817C89.1961 45.9312 93.4089 46.0216 97.5011 47.0821C101.593 48.1426 105.47 50.1484 108.868 52.9641C109.263 53.2968 109.568 53.7425 109.748 54.2488C109.927 54.7552 109.974 55.3011 109.882 55.8224C109.79 56.3437 109.563 56.8187 109.229 57.1914C108.894 57.5642 108.466 57.8193 107.993 57.9266C101.569 59.3014 95.719 62.6932 91.136 67.7005C90.7991 68.0844 90.3624 68.3453 89.8805 68.4507C89.3986 68.5561 88.8929 68.5014 88.4265 68.2933C82.1899 65.6822 75.4862 65.0387 69.0921 66.4374C68.6158 66.5521 68.1133 66.5112 67.6452 66.3198C67.1771 66.1283 66.7633 65.7944 66.4536 65.3581C66.1439 64.9218 65.9515 64.4018 65.8995 63.8607C65.8475 63.3195 65.9383 62.7801 66.1607 62.3076ZM63.0664 79.0633C63.0182 77.9867 63.2707 76.9344 63.79 76.0482C64.3094 75.1621 65.0705 74.4847 65.9706 74.1077C67.4751 73.4775 69.0294 72.9867 70.6181 72.6401C77.0408 71.2138 83.8116 72.2783 89.8008 75.6562C90.3908 75.9906 91.0583 76.0974 91.6921 75.9587C92.3259 75.8201 92.888 75.4443 93.2845 74.8941C97.3048 69.3099 103.017 65.5124 109.455 64.1435C111.064 63.7881 112.703 63.5803 114.355 63.5222C115.323 63.5088 116.285 63.8225 117.11 64.4208C117.936 65.0192 118.587 65.8736 118.975 66.8693C119.625 68.5514 120.151 70.2833 120.547 72.0477C121.311 75.5133 121.54 79.0705 121.226 82.5682C121.166 83.3707 120.931 84.1372 120.542 84.8039C120.153 85.4706 119.62 86.0181 118.989 86.401C118.361 86.7911 117.652 87.0098 116.919 87.0397C116.186 87.0696 115.449 86.9099 114.768 86.5733C108.008 83.2146 100.551 82.2421 93.457 83.7941C86.3634 85.346 79.9939 89.3434 75.2536 95.2181C74.7706 95.8128 74.1627 96.2684 73.4786 96.5485C72.7944 96.8287 72.0531 96.9255 71.3138 96.8314C70.5821 96.7386 69.8727 96.4599 69.2419 96.0175C68.6112 95.575 68.0766 94.9811 67.6805 94.2828C65.9591 91.224 64.6942 87.8962 63.9368 84.4328C63.5034 82.6692 63.2015 80.8756 63.0341 79.0704L63.0664 79.0633ZM53.6848 84.3841C54.039 83.8547 54.5574 83.4885 55.1486 83.3501C55.5065 83.2868 55.8747 83.2953 56.2357 83.3752C56.7222 83.5017 57.1709 83.7797 57.5274 84.1752C57.884 84.5708 58.1329 85.0668 58.244 85.6031C59.7921 92.7421 63.1461 99.3343 67.9098 104.601C68.2593 104.992 68.5058 105.478 68.621 106.005C68.7362 106.531 68.7153 107.076 68.5608 107.577C66.4297 114.339 66.1321 121.718 67.7032 128.84C67.8286 129.37 67.8137 129.921 67.6603 130.429C67.5068 130.936 67.2215 131.377 66.8384 131.699C66.4554 132.021 65.991 132.21 65.5012 132.243C65.0114 132.276 64.5169 132.153 64.0773 131.887C60.3661 129.609 57.1086 126.501 54.5262 122.771C51.9439 119.042 50.097 114.779 49.1112 110.273C48.1253 105.767 48.0235 101.122 48.8126 96.6554C49.6018 92.1883 51.2635 88.0031 53.6848 84.3841Z" fill="#FFF9F0" stroke="#9A4CB5"/>
<path d="M73.4878 141.65L73.8425 141.572L74.0903 141.931C78.129 148.381 83.7812 153.434 90.316 156.435C96.8507 159.435 103.967 160.247 110.745 158.764C117.523 157.281 123.651 153.572 128.335 148.117C133.02 142.661 136.046 135.71 137.023 128.163L136.936 127.769L137.291 127.691C142.979 123.526 147.323 117.522 149.763 110.455C152.203 103.388 152.627 95.5829 150.979 88.0496C149.331 80.5163 145.687 73.6013 140.519 68.1988C135.35 62.7963 128.895 59.1548 121.989 57.7455L121.634 57.8231L121.54 57.3928C117.501 50.9427 111.849 45.8904 105.314 42.8895C98.7791 39.8886 91.6627 39.0771 84.8847 40.5599C78.1067 42.0428 71.9791 45.7519 67.2945 51.2073C62.6099 56.6628 59.5836 63.6137 58.6073 71.1611L58.54 71.6267L58.1852 71.7043C52.4979 75.869 48.1531 81.8731 45.7129 88.9403C43.2727 96.0074 42.8493 103.812 44.4974 111.346C46.1456 118.879 49.7894 125.794 54.9577 131.196C60.1259 136.599 66.581 140.24 73.4878 141.65ZM128.409 137.148C126.494 141.127 123.806 144.569 120.528 147.242C117.25 149.916 113.457 151.757 109.406 152.644C105.355 153.53 101.14 153.44 97.0449 152.38C92.95 151.32 89.0707 149.314 85.669 146.498C85.272 146.164 84.9656 145.715 84.7865 145.205C84.6074 144.695 84.5629 144.146 84.6585 143.622C84.754 143.099 84.9856 142.623 85.3255 142.252C85.6654 141.881 86.0994 141.63 86.5759 141.529C93.0002 140.154 98.8503 136.762 103.433 131.755C103.778 131.384 104.215 131.132 104.694 131.028C105.163 130.93 105.654 130.978 106.111 131.169C112.358 133.783 119.073 134.424 125.477 133.018C125.957 132.901 126.464 132.944 126.934 133.142C127.404 133.34 127.817 133.684 128.12 134.13C128.439 134.569 128.638 135.096 128.692 135.645C128.746 136.194 128.653 136.741 128.425 137.219L128.409 137.148ZM131.503 120.392C131.574 121.457 131.341 122.505 130.838 123.389C130.334 124.274 129.585 124.951 128.696 125.326C127.2 125.984 125.647 126.487 124.056 126.83C117.618 128.264 110.83 127.188 104.833 123.785C104.237 123.449 103.564 123.342 102.925 123.482C102.285 123.622 101.718 124 101.317 124.554C97.3033 130.085 91.6238 133.848 85.2277 135.212C83.6392 135.567 82.0176 135.758 80.3839 135.783C79.415 135.816 78.4476 135.516 77.6155 134.924C76.7834 134.332 76.128 133.477 75.7403 132.479C75.1006 130.794 74.5856 129.059 74.2002 127.294C73.4422 123.83 73.2017 120.278 73.4886 116.78C73.5569 115.98 73.7949 115.217 74.1833 114.552C74.5717 113.887 75.0999 113.337 75.726 112.947C76.3584 112.553 77.0725 112.331 77.8111 112.3C78.5497 112.269 79.2924 112.429 79.9795 112.768C86.7398 116.127 94.1967 117.099 101.29 115.547C108.384 113.995 114.753 109.998 119.494 104.123C120.128 103.315 120.993 102.77 121.959 102.569C122.432 102.48 122.918 102.462 123.401 102.517C124.135 102.601 124.847 102.876 125.479 103.32C126.111 103.763 126.644 104.362 127.035 105.065C128.78 108.113 130.057 111.441 130.81 114.908C131.209 116.735 131.468 118.589 131.583 120.45L131.503 120.392ZM79.5904 103.574C79.4166 102.75 79.4211 101.902 79.6036 101.098C79.7862 100.294 80.1415 99.5573 80.6404 98.949C84.5717 94.251 89.7708 91.0561 95.5377 89.7944C101.305 88.5327 107.363 89.2648 112.897 91.892C113.607 92.2365 114.239 92.7598 114.74 93.4181C115.242 94.0765 115.598 94.8506 115.778 95.6757C115.959 96.5008 115.959 97.3528 115.778 98.1604C115.597 98.9679 115.241 99.7074 114.74 100.317C110.798 104.997 105.599 108.18 99.8359 109.44C94.0731 110.701 88.0202 109.98 82.4836 107.374C81.7916 107.022 81.177 106.5 80.6886 105.85C80.2002 105.201 79.8517 104.441 79.6707 103.632L79.5904 103.574ZM126.882 70.6874C126.757 70.1446 126.778 69.5805 126.941 69.0643C127.104 68.5482 127.403 68.1023 127.801 67.7815C128.094 67.5553 128.425 67.3935 128.778 67.3047C129.363 67.1848 129.978 67.3039 130.508 67.6401C134.219 69.9174 137.476 73.0264 140.059 76.7559C142.641 80.4853 144.488 84.7478 145.474 89.254C146.46 93.7602 146.562 98.4046 145.772 102.872C144.983 107.339 143.322 111.524 140.9 115.143C140.625 115.565 140.24 115.885 139.793 116.062C139.346 116.24 138.856 116.269 138.382 116.145C137.892 116.021 137.439 115.745 137.077 115.351C136.715 114.957 136.46 114.462 136.341 113.924C134.795 106.79 131.453 100.198 126.707 94.9188C126.358 94.5282 126.111 94.0417 125.996 93.5153C125.881 92.9889 125.902 92.444 126.056 91.9432C128.23 85.1832 128.584 77.7965 127.075 70.6451L126.882 70.6874ZM67.1487 62.1547C69.0611 58.1771 71.7457 54.7358 75.0213 52.0634C78.2968 49.391 82.087 47.5498 86.1356 46.664C90.1842 45.7783 94.3969 45.8686 98.4891 46.9291C102.581 47.9896 106.458 49.9955 109.856 52.8112C110.251 53.1438 110.556 53.5895 110.736 54.0959C110.915 54.6022 110.962 55.1482 110.87 55.6695C110.778 56.1908 110.551 56.6657 110.217 57.0385C109.882 57.4112 109.454 57.6663 108.981 57.7736C102.557 59.1484 96.7071 62.5403 92.124 67.5475C91.7871 67.9314 91.3505 68.1923 90.8686 68.2978C90.3867 68.4032 89.881 68.3484 89.4146 68.1403C83.178 65.5292 76.4742 64.8857 70.0802 66.2844C69.6038 66.3992 69.1013 66.3583 68.6332 66.1668C68.1651 65.9753 67.7514 65.6414 67.4417 65.2051C67.132 64.7689 66.9395 64.2489 66.8875 63.7077C66.8356 63.1665 66.9263 62.6272 67.1487 62.1547ZM64.0544 78.9103C64.0062 77.8338 64.2587 76.7814 64.778 75.8953C65.2974 75.0091 66.0585 74.3318 66.9587 73.9548C68.4631 73.3245 70.0174 72.8337 71.6062 72.4872C78.0289 71.0608 84.7996 72.1253 90.7888 75.5033C91.3789 75.8377 92.0463 75.9445 92.6801 75.8058C93.314 75.6671 93.876 75.2914 94.2725 74.7411C98.2929 69.157 104.005 65.3594 110.443 63.9905C112.052 63.6351 113.691 63.4273 115.343 63.3692C116.311 63.3559 117.273 63.6695 118.098 64.2679C118.924 64.8663 119.575 65.7207 119.963 66.7164C120.613 68.3984 121.139 70.1304 121.535 71.8947C122.299 75.3604 122.528 78.9176 122.214 82.4152C122.154 83.2177 121.919 83.9843 121.53 84.651C121.141 85.3177 120.609 85.8652 119.977 86.2481C119.349 86.6382 118.64 86.8569 117.907 86.8868C117.174 86.9167 116.437 86.757 115.756 86.4203C108.996 83.0617 101.539 82.0892 94.4451 83.6411C87.3514 85.1931 80.9819 89.1905 76.2417 95.0652C75.7587 95.6598 75.1507 96.1154 74.4666 96.3956C73.7825 96.6757 73.0411 96.7726 72.3019 96.6784C71.5702 96.5856 70.8607 96.3069 70.23 95.8645C69.5992 95.4221 69.0646 94.8281 68.6686 94.1299C66.9471 91.071 65.6823 87.7433 64.9249 84.2799C64.4915 82.5163 64.1896 80.7227 64.0221 78.9174L64.0544 78.9103ZM54.6728 84.2312C55.027 83.7018 55.5455 83.3356 56.1366 83.1971C56.4945 83.1339 56.8628 83.1424 57.2237 83.2223C57.7102 83.3488 58.1589 83.6268 58.5155 84.0223C58.872 84.4178 59.121 84.9138 59.232 85.4501C60.7801 92.5892 64.1341 99.1814 68.8979 104.448C69.2474 104.839 69.4939 105.325 69.609 105.852C69.7242 106.378 69.7033 106.923 69.5489 107.424C67.4177 114.186 67.1201 121.565 68.6912 128.687C68.8166 129.217 68.8017 129.768 68.6483 130.276C68.4949 130.783 68.2095 131.224 67.8265 131.546C67.4434 131.868 66.9791 132.057 66.4892 132.09C65.9994 132.124 65.5049 132 65.0654 131.734C61.3541 129.457 58.0966 126.348 55.5142 122.618C52.9319 118.889 51.0851 114.626 50.0992 110.12C49.1133 105.614 49.0115 100.969 49.8007 96.5024C50.5898 92.0354 52.2515 87.8502 54.6728 84.2312Z" fill="#FFF9F0" stroke="#9A4CB5"/>
<path d="M74.476 141.497L74.8308 141.419L75.0785 141.778C79.1173 148.228 84.7695 153.281 91.3042 156.281C97.839 159.282 104.956 160.094 111.734 158.611C118.512 157.128 124.639 153.419 129.324 147.964C134.008 142.508 137.034 135.557 138.011 128.01L137.925 127.616L138.279 127.538C143.967 123.373 148.311 117.369 150.752 110.302C153.192 103.235 153.615 95.4299 151.967 87.8966C150.319 80.3633 146.675 73.4483 141.507 68.0457C136.339 62.6432 129.884 59.0018 122.977 57.5924L122.622 57.6701L122.528 57.2398C118.489 50.7896 112.837 45.7374 106.302 42.7365C99.7674 39.7356 92.651 38.924 85.873 40.4069C79.095 41.8897 72.9674 45.5988 68.2828 51.0543C63.5981 56.5097 60.5719 63.4606 59.5955 71.008L59.5282 71.4736L59.1735 71.5512C53.4862 75.7159 49.1414 81.7201 46.7012 88.7872C44.261 95.8543 43.8376 103.659 45.4857 111.192C47.1338 118.726 50.7777 125.641 55.9459 131.043C61.1142 136.446 67.5692 140.087 74.476 141.497ZM129.397 136.995C127.482 140.974 124.794 144.416 121.516 147.089C118.238 149.762 114.446 151.604 110.395 152.491C106.343 153.377 102.128 153.287 98.0332 152.227C93.9383 151.167 90.059 149.161 86.6572 146.345C86.2603 146.011 85.9539 145.562 85.7748 145.052C85.5957 144.542 85.5512 143.993 85.6468 143.469C85.7423 142.946 85.9738 142.47 86.3137 142.099C86.6537 141.728 87.0877 141.477 87.5642 141.376C93.9885 140.001 99.8386 136.609 104.422 131.602C104.766 131.231 105.203 130.979 105.682 130.875C106.151 130.777 106.642 130.825 107.099 131.016C113.347 133.63 120.062 134.271 126.465 132.865C126.945 132.748 127.452 132.791 127.922 132.989C128.392 133.187 128.805 133.531 129.109 133.977C129.427 134.416 129.626 134.943 129.68 135.492C129.734 136.041 129.641 136.588 129.413 137.066L129.397 136.995ZM132.491 120.239C132.562 121.304 132.329 122.352 131.826 123.236C131.323 124.121 130.574 124.798 129.684 125.173C128.188 125.831 126.635 126.334 125.044 126.677C118.606 128.111 111.818 127.035 105.821 123.632C105.226 123.296 104.552 123.189 103.913 123.329C103.274 123.468 102.707 123.847 102.306 124.401C98.2916 129.932 92.6121 133.694 86.216 135.059C84.6275 135.414 83.0059 135.605 81.3722 135.63C80.4033 135.663 79.4359 135.363 78.6038 134.771C77.7717 134.179 77.1163 133.324 76.7285 132.326C76.0889 130.64 75.5738 128.906 75.1885 127.14C74.4305 123.677 74.19 120.125 74.4769 116.627C74.5452 115.827 74.7831 115.064 75.1715 114.399C75.5599 113.733 76.0882 113.184 76.7143 112.794C77.3467 112.4 78.0608 112.178 78.7994 112.147C79.538 112.116 80.2806 112.276 80.9678 112.615C87.7281 115.974 95.185 116.946 102.279 115.394C109.372 113.842 115.742 109.845 120.482 103.97C121.116 103.162 121.982 102.617 122.947 102.416C123.421 102.327 123.906 102.309 124.389 102.364C125.123 102.448 125.835 102.723 126.467 103.167C127.099 103.61 127.633 104.208 128.023 104.912C129.769 107.959 131.045 111.288 131.799 114.755C132.197 116.582 132.456 118.436 132.571 120.297L132.491 120.239ZM80.5787 103.421C80.4049 102.597 80.4094 101.749 80.5919 100.945C80.7744 100.141 81.1298 99.4043 81.6286 98.796C85.56 94.0979 90.759 90.903 96.526 89.6413C102.293 88.3796 108.351 89.1117 113.885 91.7389C114.595 92.0834 115.227 92.6067 115.729 93.2651C116.23 93.9234 116.586 94.6975 116.766 95.5226C116.947 96.3478 116.947 97.1998 116.766 98.0073C116.586 98.8148 116.23 99.5543 115.728 100.164C111.786 104.844 106.587 108.027 100.824 109.287C95.0614 110.548 89.0085 109.827 83.4718 107.221C82.7799 106.869 82.1653 106.347 81.6769 105.697C81.1885 105.048 80.84 104.288 80.659 103.479L80.5787 103.421ZM127.87 70.5343C127.746 69.9915 127.766 69.4274 127.929 68.9113C128.093 68.3951 128.392 67.9493 128.789 67.6284C129.082 67.4022 129.414 67.2405 129.766 67.1516C130.352 67.0317 130.966 67.1508 131.496 67.487C135.207 69.7644 138.465 72.8734 141.047 76.6028C143.629 80.3322 145.476 84.5948 146.462 89.101C147.448 93.6072 147.55 98.2516 146.761 102.719C145.972 107.186 144.31 111.371 141.889 114.99C141.613 115.412 141.228 115.731 140.781 115.909C140.334 116.087 139.844 116.116 139.37 115.992C138.88 115.868 138.427 115.592 138.065 115.198C137.703 114.804 137.448 114.309 137.329 113.771C135.783 106.637 132.442 100.045 127.696 94.7657C127.346 94.3751 127.1 93.8886 126.985 93.3622C126.869 92.8358 126.89 92.2909 127.045 91.7901C129.219 85.0302 129.572 77.6434 128.064 70.492L127.87 70.5343ZM68.137 62.0016C70.0494 58.024 72.734 54.5827 76.0096 51.9103C79.2851 49.2379 83.0753 47.3967 87.1238 46.5109C91.1724 45.6252 95.3852 45.7156 99.4774 46.7761C103.57 47.8366 107.446 49.8424 110.845 52.6581C111.239 52.9907 111.544 53.4364 111.724 53.9428C111.903 54.4492 111.95 54.9951 111.858 55.5164C111.766 56.0377 111.54 56.5127 111.205 56.8854C110.871 57.2581 110.442 57.5133 109.97 57.6206C103.545 58.9954 97.6953 62.3872 93.1123 67.3945C92.7754 67.7783 92.3388 68.0392 91.8568 68.1447C91.3749 68.2501 90.8692 68.1954 90.4028 67.9872C84.1663 65.3761 77.4625 64.7327 71.0685 66.1313C70.5921 66.2461 70.0896 66.2052 69.6215 66.0137C69.1534 65.8223 68.7397 65.4883 68.43 65.0521C68.1203 64.6158 67.9278 64.0958 67.8758 63.5546C67.8238 63.0134 67.9146 62.4741 68.137 62.0016ZM65.0427 78.7573C64.9945 77.6807 65.247 76.6284 65.7663 75.7422C66.2857 74.856 67.0468 74.1787 67.947 73.8017C69.4514 73.1714 71.0057 72.6806 72.5944 72.3341C79.0172 70.9078 85.7879 71.9722 91.7771 75.3502C92.3672 75.6846 93.0346 75.7914 93.6684 75.6527C94.3022 75.514 94.8643 75.1383 95.2608 74.588C99.2812 69.0039 104.993 65.2063 111.431 63.8374C113.041 63.482 114.68 63.2742 116.332 63.2161C117.3 63.2028 118.261 63.5164 119.087 64.1148C119.912 64.7132 120.563 65.5676 120.951 66.5633C121.601 68.2454 122.127 69.9773 122.523 71.7417C123.287 75.2073 123.516 78.7645 123.203 82.2621C123.142 83.0647 122.908 83.8312 122.518 84.4979C122.129 85.1646 121.597 85.7121 120.965 86.095C120.337 86.4851 119.628 86.7038 118.895 86.7337C118.162 86.7636 117.426 86.6039 116.744 86.2672C109.984 82.9086 102.527 81.9361 95.4334 83.4881C88.3397 85.04 81.9702 89.0374 77.2299 94.9121C76.747 95.5067 76.139 95.9624 75.4549 96.2425C74.7708 96.5226 74.0294 96.6195 73.2902 96.5253C72.5585 96.4325 71.849 96.1539 71.2183 95.7114C70.5875 95.269 70.0529 94.675 69.6568 93.9768C67.9354 90.9179 66.6705 87.5902 65.9132 84.1268C65.4798 82.3632 65.1779 80.5696 65.0104 78.7643L65.0427 78.7573ZM55.6611 84.0781C56.0153 83.5487 56.5337 83.1825 57.1249 83.0441C57.4828 82.9808 57.8511 82.9893 58.212 83.0692C58.6985 83.1957 59.1472 83.4737 59.5037 83.8692C59.8603 84.2647 60.1092 84.7608 60.2203 85.2971C61.7684 92.4361 65.1224 99.0283 69.8861 104.295C70.2356 104.686 70.4821 105.172 70.5973 105.699C70.7125 106.225 70.6916 106.77 70.5371 107.271C68.406 114.033 68.1084 121.412 69.6795 128.534C69.8049 129.064 69.79 129.615 69.6366 130.122C69.4832 130.63 69.1978 131.071 68.8147 131.393C68.4317 131.715 67.9674 131.904 67.4775 131.937C66.9877 131.97 66.4932 131.847 66.0537 131.581C62.3424 129.303 59.0849 126.195 56.5025 122.465C53.9202 118.736 52.0734 114.473 51.0875 109.967C50.1016 105.461 49.9998 100.816 50.7889 96.3494C51.5781 91.8823 53.2398 87.6971 55.6611 84.0781Z" fill="#FFF9F0" stroke="#9A4CB5"/>
<path d="M75.4643 141.343L75.8191 141.266L76.0668 141.625C80.1056 148.075 85.7578 153.127 92.2925 156.128C98.8272 159.129 105.944 159.941 112.722 158.458C119.5 156.975 125.627 153.266 130.312 147.81C134.996 142.355 138.023 135.404 138.999 127.857L138.913 127.462L139.268 127.385C144.955 123.22 149.3 117.216 151.74 110.149C154.18 103.082 154.604 95.2765 152.955 87.7432C151.307 80.21 147.663 73.2949 142.495 67.8924C137.327 62.4899 130.872 58.8485 123.965 57.4391L123.61 57.5167L123.516 57.0864C119.477 50.6363 113.825 45.584 107.29 42.5831C100.756 39.5822 93.6392 38.7707 86.8613 40.2535C80.0833 41.7364 73.9557 45.4455 69.2711 50.9009C64.5864 56.3564 61.5602 63.3073 60.5838 70.8547L60.5165 71.3203L60.1617 71.3979C54.4744 75.5626 50.1297 81.5667 47.6895 88.6339C45.2493 95.701 44.8259 103.506 46.474 111.039C48.1221 118.572 51.7659 125.488 56.9342 130.89C62.1025 136.293 68.5575 139.934 75.4643 141.343ZM130.385 136.841C128.47 140.82 125.783 144.263 122.504 146.936C119.226 149.609 115.434 151.451 111.383 152.337C107.332 153.224 103.116 153.134 99.0215 152.074C94.9266 151.013 91.0473 149.008 87.6455 146.192C87.2485 145.857 86.9422 145.408 86.7631 144.898C86.5839 144.389 86.5395 143.839 86.635 143.316C86.7306 142.792 86.9621 142.317 87.302 141.946C87.6419 141.575 88.0759 141.323 88.5524 141.222C94.9768 139.848 100.827 136.456 105.41 131.449C105.754 131.078 106.191 130.826 106.671 130.722C107.14 130.623 107.63 130.672 108.087 130.863C114.335 133.476 121.05 134.117 127.454 132.712C127.933 132.595 128.44 132.638 128.91 132.836C129.381 133.034 129.793 133.377 130.097 133.824C130.415 134.263 130.614 134.79 130.668 135.339C130.722 135.888 130.629 136.435 130.401 136.913L130.385 136.841ZM133.48 120.086C133.55 121.15 133.317 122.198 132.814 123.083C132.311 123.968 131.562 124.645 130.672 125.02C129.177 125.677 127.623 126.181 126.032 126.523C119.595 127.957 112.806 126.882 106.81 123.479C106.214 123.142 105.541 123.035 104.901 123.175C104.262 123.315 103.695 123.694 103.294 124.248C99.2799 129.779 93.6003 133.541 87.2043 134.906C85.6158 135.261 83.9942 135.452 82.3605 135.477C81.3916 135.51 80.4242 135.21 79.5921 134.618C78.76 134.026 78.1045 133.171 77.7168 132.173C77.0772 130.487 76.5621 128.753 76.1768 126.987C75.4188 123.524 75.1783 119.972 75.4652 116.474C75.5335 115.674 75.7714 114.911 76.1598 114.246C76.5482 113.58 77.0765 113.031 77.7026 112.641C78.335 112.247 79.0491 112.025 79.7877 111.994C80.5263 111.963 81.2689 112.123 81.9561 112.462C88.7164 115.82 96.1732 116.793 103.267 115.241C110.361 113.689 116.73 109.691 121.47 103.817C122.104 103.009 122.97 102.463 123.936 102.263C124.409 102.174 124.894 102.156 125.378 102.211C126.111 102.295 126.824 102.57 127.456 103.013C128.088 103.457 128.621 104.055 129.011 104.759C130.757 107.806 132.033 111.134 132.787 114.602C133.186 116.429 133.444 118.282 133.56 120.143L133.48 120.086ZM81.567 103.268C81.3932 102.444 81.3977 101.595 81.5802 100.791C81.7627 99.9874 82.118 99.2509 82.6169 98.6426C86.5483 93.9446 91.7473 90.7497 97.5143 89.488C103.281 88.2263 109.339 88.9584 114.873 91.5856C115.584 91.9301 116.216 92.4534 116.717 93.1117C117.218 93.7701 117.574 94.5442 117.755 95.3693C117.935 96.1944 117.935 97.0464 117.755 97.854C117.574 98.6615 117.218 99.401 116.717 100.011C112.774 104.691 107.575 107.873 101.812 109.134C96.0497 110.395 89.9968 109.674 84.4601 107.068C83.7682 106.715 83.1536 106.194 82.6652 105.544C82.1768 104.894 81.8283 104.135 81.6473 103.325L81.567 103.268ZM128.858 70.381C128.734 69.8382 128.754 69.2741 128.918 68.7579C129.081 68.2418 129.38 67.7959 129.778 67.4751C130.071 67.2489 130.402 67.0871 130.755 66.9983C131.34 66.8784 131.954 66.9975 132.484 67.3337C136.196 69.611 139.453 72.72 142.035 76.4495C144.618 80.1789 146.465 84.4414 147.45 88.9476C148.436 93.4539 148.538 98.0982 147.749 102.565C146.96 107.032 145.298 111.217 142.877 114.836C142.601 115.259 142.217 115.578 141.769 115.756C141.322 115.934 140.832 115.963 140.358 115.838C139.869 115.714 139.416 115.439 139.054 115.045C138.692 114.651 138.436 114.155 138.318 113.617C136.771 106.483 133.43 99.8915 128.684 94.6124C128.335 94.2218 128.088 93.7353 127.973 93.2089C127.858 92.6825 127.879 92.1376 128.033 91.6368C130.207 84.8768 130.56 77.4901 129.052 70.3387L128.858 70.381ZM69.1253 61.8483C71.0377 57.8707 73.7223 54.4294 76.9978 51.757C80.2734 49.0846 84.0635 47.2434 88.1121 46.3576C92.1607 45.4719 96.3735 45.5623 100.466 46.6227C104.558 47.6832 108.434 49.6891 111.833 52.5048C112.228 52.8374 112.533 53.2831 112.712 53.7895C112.892 54.2958 112.938 54.8418 112.846 55.3631C112.755 55.8844 112.528 56.3593 112.193 56.7321C111.859 57.1048 111.43 57.3599 110.958 57.4672C104.534 58.842 98.6836 62.2339 94.1006 67.2412C93.7637 67.625 93.327 67.8859 92.8451 67.9914C92.3632 68.0968 91.8575 68.042 91.3911 67.8339C85.1545 65.2228 78.4508 64.5793 72.0567 65.978C71.5804 66.0928 71.0779 66.0519 70.6098 65.8604C70.1417 65.6689 69.7279 65.335 69.4182 64.8988C69.1085 64.4625 68.9161 63.9425 68.8641 63.4013C68.8121 62.8601 68.9029 62.3208 69.1253 61.8483ZM66.031 78.6039C65.9828 77.5274 66.2353 76.475 66.7546 75.5889C67.274 74.7027 68.0351 74.0254 68.9352 73.6484C70.4397 73.0181 71.994 72.5273 73.5827 72.1808C80.0054 70.7544 86.7762 71.8189 92.7654 75.1969C93.3554 75.5313 94.0229 75.6381 94.6567 75.4994C95.2905 75.3607 95.8526 74.985 96.2491 74.4347C100.269 68.8506 105.982 65.053 112.42 63.6841C114.029 63.3287 115.668 63.1209 117.32 63.0628C118.288 63.0495 119.249 63.3631 120.075 63.9615C120.901 64.5599 121.551 65.4143 121.939 66.41C122.59 68.092 123.116 69.824 123.512 71.5883C124.275 75.054 124.505 78.6112 124.191 82.1088C124.13 82.9113 123.896 83.6779 123.507 84.3446C123.118 85.0113 122.585 85.5588 121.954 85.9417C121.326 86.3318 120.617 86.5505 119.884 86.5804C119.151 86.6103 118.414 86.4506 117.732 86.1139C110.972 82.7553 103.515 81.7828 96.4216 83.3347C89.328 84.8867 82.9585 88.8841 78.2182 94.7588C77.7352 95.3534 77.1273 95.809 76.4432 96.0892C75.759 96.3693 75.0177 96.4662 74.2784 96.372C73.5467 96.2792 72.8373 96.0005 72.2065 95.5581C71.5758 95.1157 71.0412 94.5217 70.6451 93.8235C68.9237 90.7646 67.6588 87.4369 66.9014 83.9735C66.468 82.2099 66.1661 80.4163 65.9987 78.611L66.031 78.6039ZM56.6494 83.9248C57.0036 83.3954 57.522 83.0292 58.1132 82.8907C58.4711 82.8275 58.8393 82.836 59.2003 82.9159C59.6868 83.0424 60.1355 83.3204 60.492 83.7159C60.8486 84.1114 61.0975 84.6075 61.2086 85.1438C62.7567 92.2828 66.1107 98.875 70.8744 104.142C71.2239 104.532 71.4704 105.019 71.5856 105.545C71.7008 106.072 71.6799 106.617 71.5254 107.117C69.3943 113.879 69.0967 121.258 70.6678 128.38C70.7932 128.91 70.7783 129.462 70.6249 129.969C70.4714 130.476 70.1861 130.918 69.803 131.24C69.42 131.562 68.9556 131.75 68.4658 131.784C67.976 131.817 67.4815 131.693 67.0419 131.427C63.3307 129.15 60.0732 126.041 57.4908 122.312C54.9085 118.582 53.0616 114.32 52.0758 109.814C51.0899 105.307 50.9881 100.663 51.7772 96.196C52.5664 91.729 54.2281 87.5438 56.6494 83.9248Z" fill="#FFFAF9" stroke="#9A4CB5"/>
<defs>
<filter id="filter0_f_18_38" x="15.5342" y="14.1438" width="160.455" height="171.649" filterUnits="userSpaceOnUse" color-interpolation-filters="sRGB">
<feFlood flood-opacity="0" result="BackgroundImageFix"/>
<feBlend mode="normal" in="SourceGraphic" in2="BackgroundImageFix" result="shape"/>
<feGaussianBlur stdDeviation="12" result="effect1_foregroundBlur_18_38"/>
</filter>
</defs>
</svg>
