<svg width="196" height="198" viewBox="0 0 196 198" fill="none" xmlns="http://www.w3.org/2000/svg">
<g filter="url(#filter0_f_18_36)">
<path d="M72.5825 141.516L72.9373 141.438L73.185 141.797C77.2237 148.248 82.876 153.3 89.4107 156.301C95.9454 159.302 103.062 160.113 109.84 158.63C116.618 157.147 122.745 153.438 127.43 147.983C132.115 142.527 135.141 135.577 136.117 128.029L136.031 127.635L136.386 127.557C142.073 123.392 146.418 117.388 148.858 110.321C151.298 103.254 151.722 95.4491 150.074 87.9158C148.426 80.3825 144.782 73.4675 139.613 68.065C134.445 62.6624 127.99 59.021 121.083 57.6116L120.728 57.6893L120.634 57.259C116.595 50.8088 110.943 45.7566 104.409 42.7557C97.8738 39.7548 90.7574 38.9432 83.9794 40.4261C77.2015 41.909 71.0739 45.618 66.3892 51.0735C61.7046 56.529 58.6784 63.4798 57.702 71.0272L57.6347 71.4928L57.2799 71.5705C51.5926 75.7351 47.2478 81.7393 44.8076 88.8064C42.3674 95.8735 41.944 103.678 43.5922 111.212C45.2403 118.745 48.8841 125.66 54.0524 131.063C59.2207 136.465 65.6757 140.107 72.5825 141.516ZM127.504 137.014C125.588 140.993 122.901 144.435 119.623 147.108C116.345 149.782 112.552 151.624 108.501 152.51C104.45 153.396 100.235 153.306 96.1396 152.246C92.0447 151.186 88.1654 149.18 84.7637 146.364C84.3667 146.03 84.0603 145.581 83.8812 145.071C83.7021 144.561 83.6577 144.012 83.7532 143.488C83.8488 142.965 84.0803 142.489 84.4202 142.118C84.7601 141.747 85.1941 141.496 85.6706 141.395C92.0949 140.02 97.945 136.628 102.528 131.621C102.873 131.25 103.309 130.998 103.789 130.894C104.258 130.796 104.749 130.845 105.205 131.035C111.453 133.649 118.168 134.29 124.572 132.884C125.052 132.767 125.558 132.811 126.029 133.008C126.499 133.206 126.911 133.55 127.215 133.996C127.534 134.435 127.732 134.962 127.786 135.511C127.84 136.06 127.747 136.608 127.519 137.086L127.504 137.014ZM130.598 120.258C130.668 121.323 130.436 122.371 129.932 123.256C129.429 124.14 128.68 124.817 127.79 125.193C126.295 125.85 124.742 126.353 123.15 126.696C116.713 128.13 109.924 127.054 103.928 123.651C103.332 123.315 102.659 123.208 102.019 123.348C101.38 123.488 100.813 123.866 100.412 124.42C96.3981 129.952 90.7185 133.714 84.3224 135.078C82.7339 135.433 81.1124 135.625 79.4787 135.649C78.5098 135.683 77.5424 135.382 76.7103 134.79C75.8782 134.198 75.2227 133.344 74.835 132.345C74.1954 130.66 73.6803 128.925 73.2949 127.16C72.5369 123.696 72.2965 120.145 72.5834 116.646C72.6517 115.847 72.8896 115.084 73.278 114.418C73.6664 113.753 74.1946 113.203 74.8208 112.813C75.4531 112.419 76.1672 112.198 76.9058 112.166C77.6444 112.135 78.3871 112.295 79.0743 112.634C85.8346 115.993 93.2914 116.965 100.385 115.413C107.479 113.861 113.848 109.864 118.588 103.989C119.222 103.182 120.088 102.636 121.054 102.436C121.527 102.346 122.012 102.328 122.496 102.383C123.229 102.467 123.942 102.743 124.574 103.186C125.206 103.629 125.739 104.228 126.129 104.932C127.875 107.979 129.152 111.307 129.905 114.775C130.304 116.601 130.562 118.455 130.678 120.316L130.598 120.258ZM78.6852 103.44C78.5114 102.617 78.5158 101.768 78.6984 100.964C78.8809 100.16 79.2362 99.4235 79.7351 98.8152C83.6665 94.1171 88.8655 90.9222 94.6325 89.6605C100.399 88.3988 106.458 89.1309 111.992 91.7581C112.702 92.1026 113.334 92.626 113.835 93.2843C114.337 93.9426 114.692 94.7167 114.873 95.5419C115.053 96.367 115.053 97.219 114.873 98.0265C114.692 98.834 114.336 99.5736 113.835 100.183C109.892 104.863 104.693 108.046 98.9306 109.307C93.1679 110.567 87.115 109.846 81.5783 107.24C80.8863 106.888 80.2717 106.366 79.7833 105.717C79.2949 105.067 78.9464 104.307 78.7654 103.498L78.6852 103.44ZM125.977 70.5536C125.852 70.0107 125.873 69.4466 126.036 68.9305C126.199 68.4143 126.498 67.9685 126.896 67.6476C127.189 67.4214 127.52 67.2597 127.873 67.1709C128.458 67.051 129.072 67.17 129.603 67.5062C133.314 69.7836 136.571 72.8926 139.154 76.622C141.736 80.3515 143.583 84.614 144.569 89.1202C145.554 93.6264 145.656 98.2708 144.867 102.738C144.078 107.205 142.416 111.39 139.995 115.009C139.72 115.431 139.335 115.751 138.888 115.929C138.44 116.106 137.95 116.135 137.477 116.011C136.987 115.887 136.534 115.611 136.172 115.217C135.81 114.823 135.554 114.328 135.436 113.79C133.889 106.656 130.548 100.064 125.802 94.7849C125.453 94.3943 125.206 93.9079 125.091 93.3815C124.976 92.8551 124.997 92.3102 125.151 91.8093C127.325 85.0494 127.678 77.6627 126.17 70.5112L125.977 70.5536ZM66.2435 62.0208C68.1558 58.0432 70.8405 54.602 74.116 51.9296C77.3916 49.2572 81.1817 47.4159 85.2303 46.5302C89.2789 45.6444 93.4916 45.7348 97.5839 46.7953C101.676 47.8558 105.552 49.8616 108.951 52.6773C109.346 53.01 109.651 53.4556 109.83 53.962C110.01 54.4684 110.057 55.0143 109.965 55.5356C109.873 56.0569 109.646 56.5319 109.312 56.9046C108.977 57.2774 108.548 57.5325 108.076 57.6398C101.652 59.0146 95.8018 62.4064 91.2187 67.4137C90.8818 67.7976 90.4452 68.0585 89.9633 68.1639C89.4814 68.2693 88.9757 68.2146 88.5093 68.0065C82.2727 65.3953 75.5689 64.7519 69.1749 66.1506C68.6985 66.2653 68.196 66.2244 67.728 66.033C67.2599 65.8415 66.8461 65.5076 66.5364 65.0713C66.2267 64.635 66.0343 64.115 65.9823 63.5738C65.9303 63.0327 66.021 62.4933 66.2435 62.0208ZM63.1492 78.7765C63.1009 77.6999 63.3534 76.6476 63.8728 75.7614C64.3921 74.8753 65.1533 74.1979 66.0534 73.8209C67.5579 73.1907 69.1122 72.6999 70.7009 72.3533C77.1236 70.927 83.8943 71.9915 89.8835 75.3694C90.4736 75.7038 91.141 75.8106 91.7749 75.6719C92.4087 75.5333 92.9707 75.1575 93.3673 74.6072C97.3876 69.0231 103.1 65.2256 109.538 63.8566C111.147 63.5013 112.786 63.2935 114.438 63.2354C115.406 63.222 116.367 63.5357 117.193 64.134C118.019 64.7324 118.67 65.5868 119.058 66.5825C119.708 68.2646 120.234 69.9965 120.63 71.7609C121.393 75.2265 121.623 78.7837 121.309 82.2814C121.249 83.0839 121.014 83.8504 120.625 84.5171C120.236 85.1838 119.703 85.7313 119.072 86.1142C118.444 86.5043 117.735 86.723 117.002 86.7529C116.269 86.7828 115.532 86.6231 114.851 86.2865C108.09 82.9278 100.633 81.9553 93.5398 83.5073C86.4462 85.0592 80.0766 89.0566 75.3364 94.9313C74.8534 95.526 74.2455 95.9816 73.5613 96.2617C72.8772 96.5419 72.1358 96.6387 71.3966 96.5445C70.6649 96.4517 69.9555 96.1731 69.3247 95.7307C68.6939 95.2882 68.1593 94.6943 67.7633 93.996C66.0418 90.9372 64.777 87.6094 64.0196 84.146C63.5862 82.3824 63.2843 80.5888 63.1169 78.7835L63.1492 78.7765ZM53.7675 84.0973C54.1217 83.5679 54.6402 83.2017 55.2313 83.0633C55.5893 83 55.9575 83.0085 56.3185 83.0884C56.805 83.2149 57.2536 83.4929 57.6102 83.8884C57.9668 84.284 58.2157 84.78 58.3267 85.3163C59.8748 92.4553 63.2288 99.0475 67.9926 104.314C68.3421 104.705 68.5886 105.191 68.7038 105.718C68.8189 106.244 68.7981 106.789 68.6436 107.29C66.5125 114.052 66.2148 121.431 67.786 128.553C67.9114 129.083 67.8965 129.634 67.743 130.142C67.5896 130.649 67.3043 131.09 66.9212 131.412C66.5381 131.734 66.0738 131.923 65.584 131.956C65.0941 131.99 64.5996 131.866 64.1601 131.6C60.4489 129.323 57.1913 126.214 54.609 122.484C52.0266 118.755 50.1798 114.492 49.1939 109.986C48.2081 105.48 48.1063 100.836 48.8954 96.3686C49.6845 91.9015 51.3463 87.7163 53.7675 84.0973Z" fill="#FFF9F0"/>
<path d="M72.5825 141.516L72.9373 141.438L73.185 141.797C77.2237 148.248 82.876 153.3 89.4107 156.301C95.9454 159.302 103.062 160.113 109.84 158.63C116.618 157.147 122.745 153.438 127.43 147.983C132.115 142.527 135.141 135.577 136.117 128.029L136.031 127.635L136.386 127.557C142.073 123.392 146.418 117.388 148.858 110.321C151.298 103.254 151.722 95.4491 150.074 87.9158C148.426 80.3825 144.782 73.4675 139.613 68.065C134.445 62.6624 127.99 59.021 121.083 57.6116L120.728 57.6893L120.634 57.259C116.595 50.8088 110.943 45.7566 104.409 42.7557C97.8738 39.7548 90.7574 38.9432 83.9794 40.4261C77.2015 41.909 71.0739 45.618 66.3892 51.0735C61.7046 56.529 58.6784 63.4798 57.702 71.0272L57.6347 71.4928L57.2799 71.5705C51.5926 75.7351 47.2478 81.7393 44.8076 88.8064C42.3674 95.8735 41.944 103.678 43.5922 111.212C45.2403 118.745 48.8841 125.66 54.0524 131.063C59.2207 136.465 65.6757 140.107 72.5825 141.516ZM127.504 137.014C125.588 140.993 122.901 144.435 119.623 147.108C116.345 149.782 112.552 151.624 108.501 152.51C104.45 153.396 100.235 153.306 96.1396 152.246C92.0447 151.186 88.1654 149.18 84.7637 146.364C84.3667 146.03 84.0603 145.581 83.8812 145.071C83.7021 144.561 83.6577 144.012 83.7532 143.488C83.8488 142.965 84.0803 142.489 84.4202 142.118C84.7601 141.747 85.1941 141.496 85.6706 141.395C92.0949 140.02 97.945 136.628 102.528 131.621C102.873 131.25 103.309 130.998 103.789 130.894C104.258 130.796 104.749 130.845 105.205 131.035C111.453 133.649 118.168 134.29 124.572 132.884C125.052 132.767 125.558 132.811 126.029 133.008C126.499 133.206 126.911 133.55 127.215 133.996C127.534 134.435 127.732 134.962 127.786 135.511C127.84 136.06 127.747 136.608 127.519 137.086L127.504 137.014ZM130.598 120.258C130.668 121.323 130.436 122.371 129.932 123.256C129.429 124.14 128.68 124.817 127.79 125.193C126.295 125.85 124.742 126.353 123.15 126.696C116.713 128.13 109.924 127.054 103.928 123.651C103.332 123.315 102.659 123.208 102.019 123.348C101.38 123.488 100.813 123.866 100.412 124.42C96.3981 129.952 90.7185 133.714 84.3224 135.078C82.7339 135.433 81.1124 135.625 79.4787 135.649C78.5098 135.683 77.5424 135.382 76.7103 134.79C75.8782 134.198 75.2227 133.344 74.835 132.345C74.1954 130.66 73.6803 128.925 73.2949 127.16C72.5369 123.696 72.2965 120.145 72.5834 116.646C72.6517 115.847 72.8896 115.084 73.278 114.418C73.6664 113.753 74.1946 113.203 74.8208 112.813C75.4531 112.419 76.1672 112.198 76.9058 112.166C77.6444 112.135 78.3871 112.295 79.0743 112.634C85.8346 115.993 93.2914 116.965 100.385 115.413C107.479 113.861 113.848 109.864 118.588 103.989C119.222 103.182 120.088 102.636 121.054 102.436C121.527 102.346 122.012 102.328 122.496 102.383C123.229 102.467 123.942 102.743 124.574 103.186C125.206 103.629 125.739 104.228 126.129 104.932C127.875 107.979 129.152 111.307 129.905 114.775C130.304 116.601 130.562 118.455 130.678 120.316L130.598 120.258ZM78.6852 103.44C78.5114 102.617 78.5158 101.768 78.6984 100.964C78.8809 100.16 79.2362 99.4235 79.7351 98.8152C83.6665 94.1171 88.8655 90.9222 94.6325 89.6605C100.399 88.3988 106.458 89.1309 111.992 91.7581C112.702 92.1026 113.334 92.626 113.835 93.2843C114.337 93.9426 114.692 94.7167 114.873 95.5419C115.053 96.367 115.053 97.219 114.873 98.0265C114.692 98.834 114.336 99.5736 113.835 100.183C109.892 104.863 104.693 108.046 98.9306 109.307C93.1679 110.567 87.115 109.846 81.5783 107.24C80.8863 106.888 80.2717 106.366 79.7833 105.717C79.2949 105.067 78.9464 104.307 78.7654 103.498L78.6852 103.44ZM125.977 70.5536C125.852 70.0107 125.873 69.4466 126.036 68.9305C126.199 68.4143 126.498 67.9685 126.896 67.6476C127.189 67.4214 127.52 67.2597 127.873 67.1709C128.458 67.051 129.072 67.17 129.603 67.5062C133.314 69.7836 136.571 72.8926 139.154 76.622C141.736 80.3515 143.583 84.614 144.569 89.1202C145.554 93.6264 145.656 98.2708 144.867 102.738C144.078 107.205 142.416 111.39 139.995 115.009C139.72 115.431 139.335 115.751 138.888 115.929C138.44 116.106 137.95 116.135 137.477 116.011C136.987 115.887 136.534 115.611 136.172 115.217C135.81 114.823 135.554 114.328 135.436 113.79C133.889 106.656 130.548 100.064 125.802 94.7849C125.453 94.3943 125.206 93.9079 125.091 93.3815C124.976 92.8551 124.997 92.3102 125.151 91.8093C127.325 85.0494 127.678 77.6627 126.17 70.5112L125.977 70.5536ZM66.2435 62.0208C68.1558 58.0432 70.8405 54.602 74.116 51.9296C77.3916 49.2572 81.1817 47.4159 85.2303 46.5302C89.2789 45.6444 93.4916 45.7348 97.5839 46.7953C101.676 47.8558 105.552 49.8616 108.951 52.6773C109.346 53.01 109.651 53.4556 109.83 53.962C110.01 54.4684 110.057 55.0143 109.965 55.5356C109.873 56.0569 109.646 56.5319 109.312 56.9046C108.977 57.2774 108.548 57.5325 108.076 57.6398C101.652 59.0146 95.8018 62.4064 91.2187 67.4137C90.8818 67.7976 90.4452 68.0585 89.9633 68.1639C89.4814 68.2693 88.9757 68.2146 88.5093 68.0065C82.2727 65.3953 75.5689 64.7519 69.1749 66.1506C68.6985 66.2653 68.196 66.2244 67.728 66.033C67.2599 65.8415 66.8461 65.5076 66.5364 65.0713C66.2267 64.635 66.0343 64.115 65.9823 63.5738C65.9303 63.0327 66.021 62.4933 66.2435 62.0208ZM63.1492 78.7765C63.1009 77.6999 63.3534 76.6476 63.8728 75.7614C64.3921 74.8753 65.1533 74.1979 66.0534 73.8209C67.5579 73.1907 69.1122 72.6999 70.7009 72.3533C77.1236 70.927 83.8943 71.9915 89.8835 75.3694C90.4736 75.7038 91.141 75.8106 91.7749 75.6719C92.4087 75.5333 92.9707 75.1575 93.3673 74.6072C97.3876 69.0231 103.1 65.2256 109.538 63.8566C111.147 63.5013 112.786 63.2935 114.438 63.2354C115.406 63.222 116.367 63.5357 117.193 64.134C118.019 64.7324 118.67 65.5868 119.058 66.5825C119.708 68.2646 120.234 69.9965 120.63 71.7609C121.393 75.2265 121.623 78.7837 121.309 82.2814C121.249 83.0839 121.014 83.8504 120.625 84.5171C120.236 85.1838 119.703 85.7313 119.072 86.1142C118.444 86.5043 117.735 86.723 117.002 86.7529C116.269 86.7828 115.532 86.6231 114.851 86.2865C108.09 82.9278 100.633 81.9553 93.5398 83.5073C86.4462 85.0592 80.0766 89.0566 75.3364 94.9313C74.8534 95.526 74.2455 95.9816 73.5613 96.2617C72.8772 96.5419 72.1358 96.6387 71.3966 96.5445C70.6649 96.4517 69.9555 96.1731 69.3247 95.7307C68.6939 95.2882 68.1593 94.6943 67.7633 93.996C66.0418 90.9372 64.777 87.6094 64.0196 84.146C63.5862 82.3824 63.2843 80.5888 63.1169 78.7835L63.1492 78.7765ZM53.7675 84.0973C54.1217 83.5679 54.6402 83.2017 55.2313 83.0633C55.5893 83 55.9575 83.0085 56.3185 83.0884C56.805 83.2149 57.2536 83.4929 57.6102 83.8884C57.9668 84.284 58.2157 84.78 58.3267 85.3163C59.8748 92.4553 63.2288 99.0475 67.9926 104.314C68.3421 104.705 68.5886 105.191 68.7038 105.718C68.8189 106.244 68.7981 106.789 68.6436 107.29C66.5125 114.052 66.2148 121.431 67.786 128.553C67.9114 129.083 67.8965 129.634 67.743 130.142C67.5896 130.649 67.3043 131.09 66.9212 131.412C66.5381 131.734 66.0738 131.923 65.584 131.956C65.0941 131.99 64.5996 131.866 64.1601 131.6C60.4489 129.323 57.1913 126.214 54.609 122.484C52.0266 118.755 50.1798 114.492 49.1939 109.986C48.2081 105.48 48.1063 100.836 48.8954 96.3686C49.6845 91.9015 51.3463 87.7163 53.7675 84.0973Z" stroke="#9A4CB5"/>
</g>
<path d="M71.5114 141.17L71.8662 141.092L72.1139 141.451C76.1527 147.901 81.8049 152.954 88.3396 155.954C94.8744 158.955 101.991 159.767 108.769 158.284C115.547 156.801 121.674 153.092 126.359 147.637C131.044 142.181 134.07 135.23 135.046 127.683L134.96 127.288L135.315 127.211C141.002 123.046 145.347 117.042 147.787 109.975C150.227 102.908 150.651 95.1028 149.003 87.5695C147.354 80.0362 143.71 73.1212 138.542 67.7187C133.374 62.3162 126.919 58.6747 120.012 57.2654L119.657 57.343L119.563 56.9127C115.524 50.4626 109.872 45.4103 103.337 42.4094C96.8028 39.4085 89.6864 38.597 82.9084 40.0798C76.1304 41.5627 70.0028 45.2718 65.3182 50.7272C60.6335 56.1827 57.6073 63.1336 56.6309 70.681L56.5636 71.1466L56.2089 71.2242C50.5216 75.3889 46.1768 81.393 43.7366 88.4601C41.2964 95.5273 40.873 103.332 42.5211 110.865C44.1692 118.399 47.8131 125.314 52.9813 130.716C58.1496 136.119 64.6046 139.76 71.5114 141.17ZM126.432 136.668C124.517 140.647 121.83 144.089 118.552 146.762C115.273 149.435 111.481 151.277 107.43 152.164C103.379 153.05 99.1635 152.96 95.0686 151.9C90.9737 150.84 87.0944 148.834 83.6926 146.018C83.2957 145.684 82.9893 145.235 82.8102 144.725C82.6311 144.215 82.5866 143.666 82.6822 143.142C82.7777 142.619 83.0092 142.143 83.3491 141.772C83.6891 141.401 84.1231 141.15 84.5996 141.049C91.0239 139.674 96.874 136.282 101.457 131.275C101.802 130.904 102.238 130.652 102.718 130.548C103.187 130.45 103.677 130.498 104.134 130.689C110.382 133.303 117.097 133.944 123.501 132.538C123.981 132.421 124.487 132.464 124.958 132.662C125.428 132.86 125.84 133.204 126.144 133.65C126.463 134.089 126.661 134.616 126.715 135.165C126.769 135.714 126.676 136.261 126.448 136.739L126.432 136.668ZM129.527 119.912C129.597 120.977 129.365 122.025 128.861 122.909C128.358 123.794 127.609 124.471 126.719 124.846C125.224 125.504 123.671 126.007 122.079 126.35C115.642 127.784 108.853 126.708 102.857 123.305C102.261 122.969 101.588 122.862 100.948 123.002C100.309 123.141 99.7419 123.52 99.341 124.074C95.327 129.605 89.6475 133.367 83.2514 134.732C81.6629 135.087 80.0413 135.278 78.4076 135.303C77.4387 135.336 76.4713 135.036 75.6392 134.444C74.8071 133.852 74.1517 132.997 73.7639 131.999C73.1243 130.313 72.6092 128.579 72.2239 126.813C71.4659 123.35 71.2254 119.798 71.5123 116.3C71.5806 115.5 71.8185 114.737 72.2069 114.072C72.5953 113.406 73.1236 112.857 73.7497 112.467C74.3821 112.073 75.0962 111.851 75.8348 111.82C76.5734 111.789 77.316 111.949 78.0032 112.288C84.7635 115.646 92.2204 116.619 99.314 115.067C106.408 113.515 112.777 109.518 117.517 103.643C118.151 102.835 119.017 102.29 119.983 102.089C120.456 102 120.941 101.982 121.425 102.037C122.158 102.121 122.871 102.396 123.503 102.84C124.135 103.283 124.668 103.881 125.058 104.585C126.804 107.632 128.081 110.961 128.834 114.428C129.233 116.255 129.491 118.109 129.607 119.97L129.527 119.912ZM77.6141 103.094C77.4403 102.27 77.4448 101.422 77.6273 100.618C77.8098 99.8136 78.1652 99.0772 78.664 98.4689C82.5954 93.7709 87.7944 90.576 93.5614 89.3143C99.3284 88.0526 105.387 88.7847 110.921 91.4119C111.631 91.7564 112.263 92.2797 112.764 92.938C113.265 93.5964 113.621 94.3705 113.802 95.1956C113.982 96.0207 113.982 96.8727 113.802 97.6803C113.621 98.4878 113.265 99.2273 112.764 99.8368C108.821 104.517 103.622 107.7 97.8595 108.96C92.0968 110.221 86.0439 109.5 80.5072 106.894C79.8153 106.542 79.2007 106.02 78.7123 105.37C78.2239 104.721 77.8754 103.961 77.6944 103.152L77.6141 103.094ZM124.905 70.2073C124.781 69.6645 124.802 69.1004 124.965 68.5842C125.128 68.0681 125.427 67.6222 125.825 67.3014C126.118 67.0752 126.449 66.9134 126.802 66.8246C127.387 66.7047 128.001 66.8238 128.532 67.16C132.243 69.4373 135.5 72.5463 138.082 76.2758C140.665 80.0052 142.512 84.2677 143.497 88.7739C144.483 93.2801 144.585 97.9245 143.796 102.392C143.007 106.859 141.345 111.044 138.924 114.663C138.649 115.085 138.264 115.404 137.817 115.582C137.369 115.76 136.879 115.789 136.405 115.665C135.916 115.54 135.463 115.265 135.101 114.871C134.739 114.477 134.483 113.982 134.365 113.444C132.818 106.31 129.477 99.7178 124.731 94.4387C124.382 94.0481 124.135 93.5616 124.02 93.0352C123.905 92.5088 123.926 91.9639 124.08 91.4631C126.254 84.7031 126.607 77.3164 125.099 70.165L124.905 70.2073ZM65.1724 61.6746C67.0848 57.697 69.7694 54.2557 73.045 51.5833C76.3205 48.9109 80.1107 47.0696 84.1592 46.1839C88.2078 45.2982 92.4206 45.3885 96.5128 46.449C100.605 47.5095 104.481 49.5154 107.88 52.3311C108.275 52.6637 108.58 53.1094 108.759 53.6158C108.939 54.1221 108.985 54.6681 108.894 55.1894C108.802 55.7107 108.575 56.1856 108.241 56.5584C107.906 56.9311 107.477 57.1862 107.005 57.2935C100.581 58.6683 94.7307 62.0602 90.1477 67.0674C89.8108 67.4513 89.3742 67.7122 88.8922 67.8177C88.4103 67.9231 87.9046 67.8683 87.4382 67.6602C81.2017 65.0491 74.4979 64.4056 68.1039 65.8043C67.6275 65.9191 67.125 65.8782 66.6569 65.6867C66.1888 65.4952 65.7751 65.1613 65.4654 64.725C65.1557 64.2888 64.9632 63.7688 64.9112 63.2276C64.8592 62.6864 64.95 62.1471 65.1724 61.6746ZM62.0781 78.4302C62.0299 77.3537 62.2824 76.3013 62.8017 75.4152C63.3211 74.529 64.0822 73.8517 64.9824 73.4747C66.4868 72.8444 68.0411 72.3536 69.6298 72.0071C76.0526 70.5807 82.8233 71.6452 88.8125 75.0232C89.4026 75.3576 90.07 75.4644 90.7038 75.3257C91.3376 75.187 91.8997 74.8113 92.2962 74.261C96.3166 68.6769 102.029 64.8793 108.467 63.5104C110.076 63.155 111.715 62.9472 113.367 62.8891C114.335 62.8758 115.296 63.1894 116.122 63.7878C116.948 64.3862 117.599 65.2406 117.987 66.2363C118.637 67.9183 119.163 69.6503 119.559 71.4146C120.322 74.8803 120.552 78.4375 120.238 81.9351C120.177 82.7376 119.943 83.5042 119.554 84.1709C119.165 84.8376 118.632 85.3851 118.001 85.768C117.373 86.158 116.664 86.3768 115.931 86.4067C115.198 86.4366 114.461 86.2769 113.78 85.9402C107.019 82.5816 99.5624 81.6091 92.4688 83.161C85.3751 84.713 79.0056 88.7104 74.2653 94.5851C73.7824 95.1797 73.1744 95.6353 72.4903 95.9155C71.8062 96.1956 71.0648 96.2925 70.3256 96.1983C69.5939 96.1055 68.8844 95.8268 68.2537 95.3844C67.6229 94.942 67.0883 94.348 66.6922 93.6498C64.9708 90.5909 63.7059 87.2632 62.9486 83.7998C62.5152 82.0362 62.2133 80.2426 62.0458 78.4373L62.0781 78.4302ZM52.6965 83.7511C53.0507 83.2217 53.5691 82.8555 54.1603 82.717C54.5182 82.6538 54.8865 82.6623 55.2474 82.7422C55.7339 82.8687 56.1826 83.1466 56.5391 83.5422C56.8957 83.9377 57.1446 84.4337 57.2557 84.97C58.8038 92.109 62.1578 98.7013 66.9215 103.968C67.271 104.359 67.5175 104.845 67.6327 105.372C67.7479 105.898 67.727 106.443 67.5725 106.944C65.4414 113.706 65.1438 121.084 66.7149 128.207C66.8403 128.737 66.8254 129.288 66.672 129.795C66.5186 130.303 66.2332 130.744 65.8501 131.066C65.4671 131.388 65.0028 131.577 64.5129 131.61C64.0231 131.643 63.5286 131.52 63.0891 131.254C59.3778 128.976 56.1203 125.868 53.5379 122.138C50.9556 118.409 49.1088 114.146 48.1229 109.64C47.137 105.134 47.0352 100.489 47.8243 96.0223C48.6135 91.5553 50.2752 87.3701 52.6965 83.7511Z" fill="#FFF9F0" stroke="#9A4CB5"/>
<path d="M72.4997 141.016L72.8545 140.939L73.1022 141.298C77.141 147.748 82.7932 152.8 89.3279 155.801C95.8626 158.802 102.979 159.614 109.757 158.131C116.535 156.648 122.663 152.939 127.347 147.483C132.032 142.028 135.058 135.077 136.034 127.53L135.948 127.135L136.303 127.057C141.99 122.893 146.335 116.889 148.775 109.822C151.215 102.754 151.639 94.9495 149.991 87.4162C148.343 79.8829 144.699 72.9679 139.53 67.5653C134.362 62.1628 127.907 58.5214 121.001 57.112L120.646 57.1897L120.551 56.7594C116.513 50.3092 110.86 45.257 104.326 42.2561C97.791 39.2551 90.6746 38.4436 83.8967 39.9264C77.1187 41.4093 70.9911 45.1184 66.3065 50.5739C61.6218 56.0293 58.5956 62.9802 57.6192 70.5276L57.5519 70.9932L57.1972 71.0708C51.5098 75.2355 47.1651 81.2397 44.7249 88.3068C42.2847 95.3739 41.8613 103.179 43.5094 110.712C45.1575 118.245 48.8013 125.16 53.9696 130.563C59.1379 135.966 65.5929 139.607 72.4997 141.016ZM127.421 136.514C125.506 140.493 122.818 143.936 119.54 146.609C116.262 149.282 112.469 151.124 108.418 152.01C104.367 152.896 100.152 152.807 96.0569 151.746C91.962 150.686 88.0827 148.681 84.6809 145.865C84.2839 145.53 83.9776 145.081 83.7985 144.571C83.6193 144.062 83.5749 143.512 83.6704 142.989C83.766 142.465 83.9975 141.99 84.3374 141.619C84.6773 141.247 85.1113 140.996 85.5878 140.895C92.0122 139.521 97.8623 136.129 102.445 131.121C102.79 130.75 103.227 130.499 103.706 130.395C104.175 130.296 104.666 130.345 105.123 130.536C111.37 133.149 118.085 133.79 124.489 132.385C124.969 132.268 125.476 132.311 125.946 132.509C126.416 132.707 126.829 133.05 127.132 133.497C127.451 133.936 127.649 134.462 127.704 135.012C127.758 135.561 127.665 136.108 127.436 136.586L127.421 136.514ZM130.515 119.758C130.586 120.823 130.353 121.871 129.849 122.756C129.346 123.641 128.597 124.318 127.707 124.693C126.212 125.35 124.659 125.854 123.068 126.196C116.63 127.63 109.842 126.555 103.845 123.151C103.249 122.815 102.576 122.708 101.937 122.848C101.297 122.988 100.73 123.366 100.329 123.921C96.3153 129.452 90.6357 133.214 84.2397 134.578C82.6512 134.934 81.0296 135.125 79.3959 135.15C78.427 135.183 77.4596 134.883 76.6275 134.291C75.7954 133.699 75.1399 132.844 74.7522 131.845C74.1126 130.16 73.5975 128.426 73.2122 126.66C72.4542 123.197 72.2137 119.645 72.5006 116.147C72.5689 115.347 72.8068 114.584 73.1952 113.918C73.5836 113.253 74.1119 112.704 74.738 112.314C75.3704 111.92 76.0845 111.698 76.8231 111.667C77.5617 111.636 78.3043 111.796 78.9915 112.134C85.7518 115.493 93.2086 116.466 100.302 114.914C107.396 113.362 113.765 109.364 118.506 103.49C119.14 102.682 120.005 102.136 120.971 101.936C121.444 101.846 121.93 101.829 122.413 101.884C123.147 101.968 123.859 102.243 124.491 102.686C125.123 103.129 125.656 103.728 126.046 104.432C127.792 107.479 129.069 110.807 129.822 114.275C130.221 116.102 130.48 117.955 130.595 119.816L130.515 119.758ZM78.6024 102.941C78.4286 102.117 78.4331 101.268 78.6156 100.464C78.7981 99.6603 79.1534 98.9238 79.6523 98.3155C83.5837 93.6175 88.7827 90.4226 94.5497 89.1609C100.317 87.8992 106.375 88.6313 111.909 91.2585C112.619 91.603 113.251 92.1263 113.752 92.7847C114.254 93.443 114.61 94.2171 114.79 95.0422C114.971 95.8673 114.971 96.7193 114.79 97.5269C114.609 98.3344 114.253 99.0739 113.752 99.6834C109.809 104.364 104.611 107.546 98.8478 108.807C93.0851 110.068 87.0322 109.347 81.4955 106.74C80.8036 106.388 80.189 105.867 79.7006 105.217C79.2122 104.567 78.8637 103.807 78.6827 102.998L78.6024 102.941ZM125.894 70.0539C125.769 69.5111 125.79 68.947 125.953 68.4309C126.116 67.9147 126.415 67.4689 126.813 67.148C127.106 66.9218 127.437 66.7601 127.79 66.6712C128.375 66.5513 128.99 66.6704 129.52 67.0066C133.231 69.2839 136.488 72.393 139.071 76.1224C141.653 79.8518 143.5 84.1143 144.486 88.6206C145.472 93.1268 145.573 97.7712 144.784 102.238C143.995 106.705 142.334 110.89 139.912 114.509C139.637 114.932 139.252 115.251 138.805 115.429C138.358 115.607 137.867 115.635 137.394 115.511C136.904 115.387 136.451 115.112 136.089 114.718C135.727 114.324 135.472 113.828 135.353 113.29C133.807 106.156 130.465 99.5644 125.719 94.2853C125.37 93.8947 125.123 93.4082 125.008 92.8818C124.893 92.3554 124.914 91.8105 125.068 91.3097C127.242 84.5498 127.596 77.163 126.087 70.0116L125.894 70.0539ZM66.1607 61.5212C68.0731 57.5436 70.7577 54.1023 74.0332 51.4299C77.3088 48.7575 81.0989 46.9163 85.1475 46.0305C89.1961 45.1448 93.4089 45.2352 97.5011 46.2957C101.593 47.3562 105.47 49.362 108.868 52.1777C109.263 52.5103 109.568 52.956 109.748 53.4624C109.927 53.9688 109.974 54.5147 109.882 55.036C109.79 55.5573 109.563 56.0322 109.229 56.405C108.894 56.7777 108.466 57.0329 107.993 57.1402C101.569 58.515 95.719 61.9068 91.136 66.9141C90.7991 67.2979 90.3624 67.5588 89.8805 67.6643C89.3986 67.7697 88.8929 67.715 88.4265 67.5068C82.1899 64.8957 75.4862 64.2523 69.0921 65.6509C68.6158 65.7657 68.1133 65.7248 67.6452 65.5333C67.1771 65.3419 66.7633 65.0079 66.4536 64.5717C66.1439 64.1354 65.9515 63.6154 65.8995 63.0742C65.8475 62.533 65.9383 61.9937 66.1607 61.5212ZM63.0664 78.2769C63.0182 77.2003 63.2707 76.148 63.79 75.2618C64.3094 74.3756 65.0705 73.6983 65.9706 73.3213C67.4751 72.691 69.0294 72.2002 70.6181 71.8537C77.0408 70.4273 83.8116 71.4918 89.8008 74.8698C90.3908 75.2042 91.0583 75.311 91.6921 75.1723C92.3259 75.0336 92.888 74.6579 93.2845 74.1076C97.3048 68.5235 103.017 64.7259 109.455 63.357C111.064 63.0016 112.703 62.7938 114.355 62.7357C115.323 62.7224 116.285 63.036 117.11 63.6344C117.936 64.2328 118.587 65.0872 118.975 66.0829C119.625 67.765 120.151 69.4969 120.547 71.2613C121.311 74.7269 121.54 78.2841 121.226 81.7817C121.166 82.5843 120.931 83.3508 120.542 84.0175C120.153 84.6842 119.62 85.2317 118.989 85.6146C118.361 86.0047 117.652 86.2234 116.919 86.2533C116.186 86.2832 115.449 86.1235 114.768 85.7868C108.008 82.4282 100.551 81.4557 93.457 83.0076C86.3634 84.5596 79.9939 88.557 75.2536 94.4317C74.7706 95.0263 74.1627 95.4819 73.4786 95.7621C72.7944 96.0422 72.0531 96.1391 71.3138 96.0449C70.5821 95.9521 69.8727 95.6735 69.2419 95.231C68.6112 94.7886 68.0766 94.1946 67.6805 93.4964C65.9591 90.4375 64.6942 87.1098 63.9368 83.6464C63.5034 81.8828 63.2015 80.0892 63.0341 78.2839L63.0664 78.2769ZM53.6848 83.5977C54.039 83.0683 54.5574 82.7021 55.1486 82.5636C55.5065 82.5004 55.8747 82.5089 56.2357 82.5888C56.7222 82.7153 57.1709 82.9933 57.5274 83.3888C57.884 83.7843 58.1329 84.2804 58.244 84.8167C59.7921 91.9557 63.1461 98.5479 67.9098 103.815C68.2593 104.205 68.5058 104.692 68.621 105.218C68.7362 105.745 68.7153 106.29 68.5608 106.79C66.4297 113.552 66.1321 120.931 67.7032 128.053C67.8286 128.583 67.8137 129.135 67.6603 129.642C67.5068 130.149 67.2215 130.591 66.8384 130.913C66.4554 131.234 65.991 131.423 65.5012 131.457C65.0114 131.49 64.5169 131.366 64.0773 131.1C60.3661 128.823 57.1086 125.714 54.5262 121.985C51.9439 118.255 50.097 113.993 49.1112 109.486C48.1253 104.98 48.0235 100.336 48.8126 95.8689C49.6018 91.4019 51.2635 87.2167 53.6848 83.5977Z" fill="#FFF9F0" stroke="#9A4CB5"/>
<path d="M73.4878 140.863L73.8425 140.786L74.0903 141.145C78.129 147.595 83.7812 152.647 90.316 155.648C96.8507 158.649 103.967 159.461 110.745 157.978C117.523 156.495 123.651 152.786 128.335 147.33C133.02 141.875 136.046 134.924 137.023 127.377L136.936 126.982L137.291 126.905C142.979 122.74 147.323 116.736 149.763 109.669C152.203 102.602 152.627 94.7965 150.979 87.2632C149.331 79.7299 145.687 72.8149 140.519 67.4124C135.35 62.0098 128.895 58.3684 121.989 56.959L121.634 57.0367L121.54 56.6064C117.501 50.1562 111.849 45.104 105.314 42.1031C98.7791 39.1022 91.6627 38.2906 84.8847 39.7735C78.1067 41.2564 71.9791 44.9655 67.2945 50.4209C62.6099 55.8764 59.5836 62.8272 58.6073 70.3746L58.54 70.8403L58.1852 70.9179C52.4979 75.0826 48.1531 81.0867 45.7129 88.1538C43.2727 95.2209 42.8493 103.026 44.4974 110.559C46.1456 118.092 49.7894 125.008 54.9577 130.41C60.1259 135.813 66.581 139.454 73.4878 140.863ZM128.409 136.361C126.494 140.34 123.806 143.783 120.528 146.456C117.25 149.129 113.457 150.971 109.406 151.857C105.355 152.744 101.14 152.654 97.0449 151.593C92.95 150.533 89.0707 148.528 85.669 145.712C85.272 145.377 84.9656 144.928 84.7865 144.418C84.6074 143.909 84.5629 143.359 84.6585 142.836C84.754 142.312 84.9856 141.837 85.3255 141.466C85.6654 141.094 86.0994 140.843 86.5759 140.742C93.0002 139.368 98.8503 135.976 103.433 130.968C103.778 130.598 104.215 130.346 104.694 130.242C105.163 130.143 105.654 130.192 106.111 130.383C112.358 132.996 119.073 133.637 125.477 132.232C125.957 132.115 126.464 132.158 126.934 132.356C127.404 132.554 127.817 132.897 128.12 133.344C128.439 133.783 128.638 134.31 128.692 134.859C128.746 135.408 128.653 135.955 128.425 136.433L128.409 136.361ZM131.503 119.606C131.574 120.67 131.341 121.718 130.838 122.603C130.334 123.488 129.585 124.165 128.696 124.54C127.2 125.197 125.647 125.701 124.056 126.043C117.618 127.477 110.83 126.402 104.833 122.999C104.237 122.662 103.564 122.555 102.925 122.695C102.285 122.835 101.718 123.213 101.317 123.768C97.3033 129.299 91.6238 133.061 85.2277 134.425C83.6392 134.781 82.0176 134.972 80.3839 134.997C79.415 135.03 78.4476 134.73 77.6155 134.138C76.7834 133.546 76.128 132.691 75.7403 131.693C75.1006 130.007 74.5856 128.273 74.2002 126.507C73.4422 123.044 73.2017 119.492 73.4886 115.994C73.5569 115.194 73.7949 114.431 74.1833 113.766C74.5717 113.1 75.0999 112.551 75.726 112.161C76.3584 111.767 77.0725 111.545 77.8111 111.514C78.5497 111.483 79.2924 111.643 79.9795 111.982C86.7398 115.34 94.1967 116.313 101.29 114.761C108.384 113.209 114.753 109.211 119.494 103.337C120.128 102.529 120.993 101.983 121.959 101.783C122.432 101.694 122.918 101.676 123.401 101.731C124.135 101.815 124.847 102.09 125.479 102.533C126.111 102.977 126.644 103.575 127.035 104.279C128.78 107.326 130.057 110.654 130.81 114.122C131.209 115.949 131.468 117.802 131.583 119.663L131.503 119.606ZM79.5904 102.788C79.4166 101.964 79.4211 101.115 79.6036 100.311C79.7862 99.5073 80.1415 98.7709 80.6404 98.1626C84.5717 93.4645 89.7708 90.2696 95.5377 89.0079C101.305 87.7462 107.363 88.4783 112.897 91.1056C113.607 91.45 114.239 91.9734 114.74 92.6317C115.242 93.29 115.598 94.0642 115.778 94.8893C115.959 95.7144 115.959 96.5664 115.778 97.3739C115.597 98.1815 115.241 98.921 114.74 99.5305C110.798 104.211 105.599 107.393 99.8359 108.654C94.0731 109.915 88.0202 109.194 82.4836 106.588C81.7916 106.235 81.177 105.714 80.6886 105.064C80.2002 104.414 79.8517 103.654 79.6707 102.845L79.5904 102.788ZM126.882 69.901C126.757 69.3581 126.778 68.7941 126.941 68.2779C127.104 67.7618 127.403 67.3159 127.801 66.9951C128.094 66.7688 128.425 66.6071 128.778 66.5183C129.363 66.3984 129.978 66.5175 130.508 66.8536C134.219 69.131 137.476 72.24 140.059 75.9694C142.641 79.6989 144.488 83.9614 145.474 88.4676C146.46 92.9738 146.562 97.6182 145.772 102.085C144.983 106.552 143.322 110.737 140.9 114.356C140.625 114.779 140.24 115.098 139.793 115.276C139.346 115.454 138.856 115.482 138.382 115.358C137.892 115.234 137.439 114.959 137.077 114.565C136.715 114.171 136.46 113.675 136.341 113.137C134.795 106.003 131.453 99.4114 126.707 94.1323C126.358 93.7418 126.111 93.2553 125.996 92.7289C125.881 92.2025 125.902 91.6576 126.056 91.1567C128.23 84.3968 128.584 77.0101 127.075 69.8586L126.882 69.901ZM67.1487 61.3682C69.0611 57.3906 71.7457 53.9494 75.0213 51.277C78.2968 48.6046 82.087 46.7633 86.1356 45.8776C90.1842 44.9918 94.3969 45.0822 98.4891 46.1427C102.581 47.2032 106.458 49.209 109.856 52.0247C110.251 52.3574 110.556 52.8031 110.736 53.3094C110.915 53.8158 110.962 54.3617 110.87 54.883C110.778 55.4043 110.551 55.8793 110.217 56.252C109.882 56.6248 109.454 56.8799 108.981 56.9872C102.557 58.362 96.7071 61.7539 92.124 66.7611C91.7871 67.145 91.3505 67.4059 90.8686 67.5113C90.3867 67.6168 89.881 67.562 89.4146 67.3539C83.178 64.7428 76.4742 64.0993 70.0802 65.498C69.6038 65.6127 69.1013 65.5718 68.6332 65.3804C68.1651 65.1889 67.7514 64.855 67.4417 64.4187C67.132 63.9824 66.9395 63.4624 66.8875 62.9213C66.8356 62.3801 66.9263 61.8407 67.1487 61.3682ZM64.0544 78.1239C64.0062 77.0473 64.2587 75.995 64.778 75.1088C65.2974 74.2227 66.0585 73.5454 66.9587 73.1683C68.4631 72.5381 70.0174 72.0473 71.6062 71.7008C78.0289 70.2744 84.7996 71.3389 90.7888 74.7168C91.3789 75.0512 92.0463 75.158 92.6801 75.0194C93.314 74.8807 93.876 74.5049 94.2725 73.9547C98.2929 68.3706 104.005 64.573 110.443 63.2041C112.052 62.8487 113.691 62.6409 115.343 62.5828C116.311 62.5694 117.273 62.8831 118.098 63.4814C118.924 64.0798 119.575 64.9342 119.963 65.9299C120.613 67.612 121.139 69.3439 121.535 71.1083C122.299 74.574 122.528 78.1311 122.214 81.6288C122.154 82.4313 121.919 83.1978 121.53 83.8645C121.141 84.5312 120.609 85.0787 119.977 85.4616C119.349 85.8517 118.64 86.0705 117.907 86.1003C117.174 86.1302 116.437 85.9705 115.756 85.6339C108.996 82.2753 101.539 81.3028 94.4451 82.8547C87.3514 84.4066 80.9819 88.404 76.2417 94.2787C75.7587 94.8734 75.1507 95.329 74.4666 95.6091C73.7825 95.8893 73.0411 95.9861 72.3019 95.892C71.5702 95.7992 70.8607 95.5205 70.23 95.0781C69.5992 94.6356 69.0646 94.0417 68.6686 93.3434C66.9471 90.2846 65.6823 86.9568 64.9249 83.4934C64.4915 81.7298 64.1896 79.9362 64.0221 78.131L64.0544 78.1239ZM54.6728 83.4447C55.027 82.9153 55.5455 82.5491 56.1366 82.4107C56.4945 82.3474 56.8628 82.356 57.2237 82.4358C57.7102 82.5624 58.1589 82.8403 58.5155 83.2358C58.872 83.6314 59.121 84.1274 59.232 84.6637C60.7801 91.8027 64.1341 98.395 68.8979 103.662C69.2474 104.052 69.4939 104.539 69.609 105.065C69.7242 105.592 69.7033 106.137 69.5489 106.637C67.4177 113.399 67.1201 120.778 68.6912 127.9C68.8166 128.43 68.8017 128.982 68.6483 129.489C68.4949 129.996 68.2095 130.438 67.8265 130.76C67.4434 131.081 66.9791 131.27 66.4892 131.304C65.9994 131.337 65.5049 131.213 65.0654 130.947C61.3541 128.67 58.0966 125.561 55.5142 121.832C52.9319 118.102 51.0851 113.84 50.0992 109.334C49.1133 104.827 49.0115 100.183 49.8007 95.716C50.5898 91.2489 52.2515 87.0637 54.6728 83.4447Z" fill="#FFF9F0" stroke="#9A4CB5"/>
<path d="M74.476 140.71L74.8308 140.633L75.0785 140.992C79.1173 147.442 84.7695 152.494 91.3042 155.495C97.839 158.496 104.956 159.307 111.734 157.825C118.512 156.342 124.639 152.633 129.324 147.177C134.008 141.722 137.034 134.771 138.011 127.224L137.925 126.829L138.279 126.751C143.967 122.587 148.311 116.583 150.752 109.516C153.192 102.448 153.615 94.6434 151.967 87.1101C150.319 79.5768 146.675 72.6618 141.507 67.2593C136.339 61.8568 129.884 58.2153 122.977 56.806L122.622 56.8836L122.528 56.4533C118.489 50.0031 112.837 44.9509 106.302 41.95C99.7674 38.9491 92.651 38.1375 85.873 39.6204C79.095 41.1033 72.9674 44.8124 68.2828 50.2678C63.5981 55.7233 60.5719 62.6742 59.5955 70.2216L59.5282 70.6872L59.1735 70.7648C53.4862 74.9295 49.1414 80.9336 46.7012 88.0007C44.261 95.0678 43.8376 102.873 45.4857 110.406C47.1338 117.939 50.7777 124.854 55.9459 130.257C61.1142 135.66 67.5692 139.301 74.476 140.71ZM129.397 136.208C127.482 140.187 124.794 143.63 121.516 146.303C118.238 148.976 114.446 150.818 110.395 151.704C106.343 152.59 102.128 152.501 98.0332 151.44C93.9383 150.38 90.059 148.374 86.6572 145.559C86.2603 145.224 85.9539 144.775 85.7748 144.265C85.5957 143.755 85.5512 143.206 85.6468 142.683C85.7423 142.159 85.9738 141.684 86.3137 141.312C86.6537 140.941 87.0877 140.69 87.5642 140.589C93.9885 139.214 99.8386 135.823 104.422 130.815C104.766 130.444 105.203 130.193 105.682 130.089C106.151 129.99 106.642 130.039 107.099 130.23C113.347 132.843 120.062 133.484 126.465 132.079C126.945 131.962 127.452 132.005 127.922 132.203C128.392 132.401 128.805 132.744 129.109 133.191C129.427 133.63 129.626 134.156 129.68 134.706C129.734 135.255 129.641 135.802 129.413 136.28L129.397 136.208ZM132.491 119.452C132.562 120.517 132.329 121.565 131.826 122.45C131.323 123.334 130.574 124.012 129.684 124.387C128.188 125.044 126.635 125.548 125.044 125.89C118.606 127.324 111.818 126.249 105.821 122.845C105.226 122.509 104.552 122.402 103.913 122.542C103.274 122.682 102.707 123.06 102.306 123.615C98.2916 129.146 92.6121 132.908 86.216 134.272C84.6275 134.628 83.0059 134.819 81.3722 134.844C80.4033 134.877 79.4359 134.577 78.6038 133.985C77.7717 133.392 77.1163 132.538 76.7285 131.539C76.0889 129.854 75.5738 128.12 75.1885 126.354C74.4305 122.891 74.19 119.339 74.4769 115.841C74.5452 115.041 74.7831 114.278 75.1715 113.612C75.5599 112.947 76.0882 112.398 76.7143 112.008C77.3467 111.614 78.0608 111.392 78.7994 111.361C79.538 111.33 80.2806 111.49 80.9678 111.828C87.7281 115.187 95.185 116.16 102.279 114.608C109.372 113.056 115.742 109.058 120.482 103.184C121.116 102.376 121.982 101.83 122.947 101.63C123.421 101.54 123.906 101.523 124.389 101.577C125.123 101.662 125.835 101.937 126.467 102.38C127.099 102.823 127.633 103.422 128.023 104.126C129.769 107.173 131.045 110.501 131.799 113.969C132.197 115.795 132.456 117.649 132.571 119.51L132.491 119.452ZM80.5787 102.635C80.4049 101.811 80.4094 100.962 80.5919 100.158C80.7744 99.3542 81.1298 98.6178 81.6286 98.0095C85.56 93.3115 90.759 90.1166 96.526 88.8549C102.293 87.5932 108.351 88.3252 113.885 90.9525C114.595 91.2969 115.227 91.8203 115.729 92.4786C116.23 93.137 116.586 93.9111 116.766 94.7362C116.947 95.5613 116.947 96.4133 116.766 97.2209C116.586 98.0284 116.23 98.7679 115.728 99.3774C111.786 104.058 106.587 107.24 100.824 108.501C95.0614 109.762 89.0085 109.041 83.4718 106.434C82.7799 106.082 82.1653 105.561 81.6769 104.911C81.1885 104.261 80.84 103.501 80.659 102.692L80.5787 102.635ZM127.87 69.7479C127.746 69.205 127.766 68.641 127.929 68.1248C128.093 67.6087 128.392 67.1628 128.789 66.842C129.082 66.6157 129.414 66.454 129.766 66.3652C130.352 66.2453 130.966 66.3644 131.496 66.7006C135.207 68.9779 138.465 72.0869 141.047 75.8164C143.629 79.5458 145.476 83.8083 146.462 88.3145C147.448 92.8207 147.55 97.4651 146.761 101.932C145.972 106.399 144.31 110.584 141.889 114.203C141.613 114.626 141.228 114.945 140.781 115.123C140.334 115.301 139.844 115.329 139.37 115.205C138.88 115.081 138.427 114.806 138.065 114.412C137.703 114.018 137.448 113.522 137.329 112.984C135.783 105.85 132.442 99.2584 127.696 93.9793C127.346 93.5887 127.1 93.1022 126.985 92.5758C126.869 92.0494 126.89 91.5045 127.045 91.0037C129.219 84.2437 129.572 76.857 128.064 69.7056L127.87 69.7479ZM68.137 61.2151C70.0494 57.2376 72.734 53.7963 76.0096 51.1239C79.2851 48.4515 83.0753 46.6102 87.1238 45.7245C91.1724 44.8387 95.3852 44.9291 99.4774 45.9896C103.57 47.0501 107.446 49.056 110.845 51.8716C111.239 52.2043 111.544 52.65 111.724 53.1564C111.903 53.6627 111.95 54.2087 111.858 54.73C111.766 55.2513 111.54 55.7262 111.205 56.099C110.871 56.4717 110.442 56.7268 109.97 56.8341C103.545 58.2089 97.6953 61.6008 93.1123 66.608C92.7754 66.9919 92.3388 67.2528 91.8568 67.3582C91.3749 67.4637 90.8692 67.4089 90.4028 67.2008C84.1663 64.5897 77.4625 63.9462 71.0685 65.3449C70.5921 65.4596 70.0896 65.4188 69.6215 65.2273C69.1534 65.0358 68.7397 64.7019 68.43 64.2656C68.1203 63.8294 67.9278 63.3094 67.8758 62.7682C67.8238 62.227 67.9146 61.6877 68.137 61.2151ZM65.0427 77.9708C64.9945 76.8942 65.247 75.8419 65.7663 74.9558C66.2857 74.0696 67.0468 73.3923 67.947 73.0152C69.4514 72.385 71.0057 71.8942 72.5944 71.5477C79.0172 70.1213 85.7879 71.1858 91.7771 74.5638C92.3672 74.8982 93.0346 75.0049 93.6684 74.8663C94.3022 74.7276 94.8643 74.3518 95.2608 73.8016C99.2812 68.2175 104.993 64.4199 111.431 63.051C113.041 62.6956 114.68 62.4878 116.332 62.4297C117.3 62.4163 118.261 62.73 119.087 63.3284C119.912 63.9267 120.563 64.7812 120.951 65.7769C121.601 67.4589 122.127 69.1909 122.523 70.9552C123.287 74.4209 123.516 77.9781 123.203 81.4757C123.142 82.2782 122.908 83.0448 122.518 83.7115C122.129 84.3782 121.597 84.9257 120.965 85.3086C120.337 85.6986 119.628 85.9174 118.895 85.9473C118.162 85.9772 117.426 85.8175 116.744 85.4808C109.984 82.1222 102.527 81.1497 95.4334 82.7016C88.3397 84.2535 81.9702 88.251 77.2299 94.1257C76.747 94.7203 76.139 95.1759 75.4549 95.4561C74.7708 95.7362 74.0294 95.833 73.2902 95.7389C72.5585 95.6461 71.849 95.3674 71.2183 94.925C70.5875 94.4826 70.0529 93.8886 69.6568 93.1904C67.9354 90.1315 66.6705 86.8038 65.9132 83.3404C65.4798 81.5768 65.1779 79.7832 65.0104 77.9779L65.0427 77.9708ZM55.6611 83.2916C56.0153 82.7623 56.5337 82.396 57.1249 82.2576C57.4828 82.1943 57.8511 82.2029 58.212 82.2828C58.6985 82.4093 59.1472 82.6872 59.5037 83.0828C59.8603 83.4783 60.1092 83.9743 60.2203 84.5106C61.7684 91.6496 65.1224 98.2419 69.8861 103.509C70.2356 103.899 70.4821 104.386 70.5973 104.912C70.7125 105.439 70.6916 105.984 70.5371 106.484C68.406 113.246 68.1084 120.625 69.6795 127.747C69.8049 128.277 69.79 128.829 69.6366 129.336C69.4832 129.843 69.1978 130.285 68.8147 130.606C68.4317 130.928 67.9674 131.117 67.4775 131.151C66.9877 131.184 66.4932 131.06 66.0537 130.794C62.3424 128.517 59.0849 125.408 56.5025 121.679C53.9202 117.949 52.0734 113.687 51.0875 109.18C50.1016 104.674 49.9998 100.03 50.7889 95.5629C51.5781 91.0959 53.2398 86.9107 55.6611 83.2916Z" fill="#FFF9F0" stroke="#9A4CB5"/>
<path d="M75.4643 140.557L75.8191 140.479L76.0668 140.838C80.1056 147.289 85.7578 152.341 92.2925 155.342C98.8272 158.343 105.944 159.154 112.722 157.671C119.5 156.188 125.627 152.479 130.312 147.024C134.996 141.568 138.023 134.618 138.999 127.07L138.913 126.676L139.268 126.598C144.955 122.433 149.3 116.429 151.74 109.362C154.18 102.295 154.604 94.4901 152.955 86.9568C151.307 79.4235 147.663 72.5085 142.495 67.106C137.327 61.7034 130.872 58.062 123.965 56.6527L123.61 56.7303L123.516 56.3C119.477 49.8498 113.825 44.7976 107.29 41.7967C100.756 38.7958 93.6392 37.9842 86.8613 39.4671C80.0833 40.95 73.9557 44.6591 69.2711 50.1145C64.5864 55.57 61.5602 62.5208 60.5838 70.0682L60.5165 70.5339L60.1617 70.6115C54.4744 74.7762 50.1297 80.7803 47.6895 87.8474C45.2493 94.9145 44.8259 102.719 46.474 110.253C48.1221 117.786 51.7659 124.701 56.9342 130.104C62.1025 135.506 68.5575 139.148 75.4643 140.557ZM130.385 136.055C128.47 140.034 125.783 143.476 122.504 146.149C119.226 148.823 115.434 150.665 111.383 151.551C107.332 152.437 103.116 152.347 99.0215 151.287C94.9266 150.227 91.0473 148.221 87.6455 145.405C87.2485 145.071 86.9422 144.622 86.7631 144.112C86.5839 143.602 86.5395 143.053 86.635 142.529C86.7306 142.006 86.9621 141.53 87.302 141.159C87.6419 140.788 88.0759 140.537 88.5524 140.436C94.9768 139.061 100.827 135.669 105.41 130.662C105.754 130.291 106.191 130.039 106.671 129.935C107.14 129.837 107.63 129.886 108.087 130.076C114.335 132.69 121.05 133.331 127.454 131.925C127.933 131.808 128.44 131.852 128.91 132.049C129.381 132.247 129.793 132.591 130.097 133.037C130.415 133.476 130.614 134.003 130.668 134.552C130.722 135.101 130.629 135.649 130.401 136.127L130.385 136.055ZM133.48 119.299C133.55 120.364 133.317 121.412 132.814 122.297C132.311 123.181 131.562 123.858 130.672 124.234C129.177 124.891 127.623 125.394 126.032 125.737C119.595 127.171 112.806 126.095 106.81 122.692C106.214 122.356 105.541 122.249 104.901 122.389C104.262 122.529 103.695 122.907 103.294 123.461C99.2799 128.993 93.6003 132.755 87.2043 134.119C85.6158 134.474 83.9942 134.666 82.3605 134.69C81.3916 134.724 80.4242 134.423 79.5921 133.831C78.76 133.239 78.1045 132.385 77.7168 131.386C77.0772 129.701 76.5621 127.966 76.1768 126.201C75.4188 122.737 75.1783 119.186 75.4652 115.687C75.5335 114.888 75.7714 114.125 76.1598 113.459C76.5482 112.794 77.0765 112.244 77.7026 111.854C78.335 111.46 79.0491 111.239 79.7877 111.207C80.5263 111.176 81.2689 111.337 81.9561 111.675C88.7164 115.034 96.1732 116.006 103.267 114.454C110.361 112.902 116.73 108.905 121.47 103.03C122.104 102.223 122.97 101.677 123.936 101.477C124.409 101.387 124.894 101.369 125.378 101.424C126.111 101.508 126.824 101.784 127.456 102.227C128.088 102.67 128.621 103.269 129.011 103.973C130.757 107.02 132.033 110.348 132.787 113.816C133.186 115.642 133.444 117.496 133.56 119.357L133.48 119.299ZM81.567 102.481C81.3932 101.658 81.3977 100.809 81.5802 100.005C81.7627 99.2009 82.118 98.4645 82.6169 97.8562C86.5483 93.1581 91.7473 89.9632 97.5143 88.7015C103.281 87.4399 109.339 88.1719 114.873 90.7992C115.584 91.1436 116.216 91.667 116.717 92.3253C117.218 92.9836 117.574 93.7578 117.755 94.5829C117.935 95.408 117.935 96.26 117.755 97.0675C117.574 97.8751 117.218 98.6146 116.717 99.2241C112.774 103.904 107.575 107.087 101.812 108.348C96.0497 109.608 89.9968 108.887 84.4601 106.281C83.7682 105.929 83.1536 105.407 82.6652 104.758C82.1768 104.108 81.8283 103.348 81.6473 102.539L81.567 102.481ZM128.858 69.5946C128.734 69.0517 128.754 68.4877 128.918 67.9715C129.081 67.4554 129.38 67.0095 129.778 66.6887C130.071 66.4624 130.402 66.3007 130.755 66.2119C131.34 66.092 131.954 66.2111 132.484 66.5472C136.196 68.8246 139.453 71.9336 142.035 75.663C144.618 79.3925 146.465 83.655 147.45 88.1612C148.436 92.6674 148.538 97.3118 147.749 101.779C146.96 106.246 145.298 110.431 142.877 114.05C142.601 114.472 142.217 114.792 141.769 114.97C141.322 115.147 140.832 115.176 140.358 115.052C139.869 114.928 139.416 114.652 139.054 114.258C138.692 113.864 138.436 113.369 138.318 112.831C136.771 105.697 133.43 99.1051 128.684 93.8259C128.335 93.4354 128.088 92.9489 127.973 92.4225C127.858 91.8961 127.879 91.3512 128.033 90.8504C130.207 84.0904 130.56 76.7037 129.052 69.5522L128.858 69.5946ZM69.1253 61.0618C71.0377 57.0842 73.7223 53.643 76.9978 50.9706C80.2734 48.2982 84.0635 46.4569 88.1121 45.5712C92.1607 44.6854 96.3735 44.7758 100.466 45.8363C104.558 46.8968 108.434 48.9027 111.833 51.7183C112.228 52.051 112.533 52.4967 112.712 53.003C112.892 53.5094 112.938 54.0553 112.846 54.5766C112.755 55.0979 112.528 55.5729 112.193 55.9456C111.859 56.3184 111.43 56.5735 110.958 56.6808C104.534 58.0556 98.6836 61.4475 94.1006 66.4547C93.7637 66.8386 93.327 67.0995 92.8451 67.2049C92.3632 67.3104 91.8575 67.2556 91.3911 67.0475C85.1545 64.4364 78.4508 63.7929 72.0567 65.1916C71.5804 65.3063 71.0779 65.2654 70.6098 65.074C70.1417 64.8825 69.7279 64.5486 69.4182 64.1123C69.1085 63.676 68.9161 63.156 68.8641 62.6149C68.8121 62.0737 68.9029 61.5343 69.1253 61.0618ZM66.031 77.8175C65.9828 76.7409 66.2353 75.6886 66.7546 74.8024C67.274 73.9163 68.0351 73.239 68.9352 72.8619C70.4397 72.2317 71.994 71.7409 73.5827 71.3944C80.0054 69.968 86.7762 71.0325 92.7654 74.4104C93.3554 74.7448 94.0229 74.8516 94.6567 74.713C95.2905 74.5743 95.8526 74.1985 96.2491 73.6483C100.269 68.0642 105.982 64.2666 112.42 62.8977C114.029 62.5423 115.668 62.3345 117.32 62.2764C118.288 62.263 119.249 62.5767 120.075 63.175C120.901 63.7734 121.551 64.6278 121.939 65.6235C122.59 67.3056 123.116 69.0375 123.512 70.8019C124.275 74.2676 124.505 77.8247 124.191 81.3224C124.13 82.1249 123.896 82.8914 123.507 83.5581C123.118 84.2248 122.585 84.7723 121.954 85.1553C121.326 85.5453 120.617 85.7641 119.884 85.794C119.151 85.8238 118.414 85.6641 117.732 85.3275C110.972 81.9689 103.515 80.9964 96.4216 82.5483C89.328 84.1002 82.9585 88.0976 78.2182 93.9723C77.7352 94.567 77.1273 95.0226 76.4432 95.3027C75.759 95.5829 75.0177 95.6797 74.2784 95.5856C73.5467 95.4928 72.8373 95.2141 72.2065 94.7717C71.5758 94.3292 71.0412 93.7353 70.6451 93.037C68.9237 89.9782 67.6588 86.6504 66.9014 83.187C66.468 81.4234 66.1661 79.6298 65.9987 77.8246L66.031 77.8175ZM56.6494 83.1383C57.0036 82.6089 57.522 82.2427 58.1132 82.1043C58.4711 82.041 58.8393 82.0496 59.2003 82.1294C59.6868 82.256 60.1355 82.5339 60.492 82.9294C60.8486 83.325 61.0975 83.821 61.2086 84.3573C62.7567 91.4963 66.1107 98.0886 70.8744 103.355C71.2239 103.746 71.4704 104.232 71.5856 104.759C71.7008 105.285 71.6799 105.83 71.5254 106.331C69.3943 113.093 69.0967 120.472 70.6678 127.594C70.7932 128.124 70.7783 128.675 70.6249 129.183C70.4714 129.69 70.1861 130.131 69.803 130.453C69.42 130.775 68.9556 130.964 68.4658 130.997C67.976 131.031 67.4815 130.907 67.0419 130.641C63.3307 128.364 60.0732 125.255 57.4908 121.525C54.9085 117.796 53.0616 113.533 52.0758 109.027C51.0899 104.521 50.9881 99.8766 51.7772 95.4096C52.5664 90.9425 54.2281 86.7573 56.6494 83.1383Z" fill="#FFFAF9" stroke="#9A4CB5"/>
<defs>
<filter id="filter0_f_18_36" x="18.1052" y="15.2037" width="157.455" height="168.649" filterUnits="userSpaceOnUse" color-interpolation-filters="sRGB">
<feFlood flood-opacity="0" result="BackgroundImageFix"/>
<feBlend mode="normal" in="SourceGraphic" in2="BackgroundImageFix" result="shape"/>
<feGaussianBlur stdDeviation="12" result="effect1_foregroundBlur_18_36"/>
</filter>
</defs>
</svg>
