
<svg width="102" height="105" viewBox="0 0 102 105" fill="none" xmlns="http://www.w3.org/2000/svg">
<g clip-path="url(#clip0_959_21657)">
<path d="M37.6295 74.7726L37.812 74.7327L37.9407 74.9234C40.0416 78.3477 42.969 81.038 46.3444 82.6463C49.7198 84.2546 53.3879 84.7069 56.8742 83.9448C60.3605 83.1826 63.5047 81.2411 65.9001 78.3713C68.2956 75.5014 69.832 71.8353 70.3108 67.8471L70.2651 67.6382L70.4477 67.5983C73.3637 65.4144 75.5822 62.2533 76.8165 58.5238C78.0507 54.7944 78.244 50.6681 77.371 46.6788C76.498 42.6895 74.599 39.0206 71.9197 36.1467C69.2405 33.2728 65.9042 31.326 62.3423 30.5582L62.1597 30.5981L62.1098 30.3702C60.009 26.9459 57.0816 24.2557 53.7062 22.6474C50.3308 21.0391 46.6628 20.5867 43.1765 21.3489C39.6901 22.111 36.5459 24.0526 34.1504 26.9224C31.755 29.7923 30.2185 33.4583 29.7397 37.4466L29.7066 37.6926L29.5241 37.7325C26.6081 39.9164 24.3894 43.0775 23.1552 46.807C21.9209 50.5364 21.7278 54.6626 22.6008 58.6519C23.4738 62.6413 25.3727 66.3102 28.0519 69.1841C30.7312 72.058 34.0676 74.0048 37.6295 74.7726ZM65.9029 72.5705C64.9292 74.6686 63.556 76.4803 61.8761 77.8834C60.1961 79.2864 58.2487 80.2481 56.1649 80.7037C54.0812 81.1592 51.9098 81.0979 49.7972 80.5239C47.6847 79.9499 45.6802 78.8766 43.9191 77.3763C43.7136 77.1981 43.5543 76.9597 43.4604 76.6895C43.3666 76.4193 43.3419 76.1286 43.3894 75.8521C43.437 75.5755 43.5547 75.3248 43.7286 75.1297C43.9025 74.9345 44.1252 74.8032 44.3703 74.7513C47.6749 74.0451 50.6772 72.2704 53.0218 69.6373C53.198 69.4422 53.4222 69.3105 53.6687 69.2571C53.91 69.2065 54.1629 69.2339 54.3989 69.3362C57.6252 70.7388 61.0859 71.0997 64.3798 70.3771C64.6265 70.3169 64.8876 70.3413 65.1304 70.4475C65.3732 70.5536 65.5869 70.7367 65.7447 70.9738C65.9102 71.2071 66.0142 71.4863 66.0438 71.7768C66.0733 72.0673 66.0273 72.3565 65.9112 72.6085L65.9029 72.5705ZM67.4431 63.7194C67.4828 64.2828 67.3663 64.8363 67.1099 65.3025C66.8535 65.7686 66.47 66.1243 66.0128 66.3199C65.2446 66.6627 64.4463 66.9238 63.6278 67.0999C60.3166 67.8371 56.8167 67.2463 53.7172 65.427C53.4093 65.2473 53.0622 65.1885 52.7333 65.2604C52.4044 65.3323 52.1136 65.5305 51.9088 65.8223C49.8591 68.7344 46.9458 70.7055 43.6557 71.4062C42.8387 71.5889 42.0041 71.6848 41.1627 71.6926C40.6638 71.707 40.1646 71.545 39.7341 71.2292C39.3036 70.9134 38.9633 70.4593 38.7604 69.93C38.4255 69.0366 38.1547 68.1178 37.9506 67.1827C37.5491 65.3487 37.4139 63.4696 37.5505 61.6205C37.5831 61.1977 37.7032 60.795 37.9011 60.4443C38.099 60.0937 38.3694 59.8049 38.6906 59.6007C39.015 59.3943 39.3821 59.2794 39.7625 59.2654C40.1428 59.2513 40.5258 59.3384 40.8808 59.5198C44.3736 61.318 48.2174 61.8565 51.8661 61.0589C55.5148 60.2613 58.7828 58.168 61.2055 55.0766C61.5294 54.6516 61.9736 54.3659 62.4704 54.263C62.7139 54.2172 62.9637 54.2095 63.2129 54.24C63.591 54.2869 63.9589 54.4347 64.2858 54.6712C64.6127 54.9077 64.8894 55.226 65.0925 55.5996C66.0014 57.2167 66.6696 58.9809 67.0688 60.8173C67.28 61.7845 67.4191 62.7657 67.4845 63.7502L67.4431 63.7194ZM40.651 54.6563C40.5589 54.2202 40.5585 53.7714 40.6499 53.3468C40.7414 52.9222 40.922 52.5339 41.177 52.2138C43.1869 49.7421 45.8545 48.0694 48.8208 47.4209C51.7872 46.7725 54.9098 47.1794 57.7686 48.5868C58.1355 48.7713 58.4627 49.0501 58.7231 49.3999C58.9834 49.7497 59.1691 50.1602 59.2648 50.5972C59.3604 51.0341 59.363 51.4847 59.2726 51.9112C59.1821 52.3376 59.0012 52.7276 58.7449 53.0483C56.7292 55.5106 54.0616 57.1767 51.0975 57.8246C48.1333 58.4726 45.0134 58.0717 42.1533 56.6753C41.7958 56.4869 41.4776 56.209 41.2239 55.8638C40.9703 55.5186 40.7884 55.1156 40.6926 54.6871L40.651 54.6563ZM64.9039 37.4184C64.8381 37.1309 64.8469 36.8327 64.9293 36.5602C65.0118 36.2878 65.1643 36.053 65.3681 35.8846C65.5183 35.7659 65.6884 35.6815 65.8698 35.6357C66.1709 35.5741 66.4877 35.6391 66.7618 35.8186C68.6806 37.0351 70.3683 38.6899 71.7103 40.6706C73.0523 42.6513 74.0172 44.9115 74.5394 47.2978C75.0615 49.6841 75.1288 52.1406 74.7367 54.5004C74.3445 56.8602 73.5021 59.068 72.2665 60.9741C72.126 61.1965 71.9288 61.3642 71.699 61.4568C71.4693 61.5494 71.2169 61.563 70.9725 61.4957C70.7199 61.4285 70.4856 61.2813 70.2979 61.0718C70.1102 60.8623 69.977 60.5994 69.9143 60.3146C69.095 56.5367 67.3529 53.0397 64.8916 50.2325C64.7103 50.0248 64.5818 49.7667 64.5208 49.4879C64.4598 49.2092 64.4688 48.9211 64.5468 48.6567C65.6449 45.0888 65.8032 41.1835 65.0035 37.3966L64.9039 37.4184ZM34.1103 32.7114C35.0826 30.6141 36.4544 28.8029 38.1329 27.4003C39.8115 25.9977 41.7578 25.0363 43.8402 24.581C45.9227 24.1258 48.0928 24.1873 50.204 24.7615C52.3151 25.3356 54.3181 26.4091 56.0776 27.9092C56.2819 28.0864 56.4405 28.3231 56.5346 28.5915C56.6287 28.8598 56.6544 29.1487 56.6088 29.4241C56.5631 29.6995 56.4479 29.9499 56.2768 30.1459C56.1057 30.342 55.8858 30.4755 55.6429 30.5307C52.3383 31.2369 49.336 33.0116 46.9914 35.6447C46.8191 35.8466 46.5951 35.9832 46.3472 36.0374C46.0993 36.0915 45.8387 36.0609 45.5978 35.9494C42.3772 34.5482 38.9223 34.1861 35.6334 34.9049C35.3884 34.964 35.1295 34.9408 34.8878 34.838C34.6461 34.7352 34.4319 34.5573 34.271 34.3256C34.1101 34.0938 34.0093 33.8182 33.9808 33.5318C33.9523 33.2455 33.9973 32.9605 34.1103 32.7114ZM32.5702 41.5625C32.5419 40.993 32.6686 40.4373 32.9332 39.9703C33.1979 39.5034 33.5878 39.1476 34.0502 38.9512C34.8231 38.6228 35.6221 38.3683 36.4392 38.1902C39.7428 37.4568 43.2335 38.0418 46.3292 39.8477C46.6341 40.0265 46.9783 40.0851 47.3043 40.0138C47.6303 39.9426 47.9186 39.7457 48.1211 39.456C50.1739 36.5159 53.1039 34.5262 56.4156 33.8232C57.2433 33.6405 58.0868 33.536 58.9375 33.5106C59.436 33.5067 59.9321 33.6757 60.3594 33.9949C60.7866 34.314 61.1245 34.768 61.3275 35.2958C61.6678 36.1875 61.9442 37.1051 62.1539 38.0395C62.5583 39.8748 62.6879 41.7567 62.5374 43.6054C62.5088 44.0296 62.3905 44.4342 62.1922 44.7855C61.9938 45.1368 61.7213 45.4247 61.3973 45.6251C61.0751 45.8293 60.7106 45.9427 60.3332 45.9561C59.9558 45.9696 59.5758 45.8827 59.2237 45.7024C55.731 43.9042 51.8871 43.3656 48.2384 44.1633C44.5897 44.9609 41.3218 47.0542 38.899 50.1456C38.6521 50.4584 38.3405 50.6974 37.989 50.8433C37.6375 50.9893 37.256 51.0381 36.8749 50.9859C36.4978 50.9344 36.1315 50.7847 35.8052 50.5487C35.4789 50.3127 35.2016 49.9968 34.9954 49.6263C34.099 48.003 33.4368 46.239 33.0357 44.4049C32.8068 43.4709 32.6456 42.5213 32.5536 41.5661L32.5702 41.5625ZM27.755 44.3458C27.9358 44.067 28.2016 43.875 28.5057 43.8037C28.6898 43.7714 28.8795 43.7771 29.0657 43.8206C29.3167 43.889 29.5487 44.0375 29.7336 44.2478C29.9185 44.4582 30.0483 44.7213 30.1072 45.0053C30.9274 48.7858 32.676 52.283 35.1465 55.0838C35.3278 55.2915 35.4563 55.5495 35.5173 55.8283C35.5783 56.1071 35.5693 56.3952 35.4913 56.6596C34.4153 60.2287 34.2856 64.1299 35.1176 67.9015C35.1838 68.1822 35.1779 68.4739 35.1005 68.7417C35.0231 69.0094 34.8776 69.2418 34.6813 69.4108C34.485 69.5798 34.2465 69.6782 33.9943 69.6943C33.7421 69.7103 33.487 69.6433 33.2598 69.5012C31.3409 68.2848 29.6532 66.63 28.3112 64.6493C26.9692 62.6686 26.0043 60.4084 25.4821 58.0221C24.9599 55.6358 24.8926 53.1793 25.2848 50.8195C25.677 48.4597 26.5195 46.2518 27.755 44.3458Z" fill="#FFF9F0" stroke="#F9E1E0" stroke-width="0.62049"/>
<path d="M38.1373 74.6945L38.3198 74.6546L38.4485 74.8453C40.5494 78.2696 43.4768 80.9599 46.8522 82.5682C50.2276 84.1764 53.8957 84.6288 57.382 83.8667C60.8683 83.1045 64.0125 81.163 66.4079 78.2931C68.8034 75.4233 70.3398 71.7572 70.8186 67.769L70.7729 67.5601L70.9555 67.5202C73.8715 65.3363 76.09 62.1752 77.3243 58.4457C78.5586 54.7162 78.7518 50.59 77.8788 46.6007C77.0058 42.6114 75.1068 38.9425 72.4276 36.0686C69.7483 33.1947 66.412 31.2479 62.8501 30.4801L62.6675 30.52L62.6176 30.2921C60.5168 26.8678 57.5894 24.1776 54.214 22.5693C50.8386 20.961 47.1706 20.5086 43.6843 21.2707C40.1979 22.0329 37.0537 23.9744 34.6582 26.8443C32.2628 29.7141 30.7263 33.3802 30.2476 37.3684L30.2144 37.6145L30.0319 37.6543C27.1159 39.8383 24.8973 42.9994 23.663 46.7289C22.4287 50.4583 22.2356 54.5845 23.1086 58.5738C23.9816 62.5631 25.8805 66.232 28.5597 69.106C31.239 71.9799 34.5754 73.9267 38.1373 74.6945ZM66.4107 72.4924C65.437 74.5905 64.0638 76.4022 62.3839 77.8053C60.704 79.2083 58.7565 80.17 56.6728 80.6255C54.589 81.0811 52.4176 81.0198 50.3051 80.4458C48.1925 79.8718 46.188 78.7984 44.4269 77.2982C44.2214 77.12 44.0621 76.8816 43.9683 76.6114C43.8744 76.3412 43.8497 76.0505 43.8973 75.7739C43.9448 75.4974 44.0625 75.2467 44.2364 75.0515C44.4103 74.8564 44.633 74.725 44.8781 74.6731C48.1827 73.967 51.185 72.1923 53.5296 69.5592C53.7058 69.3641 53.93 69.2324 54.1765 69.179C54.4178 69.1284 54.6707 69.1558 54.9067 69.2581C58.133 70.6607 61.5938 71.0216 64.8876 70.2989C65.1343 70.2387 65.3954 70.2632 65.6382 70.3694C65.881 70.4755 66.0947 70.6586 66.2526 70.8957C66.418 71.129 66.522 71.4081 66.5516 71.6987C66.5812 71.9892 66.5351 72.2784 66.4191 72.5304L66.4107 72.4924ZM67.9509 63.6413C67.9906 64.2047 67.8741 64.7582 67.6177 65.2243C67.3613 65.6905 66.9778 66.0462 66.5206 66.2417C65.7524 66.5846 64.9541 66.8457 64.1356 67.0217C60.8244 67.759 57.3245 67.1682 54.225 65.3488C53.9171 65.1691 53.57 65.1104 53.2411 65.1822C52.9123 65.2541 52.6214 65.4524 52.4166 65.7442C50.3669 68.6563 47.4536 70.6274 44.1636 71.3281C43.3465 71.5108 42.5119 71.6066 41.6705 71.6145C41.1716 71.6289 40.6724 71.4669 40.2419 71.1511C39.8114 70.8352 39.4711 70.3812 39.2682 69.8519C38.9333 68.9585 38.6625 68.0396 38.4584 67.1046C38.0569 65.2706 37.9217 63.3914 38.0583 61.5423C38.0909 61.1196 38.211 60.7169 38.4089 60.3662C38.6068 60.0156 38.8772 59.7267 39.1984 59.5226C39.5229 59.3162 39.89 59.2013 40.2703 59.1873C40.6506 59.1732 41.0336 59.2603 41.3887 59.4416C44.8814 61.2398 48.7252 61.7784 52.3739 60.9808C56.0226 60.1832 59.2906 58.0899 61.7133 54.9985C62.0373 54.5734 62.4814 54.2878 62.9782 54.1849C63.2217 54.1391 63.4715 54.1314 63.7207 54.1619C64.0988 54.2088 64.4667 54.3566 64.7936 54.5931C65.1206 54.8296 65.3972 55.1479 65.6003 55.5214C66.5092 57.1385 67.1774 58.9027 67.5766 60.7391C67.7878 61.7064 67.9269 62.6876 67.9924 63.6721L67.9509 63.6413ZM41.1589 54.5782C41.0667 54.142 41.0663 53.6933 41.1577 53.2687C41.2492 52.8441 41.4298 52.4558 41.6848 52.1357C43.6947 49.664 46.3623 47.9913 49.3287 47.3428C52.295 46.6944 55.4177 47.1012 58.2764 48.5087C58.6433 48.6931 58.9705 48.972 59.2309 49.3218C59.4912 49.6716 59.677 50.0821 59.7726 50.5191C59.8682 50.956 59.8709 51.4066 59.7804 51.833C59.69 52.2595 59.509 52.6494 59.2527 52.9702C57.237 55.4324 54.5694 57.0985 51.6053 57.7465C48.6411 58.3945 45.5212 57.9936 42.6611 56.5972C42.3036 56.4087 41.9854 56.1309 41.7318 55.7856C41.4781 55.4404 41.2962 55.0375 41.2004 54.6089L41.1589 54.5782ZM65.4118 37.3403C65.3459 37.0528 65.3547 36.7545 65.4371 36.4821C65.5196 36.2097 65.6721 35.9749 65.8759 35.8065C66.0261 35.6878 66.1962 35.6033 66.3776 35.5575C66.6787 35.496 66.9955 35.561 67.2696 35.7405C69.1885 36.957 70.8761 38.6118 72.2181 40.5925C73.5601 42.5732 74.525 44.8334 75.0472 47.2197C75.5694 49.606 75.6367 52.0625 75.2445 54.4223C74.8523 56.7821 74.0099 58.9899 72.7744 60.8959C72.6338 61.1183 72.4366 61.2861 72.2068 61.3787C71.9771 61.4713 71.7247 61.4848 71.4803 61.4176C71.2277 61.3504 70.9934 61.2032 70.8057 60.9937C70.618 60.7842 70.4848 60.5212 70.4221 60.2365C69.6028 56.4585 67.8607 52.9616 65.3994 50.1543C65.2182 49.9466 65.0896 49.6886 65.0286 49.4098C64.9676 49.131 64.9766 48.843 65.0546 48.5786C66.1527 45.0107 66.3111 41.1054 65.5113 37.3185L65.4118 37.3403ZM34.6182 32.6332C35.5904 30.5359 36.9622 28.7248 38.6408 27.3222C40.3193 25.9196 42.2656 24.9582 44.3481 24.5029C46.4305 24.0477 48.6006 24.1092 50.7118 24.6834C52.8229 25.2575 54.8259 26.3309 56.5854 27.8311C56.7897 28.0083 56.9483 28.245 57.0424 28.5133C57.1365 28.7817 57.1622 29.0706 57.1166 29.346C57.0709 29.6213 56.9557 29.8718 56.7846 30.0678C56.6135 30.2639 56.3936 30.3974 56.1507 30.4526C52.8461 31.1587 49.8438 32.9334 47.4992 35.5666C47.327 35.7685 47.1029 35.905 46.855 35.9592C46.6071 36.0134 46.3465 35.9828 46.1056 35.8712C42.885 34.47 39.4301 34.1079 36.1412 34.8268C35.8963 34.8859 35.6373 34.8627 35.3956 34.7599C35.1539 34.6571 34.9397 34.4792 34.7788 34.2474C34.6179 34.0157 34.5171 33.7401 34.4886 33.4537C34.4601 33.1673 34.5051 32.8824 34.6182 32.6332ZM33.078 41.4843C33.0497 40.9148 33.1764 40.3591 33.441 39.8922C33.7057 39.4252 34.0956 39.0695 34.558 38.873C35.3309 38.5446 36.1299 38.2901 36.9471 38.1121C40.2506 37.3787 43.7414 37.9637 46.837 39.7696C47.142 39.9483 47.4861 40.007 47.8121 39.9357C48.1381 39.8645 48.4264 39.6676 48.6289 39.3778C50.6818 36.4378 53.6117 34.4481 56.9234 33.7451C57.7511 33.5624 58.5946 33.4578 59.4454 33.4325C59.9438 33.4286 60.4399 33.5976 60.8672 33.9167C61.2945 34.2359 61.6324 34.6898 61.8353 35.2177C62.1756 36.1093 62.452 37.027 62.6618 37.9614C63.0661 39.7966 63.1957 41.6786 63.0452 43.5273C63.0166 43.9515 62.8983 44.3561 62.7 44.7074C62.5017 45.0587 62.2291 45.3465 61.9051 45.547C61.5829 45.7512 61.2184 45.8646 60.841 45.878C60.4636 45.8914 60.0836 45.8046 59.7315 45.6243C56.2388 43.8261 52.3949 43.2875 48.7462 44.0851C45.0975 44.8828 41.8296 46.9761 39.4068 50.0674C39.1599 50.3803 38.8483 50.6193 38.4968 50.7652C38.1453 50.9111 37.7638 50.9599 37.3827 50.9077C37.0056 50.8563 36.6393 50.7066 36.313 50.4706C35.9867 50.2345 35.7094 49.9187 35.5032 49.5481C34.6068 47.9249 33.9446 46.1609 33.5435 44.3268C33.3146 43.3927 33.1534 42.4432 33.0614 41.488L33.078 41.4843ZM28.2629 44.2677C28.4436 43.9889 28.7095 43.7969 29.0135 43.7256C29.1977 43.6933 29.3873 43.699 29.5735 43.7424C29.8245 43.8109 30.0565 43.9594 30.2414 44.1697C30.4263 44.38 30.5561 44.6432 30.615 44.9272C31.4352 48.7076 33.1838 52.2048 35.6543 55.0057C35.8356 55.2134 35.9641 55.4714 36.0251 55.7502C36.0861 56.0289 36.0771 56.3171 35.9991 56.5815C34.9231 60.1505 34.7934 64.0518 35.6254 67.8234C35.6917 68.1041 35.6857 68.3958 35.6083 68.6635C35.5309 68.9313 35.3854 69.1637 35.1891 69.3327C34.9928 69.5017 34.7543 69.6001 34.5021 69.6162C34.2499 69.6322 33.9948 69.5652 33.7676 69.4231C31.8488 68.2066 30.161 66.5519 28.819 64.5712C27.477 62.5905 26.5121 60.3302 25.9899 57.9439C25.4678 55.5576 25.4005 53.1012 25.7926 50.7414C26.1848 48.3816 27.0273 46.1737 28.2629 44.2677Z" fill="#FFF9F0" stroke="#F9E1E0" stroke-width="0.62049"/>
<path d="M38.6451 74.6169L38.8276 74.577L38.9564 74.7677C41.0572 78.192 43.9846 80.8822 47.36 82.4905C50.7354 84.0988 54.4035 84.5512 57.8898 83.789C61.3762 83.0269 64.5203 81.0853 66.9157 78.2155C69.3112 75.3456 70.8477 71.6796 71.3264 67.6913L71.2807 67.4825L71.4633 67.4426C74.3793 65.2586 76.5978 62.0975 77.8321 58.3681C79.0664 54.6386 79.2596 50.5123 78.3866 46.523C77.5136 42.5337 75.6146 38.8649 72.9354 35.991C70.2561 33.117 66.9198 31.1702 63.3579 30.4024L63.1753 30.4423L63.1254 30.2145C61.0246 26.7902 58.0972 24.0999 54.7218 22.4916C51.3464 20.8833 47.6784 20.431 44.1921 21.1931C40.7057 21.9552 37.5615 23.8968 35.1661 26.7667C32.7706 29.6365 31.2341 33.3026 30.7554 37.2908L30.7222 37.5368L30.5397 37.5767C27.6237 39.7607 25.4051 42.9218 24.1708 46.6512C22.9365 50.3807 22.7434 54.5069 23.6164 58.4962C24.4894 62.4855 26.3883 66.1544 29.0675 69.0283C31.7468 71.9023 35.0832 73.849 38.6451 74.6169ZM66.9186 72.4148C65.9448 74.5128 64.5716 76.3246 62.8917 77.7276C61.2118 79.1307 59.2643 80.0924 57.1806 80.5479C55.0968 81.0034 52.9254 80.9421 50.8129 80.3681C48.7003 79.7941 46.6958 78.7208 44.9347 77.2206C44.7292 77.0424 44.57 76.804 44.4761 76.5338C44.3822 76.2635 44.3575 75.9728 44.4051 75.6963C44.4526 75.4198 44.5703 75.169 44.7442 74.9739C44.9181 74.7787 45.1409 74.6474 45.386 74.5955C48.6905 73.8894 51.6928 72.1147 54.0374 69.4815C54.2136 69.2865 54.4379 69.1547 54.6843 69.1014C54.9257 69.0507 55.1786 69.0781 55.4145 69.1805C58.6408 70.583 62.1016 70.9439 65.3954 70.2213C65.6421 70.1611 65.9032 70.1856 66.146 70.2917C66.3888 70.3979 66.6025 70.581 66.7604 70.8181C66.9258 71.0513 67.0298 71.3305 67.0594 71.621C67.089 71.9116 67.0429 72.2008 66.9269 72.4528L66.9186 72.4148ZM68.4587 63.5637C68.4984 64.1271 68.3819 64.6805 68.1255 65.1467C67.8691 65.6129 67.4856 65.9685 67.0284 66.1641C66.2602 66.5069 65.4619 66.768 64.6434 66.9441C61.3322 67.6814 57.8323 67.0906 54.7329 65.2712C54.4249 65.0915 54.0778 65.0327 53.7489 65.1046C53.4201 65.1765 53.1292 65.3748 52.9244 65.6665C50.8747 68.5787 47.9614 70.5497 44.6714 71.2505C43.8543 71.4331 43.0197 71.529 42.1783 71.5368C41.6794 71.5512 41.1802 71.3893 40.7497 71.0734C40.3192 70.7576 39.9789 70.3036 39.776 69.7743C39.4412 68.8809 39.1703 67.962 38.9662 67.0269C38.5647 65.193 38.4295 63.3138 38.5661 61.4647C38.5987 61.0419 38.7188 60.6392 38.9167 60.2886C39.1147 59.9379 39.385 59.6491 39.7062 59.445C40.0307 59.2385 40.3978 59.1237 40.7781 59.1096C41.1584 59.0956 41.5414 59.1827 41.8965 59.364C45.3892 61.1622 49.233 61.7008 52.8818 60.9032C56.5305 60.1055 59.7984 58.0122 62.2211 54.9209C62.5451 54.4958 62.9892 54.2101 63.486 54.1073C63.7295 54.0615 63.9793 54.0537 64.2285 54.0842C64.6067 54.1312 64.9745 54.279 65.3014 54.5155C65.6284 54.752 65.905 55.0703 66.1081 55.4438C67.0171 57.0609 67.6852 58.8251 68.0844 60.6615C68.2956 61.6288 68.4347 62.61 68.5002 63.5945L68.4587 63.5637ZM41.6667 54.5005C41.5745 54.0644 41.5741 53.6156 41.6655 53.191C41.757 52.7664 41.9376 52.3781 42.1927 52.0581C44.2025 49.5863 46.8702 47.9136 49.8365 47.2652C52.8028 46.6167 55.9255 47.0236 58.7842 48.431C59.1511 48.6155 59.4784 48.8943 59.7387 49.2441C59.999 49.5939 60.1848 50.0045 60.2804 50.4414C60.376 50.8784 60.3787 51.3289 60.2882 51.7554C60.1978 52.1819 60.0168 52.5718 59.7605 52.8925C57.7448 55.3548 55.0772 57.0209 52.1131 57.6689C49.149 58.3169 46.029 57.9159 43.169 56.5195C42.8114 56.3311 42.4932 56.0532 42.2396 55.708C41.9859 55.3628 41.804 54.9599 41.7082 54.5313L41.6667 54.5005ZM65.9196 37.2626C65.8537 36.9751 65.8625 36.6769 65.945 36.4045C66.0274 36.132 66.1799 35.8972 66.3837 35.7288C66.5339 35.6102 66.704 35.5257 66.8854 35.4799C67.1865 35.4184 67.5033 35.4834 67.7775 35.6629C69.6963 36.8793 71.3839 38.5341 72.7259 40.5148C74.0679 42.4955 75.0328 44.7557 75.555 47.142C76.0772 49.5283 76.1445 51.9848 75.7523 54.3446C75.3601 56.7044 74.5177 58.9123 73.2822 60.8183C73.1416 61.0407 72.9444 61.2084 72.7146 61.301C72.4849 61.3936 72.2325 61.4072 71.9881 61.34C71.7355 61.2727 71.5012 61.1255 71.3135 60.916C71.1259 60.7065 70.9927 60.4436 70.9299 60.1588C70.1106 56.3809 68.3686 52.884 65.9072 50.0767C65.726 49.869 65.5974 49.6109 65.5364 49.3322C65.4754 49.0534 65.4845 48.7653 65.5624 48.501C66.6605 44.9331 66.8189 41.0278 66.0191 37.2409L65.9196 37.2626ZM35.126 32.5556C36.0983 30.4583 37.47 28.6472 39.1486 27.2445C40.8271 25.8419 42.7734 24.8805 44.8559 24.4253C46.9383 23.97 49.1084 24.0316 51.2196 24.6057C53.3307 25.1799 55.3337 26.2533 57.0932 27.7534C57.2975 27.9306 57.4561 28.1673 57.5502 28.4357C57.6443 28.7041 57.6701 28.9929 57.6244 29.2683C57.5787 29.5437 57.4636 29.7942 57.2924 29.9902C57.1213 30.1862 56.9014 30.3197 56.6585 30.375C53.3539 31.0811 50.3516 32.8558 48.0071 35.4889C47.8348 35.6909 47.6107 35.8274 47.3628 35.8816C47.115 35.9358 46.8543 35.9052 46.6134 35.7936C43.3928 34.3924 39.9379 34.0303 36.6491 34.7492C36.4041 34.8083 36.1451 34.785 35.9034 34.6822C35.6617 34.5795 35.4475 34.4015 35.2866 34.1698C35.1257 33.9381 35.0249 33.6624 34.9964 33.3761C34.9679 33.0897 35.0129 32.8048 35.126 32.5556ZM33.5858 41.4067C33.5575 40.8372 33.6842 40.2815 33.9489 39.8146C34.2135 39.3476 34.6034 38.9919 35.0658 38.7954C35.8387 38.467 36.6377 38.2125 37.4549 38.0344C40.7584 37.301 44.2492 37.886 47.3448 39.6919C47.6498 39.8707 47.9939 39.9294 48.3199 39.8581C48.6459 39.7868 48.9342 39.5899 49.1367 39.3002C51.1896 36.3602 54.1196 34.3704 57.4312 33.6675C58.2589 33.4848 59.1024 33.3802 59.9532 33.3549C60.4516 33.351 60.9478 33.52 61.375 33.8391C61.8023 34.1582 62.1402 34.6122 62.3432 35.14C62.6834 36.0317 62.9599 36.9493 63.1696 37.8837C63.5739 39.719 63.7035 41.6009 63.553 43.4496C63.5244 43.8738 63.4061 44.2785 63.2078 44.6298C63.0095 44.9811 62.7369 45.2689 62.4129 45.4693C62.0907 45.6736 61.7262 45.7869 61.3488 45.8004C60.9714 45.8138 60.5914 45.7269 60.2393 45.5467C56.7466 43.7485 52.9027 43.2099 49.254 44.0075C45.6053 44.8051 42.3374 46.8984 39.9146 49.9898C39.6678 50.3027 39.3561 50.5417 39.0046 50.6876C38.6532 50.8335 38.2716 50.8823 37.8906 50.8301C37.5134 50.7786 37.1471 50.629 36.8208 50.3929C36.4945 50.1569 36.2172 49.841 36.011 49.4705C35.1146 47.8472 34.4525 46.0832 34.0513 44.2492C33.8224 43.3151 33.6612 42.3656 33.5692 41.4103L33.5858 41.4067ZM28.7707 44.19C28.9514 43.9112 29.2173 43.7192 29.5213 43.648C29.7055 43.6157 29.8952 43.6214 30.0813 43.6648C30.3323 43.7333 30.5643 43.8817 30.7492 44.0921C30.9341 44.3024 31.0639 44.5656 31.1228 44.8495C31.943 48.63 33.6916 52.1272 36.1621 54.9281C36.3434 55.1358 36.4719 55.3938 36.5329 55.6725C36.5939 55.9513 36.5849 56.2395 36.5069 56.5038C35.4309 60.0729 35.3012 63.9742 36.1332 67.7458C36.1995 68.0264 36.1936 68.3181 36.1162 68.5859C36.0387 68.8537 35.8932 69.0861 35.6969 69.2551C35.5006 69.4241 35.2621 69.5225 35.0099 69.5385C34.7577 69.5546 34.5026 69.4875 34.2754 69.3455C32.3566 68.129 30.6688 66.4743 29.3268 64.4936C27.9848 62.5129 27.0199 60.2526 26.4978 57.8663C25.9756 55.48 25.9083 53.0236 26.3004 50.6638C26.6926 48.304 27.5351 46.096 28.7707 44.19Z" fill="#FFF9F0" stroke="#F9E1E0" stroke-width="0.62049"/>
<path d="M39.1569 74.5392L39.3393 74.4993L39.4681 74.69C41.5689 78.1143 44.4963 80.8046 47.8717 82.4129C51.2471 84.0212 54.9152 84.4735 58.4015 83.7114C61.8879 82.9492 65.032 81.0077 67.4275 78.1379C69.8229 75.268 71.3594 71.6019 71.8381 67.6137L71.7924 67.4048L71.975 67.3649C74.891 65.181 77.1096 62.0199 78.3438 58.2904C79.5781 54.561 79.7713 50.4347 78.8983 46.4454C78.0253 42.4561 76.1264 38.7872 73.4471 35.9133C70.7678 33.0394 67.4315 31.0926 63.8696 30.3248L63.687 30.3647L63.6372 30.1368C61.5363 26.7125 58.6089 24.0223 55.2335 22.414C51.8581 20.8057 48.1901 20.3533 44.7038 21.1155C41.2175 21.8776 38.0732 23.8192 35.6778 26.689C33.2823 29.5589 31.7459 33.2249 31.2671 37.2132L31.2339 37.4592L31.0514 37.4991C28.1354 39.683 25.9168 42.8441 24.6825 46.5736C23.4483 50.3031 23.2552 54.4292 24.1281 58.4185C25.0011 62.4079 26.9 66.0768 29.5793 68.9507C32.2585 71.8246 35.5949 73.7714 39.1569 74.5392ZM67.4303 72.3371C66.4565 74.4352 65.0833 76.2469 63.4034 77.65C61.7235 79.053 59.776 80.0147 57.6923 80.4703C55.6086 80.9258 53.4371 80.8645 51.3246 80.2905C49.2121 79.7165 47.2076 78.6432 45.4464 77.143C45.2409 76.9647 45.0817 76.7263 44.9878 76.4561C44.8939 76.1859 44.8693 75.8952 44.9168 75.6187C44.9643 75.3421 45.0821 75.0914 45.2559 74.8963C45.4298 74.7011 45.6526 74.5698 45.8977 74.5179C49.2022 73.8117 52.2045 72.037 54.5491 69.4039C54.7254 69.2088 54.9496 69.0771 55.1961 69.0237C55.4374 68.9731 55.6903 69.0005 55.9262 69.1028C59.1525 70.5054 62.6133 70.8663 65.9071 70.1437C66.1538 70.0835 66.415 70.1079 66.6578 70.2141C66.9005 70.3202 67.1142 70.5033 67.2721 70.7404C67.4375 70.9737 67.5415 71.2529 67.5711 71.5434C67.6007 71.8339 67.5546 72.1231 67.4386 72.3751L67.4303 72.3371ZM68.9705 63.4861C69.0102 64.0494 68.8936 64.6029 68.6372 65.0691C68.3808 65.5352 67.9973 65.8909 67.5402 66.0865C66.7719 66.4293 65.9736 66.6904 65.1552 66.8665C61.8439 67.6037 58.344 67.013 55.2446 65.1936C54.9366 65.0139 54.5895 64.9551 54.2607 65.027C53.9318 65.0989 53.6409 65.2971 53.4362 65.5889C51.3864 68.501 48.4731 70.4721 45.1831 71.1728C44.366 71.3555 43.5314 71.4514 42.6901 71.4592C42.1911 71.4736 41.6919 71.3116 41.2614 70.9958C40.8309 70.68 40.4906 70.2259 40.2877 69.6966C39.9529 68.8032 39.682 67.8844 39.4779 66.9493C39.0764 65.1153 38.9412 63.2362 39.0778 61.3871C39.1104 60.9643 39.2305 60.5616 39.4284 60.2109C39.6264 59.8603 39.8967 59.5715 40.2179 59.3673C40.5424 59.1609 40.9095 59.046 41.2898 59.032C41.6701 59.0179 42.0532 59.105 42.4082 59.2864C45.9009 61.0846 49.7448 61.6231 53.3935 60.8255C57.0422 60.0279 60.3101 57.9346 62.7329 54.8432C63.0568 54.4182 63.5009 54.1325 63.9977 54.0296C64.2412 53.9838 64.491 53.9761 64.7402 54.0066C65.1184 54.0535 65.4862 54.2013 65.8132 54.4378C66.1401 54.6743 66.4167 54.9926 66.6199 55.3662C67.5288 56.9833 68.197 58.7475 68.5961 60.5839C68.8073 61.5511 68.9464 62.5323 69.0119 63.5168L68.9705 63.4861ZM42.1784 54.4229C42.0862 53.9868 42.0858 53.538 42.1773 53.1134C42.2687 52.6888 42.4494 52.3005 42.7044 51.9804C44.7143 49.5087 47.3819 47.836 50.3482 47.1875C53.3145 46.5391 56.4372 46.946 59.2959 48.3534C59.6628 48.5379 59.9901 48.8167 60.2504 49.1665C60.5107 49.5163 60.6965 49.9268 60.7921 50.3638C60.8877 50.8007 60.8904 51.2513 60.7999 51.6778C60.7095 52.1042 60.5286 52.4942 60.2722 52.8149C58.2566 55.2772 55.589 56.9433 52.6248 57.5912C49.6607 58.2392 46.5407 57.8383 43.6807 56.4419C43.3232 56.2535 43.0049 55.9756 42.7513 55.6304C42.4977 55.2852 42.3157 54.8822 42.2199 54.4537L42.1784 54.4229ZM66.4313 37.185C66.3655 36.8975 66.3742 36.5993 66.4567 36.3268C66.5391 36.0544 66.6916 35.8196 66.8954 35.6512C67.0456 35.5325 67.2158 35.4481 67.3972 35.4023C67.6982 35.3407 68.0151 35.4057 68.2892 35.5852C70.208 36.8017 71.8957 38.4565 73.2377 40.4372C74.5797 42.4179 75.5445 44.6781 76.0667 47.0644C76.5889 49.4507 76.6562 51.9072 76.264 54.267C75.8718 56.6268 75.0294 58.8346 73.7939 60.7407C73.6533 60.9631 73.4561 61.1308 73.2264 61.2234C72.9966 61.316 72.7442 61.3296 72.4998 61.2623C72.2472 61.1951 72.013 61.0479 71.8253 60.8384C71.6376 60.6289 71.5044 60.366 71.4416 60.0812C70.6223 56.3033 68.8803 52.8064 66.419 49.9991C66.2377 49.7914 66.1092 49.5333 66.0482 49.2545C65.9872 48.9758 65.9962 48.6877 66.0741 48.4233C67.1722 44.8554 67.3306 40.9501 66.5308 37.1632L66.4313 37.185ZM35.6377 32.478C36.61 30.3807 37.9817 28.5695 39.6603 27.1669C41.3389 25.7643 43.2851 24.8029 45.3676 24.3476C47.45 23.8924 49.6202 23.9539 51.7313 24.5281C53.8424 25.1023 55.8454 26.1757 57.6049 27.6758C57.8093 27.853 57.9678 28.0897 58.0619 28.3581C58.156 28.6264 58.1818 28.9153 58.1361 29.1907C58.0905 29.4661 57.9753 29.7165 57.8042 29.9125C57.6331 30.1086 57.4131 30.2421 57.1702 30.2973C53.8657 31.0035 50.8633 32.7782 48.5188 35.4113C48.3465 35.6132 48.1224 35.7498 47.8745 35.804C47.6267 35.8582 47.366 35.8275 47.1251 35.716C43.9046 34.3148 40.4496 33.9527 37.1608 34.6715C36.9158 34.7306 36.6568 34.7074 36.4151 34.6046C36.1734 34.5018 35.9592 34.3239 35.7983 34.0922C35.6374 33.8604 35.5366 33.5848 35.5081 33.2984C35.4796 33.0121 35.5247 32.7271 35.6377 32.478ZM34.0975 41.3291C34.0692 40.7596 34.1959 40.2039 34.4606 39.7369C34.7252 39.27 35.1151 38.9142 35.5775 38.7178C36.3504 38.3894 37.1494 38.1349 37.9666 37.9568C41.2701 37.2234 44.7609 37.8084 47.8565 39.6143C48.1615 39.7931 48.5056 39.8517 48.8316 39.7804C49.1576 39.7092 49.4459 39.5123 49.6484 39.2226C51.7013 36.2825 54.6313 34.2928 57.9429 33.5898C58.7706 33.4071 59.6141 33.3026 60.4649 33.2772C60.9633 33.2733 61.4595 33.4423 61.8867 33.7615C62.314 34.0806 62.6519 34.5346 62.8549 35.0624C63.1952 35.9541 63.4716 36.8717 63.6813 37.8061C64.0856 39.6414 64.2152 41.5233 64.0647 43.372C64.0361 43.7962 63.9178 44.2008 63.7195 44.5521C63.5212 44.9034 63.2487 45.1913 62.9247 45.3917C62.6024 45.5959 62.238 45.7093 61.8605 45.7227C61.4831 45.7362 61.1032 45.6493 60.751 45.469C57.2583 43.6708 53.4144 43.1322 49.7657 43.9299C46.117 44.7275 42.8491 46.8208 40.4263 49.9122C40.1795 50.225 39.8678 50.464 39.5163 50.6099C39.1649 50.7559 38.7833 50.8047 38.4023 50.7525C38.0251 50.701 37.6588 50.5513 37.3325 50.3153C37.0062 50.0793 36.729 49.7634 36.5227 49.3929C35.6263 47.7696 34.9642 46.0056 34.563 44.1715C34.3341 43.2375 34.1729 42.2879 34.0809 41.3327L34.0975 41.3291ZM29.2824 44.1124C29.4631 43.8336 29.729 43.6416 30.033 43.5703C30.2172 43.538 30.4069 43.5437 30.5931 43.5872C30.844 43.6556 31.076 43.8041 31.2609 44.0144C31.4459 44.2248 31.5757 44.4879 31.6346 44.7719C32.4548 48.5524 34.2034 52.0496 36.6738 54.8504C36.8551 55.0581 36.9836 55.3162 37.0446 55.5949C37.1056 55.8737 37.0966 56.1618 37.0186 56.4262C35.9426 59.9953 35.8129 63.8965 36.6449 67.6681C36.7112 67.9488 36.7053 68.2405 36.6279 68.5083C36.5505 68.776 36.4049 69.0084 36.2086 69.1774C36.0124 69.3464 35.7738 69.4448 35.5216 69.4609C35.2694 69.4769 35.0143 69.4099 34.7871 69.2678C32.8683 68.0514 31.1805 66.3966 29.8385 64.4159C28.4965 62.4352 27.5317 60.175 27.0095 57.7887C26.4873 55.4024 26.42 52.9459 26.8122 50.5861C27.2043 48.2263 28.0469 46.0184 29.2824 44.1124Z" fill="#FFF9F0" stroke="#F9E1E0" stroke-width="0.62049"/>
<path d="M39.1022 74.674L39.2847 74.6341L39.4134 74.8248C41.5142 78.2491 44.4416 80.9393 47.817 82.5476C51.1924 84.1559 54.8605 84.6083 58.3469 83.8462C61.8332 83.084 64.9773 81.1425 67.3728 78.2726C69.7682 75.4028 71.3047 71.7367 71.7835 67.7485L71.7378 67.5396L71.9203 67.4997C74.8363 65.3157 77.0549 62.1547 78.2891 58.4252C79.5234 54.6957 79.7166 50.5695 78.8436 46.5802C77.9707 42.5908 76.0717 38.922 73.3924 36.0481C70.7131 33.1742 67.3769 31.2274 63.8149 30.4596L63.6323 30.4995L63.5825 30.2716C61.4816 26.8473 58.5542 24.157 55.1788 22.5488C51.8034 20.9405 48.1355 20.4881 44.6491 21.2502C41.1628 22.0124 38.0185 23.9539 35.6231 26.8238C33.2276 29.6936 31.6912 33.3597 31.2124 37.3479L31.1792 37.5939L30.9967 37.6338C28.0807 39.8178 25.8621 42.9789 24.6278 46.7084C23.3936 50.4378 23.2005 54.564 24.0734 58.5533C24.9464 62.5426 26.8453 66.2115 29.5246 69.0855C32.2038 71.9594 35.5402 73.9062 39.1022 74.674ZM67.3756 72.4719C66.4019 74.57 65.0286 76.3817 63.3487 77.7848C61.6688 79.1878 59.7213 80.1495 57.6376 80.605C55.5539 81.0605 53.3824 80.9993 51.2699 80.4253C49.1574 79.8513 47.1529 78.7779 45.3918 77.2777C45.1862 77.0995 45.027 76.8611 44.9331 76.5909C44.8392 76.3207 44.8146 76.03 44.8621 75.7534C44.9096 75.4769 45.0274 75.2262 45.2013 75.031C45.3751 74.8359 45.5979 74.7045 45.843 74.6526C49.1475 73.9465 52.1499 72.1718 54.4944 69.5386C54.6707 69.3436 54.8949 69.2118 55.1414 69.1585C55.3827 69.1079 55.6356 69.1352 55.8715 69.2376C59.0978 70.6401 62.5586 71.001 65.8524 70.2784C66.0991 70.2182 66.3603 70.2427 66.6031 70.3489C66.8459 70.455 67.0595 70.6381 67.2174 70.8752C67.3828 71.1085 67.4868 71.3876 67.5164 71.6782C67.546 71.9687 67.4999 72.2579 67.3839 72.5099L67.3756 72.4719ZM68.9158 63.6208C68.9555 64.1842 68.8389 64.7376 68.5825 65.2038C68.3261 65.67 67.9426 66.0257 67.4855 66.2212C66.7172 66.5641 65.9189 66.8252 65.1005 67.0012C61.7892 67.7385 58.2894 67.1477 55.1899 65.3283C54.882 65.1486 54.5348 65.0898 54.206 65.1617C53.8771 65.2336 53.5862 65.4319 53.3815 65.7237C51.3317 68.6358 48.4184 70.6069 45.1284 71.3076C44.3114 71.4903 43.4768 71.5861 42.6354 71.594C42.1364 71.6084 41.6372 71.4464 41.2067 71.1306C40.7763 70.8147 40.4359 70.3607 40.233 69.8314C39.8982 68.938 39.6273 68.0191 39.4232 67.0841C39.0217 65.2501 38.8865 63.3709 39.0231 61.5218C39.0557 61.0991 39.1758 60.6963 39.3738 60.3457C39.5717 59.9951 39.842 59.7062 40.1633 59.5021C40.4877 59.2957 40.8548 59.1808 41.2351 59.1668C41.6155 59.1527 41.9985 59.2398 42.3535 59.4211C45.8462 61.2193 49.6901 61.7579 53.3388 60.9603C56.9875 60.1626 60.2554 58.0694 62.6782 54.978C63.0021 54.5529 63.4462 54.2672 63.943 54.1644C64.1866 54.1186 64.4363 54.1109 64.6855 54.1413C65.0637 54.1883 65.4315 54.3361 65.7585 54.5726C66.0854 54.8091 66.362 55.1274 66.5652 55.5009C67.4741 57.118 68.1423 58.8822 68.5414 60.7186C68.7527 61.6859 68.8918 62.6671 68.9572 63.6516L68.9158 63.6208ZM42.1237 54.5577C42.0315 54.1215 42.0311 53.6728 42.1226 53.2482C42.214 52.8236 42.3947 52.4353 42.6497 52.1152C44.6596 49.6434 47.3272 47.9708 50.2935 47.3223C53.2598 46.6739 56.3825 47.0807 59.2413 48.4882C59.6081 48.6726 59.9354 48.9515 60.1957 49.3013C60.456 49.6511 60.6418 50.0616 60.7374 50.4985C60.833 50.9355 60.8357 51.3861 60.7452 51.8125C60.6548 52.239 60.4739 52.6289 60.2176 52.9496C58.2019 55.4119 55.5343 57.078 52.5701 57.726C49.606 58.374 46.4861 57.9731 43.626 56.5767C43.2685 56.3882 42.9502 56.1104 42.6966 55.7651C42.443 55.4199 42.261 55.017 42.1652 54.5884L42.1237 54.5577ZM66.3766 37.3198C66.3108 37.0323 66.3196 36.734 66.402 36.4616C66.4844 36.1892 66.6369 35.9544 66.8407 35.786C66.9909 35.6673 67.1611 35.5828 67.3425 35.537C67.6435 35.4755 67.9604 35.5405 68.2345 35.72C70.1533 36.9365 71.841 38.5912 73.183 40.572C74.525 42.5527 75.4898 44.8129 76.012 47.1992C76.5342 49.5855 76.6015 52.042 76.2093 54.4018C75.8172 56.7616 74.9747 58.9694 73.7392 60.8754C73.5986 61.0978 73.4014 61.2656 73.1717 61.3582C72.9419 61.4508 72.6896 61.4643 72.4451 61.3971C72.1925 61.3298 71.9583 61.1826 71.7706 60.9732C71.5829 60.7637 71.4497 60.5007 71.3869 60.2159C70.5677 56.438 68.8256 52.9411 66.3643 50.1338C66.183 49.9261 66.0545 49.6681 65.9935 49.3893C65.9325 49.1105 65.9415 48.8224 66.0195 48.5581C67.1175 44.9902 67.2759 41.0849 66.4761 37.298L66.3766 37.3198ZM35.583 32.6127C36.5553 30.5154 37.927 28.7043 39.6056 27.3017C41.2842 25.899 43.2305 24.9376 45.3129 24.4824C47.3953 24.0272 49.5655 24.0887 51.6766 24.6629C53.7878 25.237 55.7907 26.3104 57.5502 27.8105C57.7546 27.9878 57.9131 28.2244 58.0072 28.4928C58.1014 28.7612 58.1271 29.0501 58.0814 29.3255C58.0358 29.6008 57.9206 29.8513 57.7495 30.0473C57.5784 30.2433 57.3584 30.3769 57.1155 30.4321C53.811 31.1382 50.8086 32.9129 48.4641 35.5461C48.2918 35.748 48.0677 35.8845 47.8199 35.9387C47.572 35.9929 47.3113 35.9623 47.0705 35.8507C43.8499 34.4495 40.3949 34.0874 37.1061 34.8063C36.8611 34.8654 36.6022 34.8422 36.3604 34.7394C36.1187 34.6366 35.9046 34.4587 35.7436 34.2269C35.5827 33.9952 35.482 33.7196 35.4534 33.4332C35.4249 33.1468 35.47 32.8619 35.583 32.6127ZM34.0428 41.4638C34.0145 40.8943 34.1412 40.3386 34.4059 39.8717C34.6705 39.4047 35.0604 39.049 35.5228 38.8525C36.2957 38.5241 37.0947 38.2696 37.9119 38.0916C41.2154 37.3582 44.7062 37.9432 47.8018 39.7491C48.1068 39.9278 48.4509 39.9865 48.7769 39.9152C49.103 39.8439 49.3912 39.6471 49.5937 39.3573C51.6466 36.4173 54.5766 34.4276 57.8882 33.7246C58.716 33.5419 59.5594 33.4373 60.4102 33.412C60.9086 33.4081 61.4048 33.5771 61.832 33.8962C62.2593 34.2154 62.5972 34.6693 62.8002 35.1972C63.1405 36.0888 63.4169 37.0065 63.6266 37.9408C64.0309 39.7761 64.1605 41.6581 64.01 43.5068C63.9814 43.931 63.8631 44.3356 63.6648 44.6869C63.4665 45.0382 63.194 45.326 62.87 45.5265C62.5477 45.7307 62.1833 45.8441 61.8059 45.8575C61.4284 45.8709 61.0485 45.7841 60.6963 45.6038C57.2036 43.8056 53.3598 43.267 49.711 44.0646C46.0623 44.8623 42.7944 46.9555 40.3717 50.0469C40.1248 50.3598 39.8131 50.5988 39.4617 50.7447C39.1102 50.8906 38.7286 50.9394 38.3476 50.8872C37.9704 50.8358 37.6041 50.6861 37.2778 50.4501C36.9515 50.214 36.6743 49.8982 36.4681 49.5276C35.5716 47.9043 34.9095 46.1404 34.5083 44.3063C34.2795 43.3722 34.1182 42.4227 34.0262 41.4674L34.0428 41.4638ZM29.2277 44.2472C29.4085 43.9684 29.6743 43.7764 29.9783 43.7051C30.1625 43.6728 30.3522 43.6785 30.5384 43.7219C30.7893 43.7904 31.0213 43.9389 31.2062 44.1492C31.3912 44.3595 31.521 44.6227 31.5799 44.9067C32.4001 48.6871 34.1487 52.1843 36.6191 54.9852C36.8004 55.1929 36.9289 55.4509 36.9899 55.7297C37.0509 56.0084 37.0419 56.2966 36.964 56.5609C35.8879 60.13 35.7582 64.0313 36.5902 67.8029C36.6565 68.0836 36.6506 68.3753 36.5732 68.643C36.4958 68.9108 36.3502 69.1432 36.1539 69.3122C35.9577 69.4812 35.7191 69.5796 35.4669 69.5957C35.2147 69.6117 34.9596 69.5446 34.7324 69.4026C32.8136 68.1861 31.1258 66.5314 29.7838 64.5507C28.4418 62.57 27.477 60.3097 26.9548 57.9234C26.4326 55.5371 26.3653 53.0807 26.7575 50.7209C27.1497 48.3611 27.9922 46.1532 29.2277 44.2472Z" fill="#FFFAF9" stroke="#F9E1E0" stroke-width="0.62049"/>
</g>
<defs>
<clipPath id="clip0_959_21657">
<rect width="73.2682" height="78.1528" fill="white" transform="matrix(0.87514 -0.48387 0.47033 0.88249 0.561523 35.7417)"/>
</clipPath>
</defs>
</svg>
