<svg width="100" height="24" viewBox="0 0 100 24" fill="none" xmlns="http://www.w3.org/2000/svg">
<rect width="100" height="24" rx="12" fill="#FEFFFF"/>
<path d="M15.998 4L15.8932 4.36459V14.9441L15.998 15.0512L20.797 12.1484L15.998 4Z" fill="#343434"/>
<path d="M15.9981 4L11.1991 12.1484L15.9981 15.0513V9.91626V4Z" fill="#8C8C8C"/>
<path d="M15.998 15.9811L15.939 16.0548V19.8234L15.998 20L20.7999 13.0797L15.998 15.9811Z" fill="#3C3C3B"/>
<path d="M15.9981 19.9999V15.981L11.1991 13.0796L15.9981 19.9999Z" fill="#8C8C8C"/>
<path d="M15.9982 15.0512L20.7971 12.1484L15.9982 9.91626V15.0512Z" fill="#141414"/>
<path d="M11.1991 12.1484L15.998 15.0512V9.91626L11.1991 12.1484Z" fill="#393939"/>
<path d="M34.508 8.98V11.08H37.328V12.412H34.508V14.632H37.688V16H32.828V7.612H37.688V8.98H34.508ZM41.1707 10.732V13.948C41.1707 14.172 41.2227 14.336 41.3267 14.44C41.4387 14.536 41.6227 14.584 41.8787 14.584H42.6587V16H41.6027C40.1867 16 39.4787 15.312 39.4787 13.936V10.732H38.6867V9.352H39.4787V7.708H41.1707V9.352H42.6587V10.732H41.1707ZM47.6111 9.256C48.1151 9.256 48.5631 9.368 48.9551 9.592C49.3471 9.808 49.6511 10.132 49.8671 10.564C50.0911 10.988 50.2031 11.5 50.2031 12.1V16H48.5231V12.328C48.5231 11.8 48.3911 11.396 48.1271 11.116C47.8631 10.828 47.5031 10.684 47.0471 10.684C46.5831 10.684 46.2151 10.828 45.9431 11.116C45.6791 11.396 45.5471 11.8 45.5471 12.328V16H43.8671V7.12H45.5471V10.18C45.7631 9.892 46.0511 9.668 46.4111 9.508C46.7711 9.34 47.1711 9.256 47.6111 9.256ZM57.9807 12.532C57.9807 12.772 57.9647 12.988 57.9327 13.18H53.0727C53.1127 13.66 53.2807 14.036 53.5767 14.308C53.8727 14.58 54.2367 14.716 54.6687 14.716C55.2927 14.716 55.7367 14.448 56.0007 13.912H57.8127C57.6207 14.552 57.2527 15.08 56.7087 15.496C56.1647 15.904 55.4967 16.108 54.7047 16.108C54.0647 16.108 53.4887 15.968 52.9767 15.688C52.4727 15.4 52.0767 14.996 51.7887 14.476C51.5087 13.956 51.3687 13.356 51.3687 12.676C51.3687 11.988 51.5087 11.384 51.7887 10.864C52.0687 10.344 52.4607 9.944 52.9647 9.664C53.4687 9.384 54.0487 9.244 54.7047 9.244C55.3367 9.244 55.9007 9.38 56.3967 9.652C56.9007 9.924 57.2887 10.312 57.5607 10.816C57.8407 11.312 57.9807 11.884 57.9807 12.532ZM56.2407 12.052C56.2327 11.62 56.0767 11.276 55.7727 11.02C55.4687 10.756 55.0967 10.624 54.6567 10.624C54.2407 10.624 53.8887 10.752 53.6007 11.008C53.3207 11.256 53.1487 11.604 53.0847 12.052H56.2407ZM60.8869 10.384C61.1029 10.032 61.3829 9.756 61.7269 9.556C62.0789 9.356 62.4789 9.256 62.9269 9.256V11.02H62.4829C61.9549 11.02 61.5549 11.144 61.2829 11.392C61.0189 11.64 60.8869 12.072 60.8869 12.688V16H59.2069V9.352H60.8869V10.384ZM70.2385 12.532C70.2385 12.772 70.2225 12.988 70.1905 13.18H65.3305C65.3705 13.66 65.5385 14.036 65.8345 14.308C66.1305 14.58 66.4945 14.716 66.9265 14.716C67.5505 14.716 67.9945 14.448 68.2585 13.912H70.0705C69.8785 14.552 69.5105 15.08 68.9665 15.496C68.4225 15.904 67.7545 16.108 66.9625 16.108C66.3225 16.108 65.7465 15.968 65.2345 15.688C64.7305 15.4 64.3345 14.996 64.0465 14.476C63.7665 13.956 63.6265 13.356 63.6265 12.676C63.6265 11.988 63.7665 11.384 64.0465 10.864C64.3265 10.344 64.7185 9.944 65.2225 9.664C65.7265 9.384 66.3065 9.244 66.9625 9.244C67.5945 9.244 68.1585 9.38 68.6545 9.652C69.1585 9.924 69.5465 10.312 69.8185 10.816C70.0985 11.312 70.2385 11.884 70.2385 12.532ZM68.4985 12.052C68.4905 11.62 68.3345 11.276 68.0305 11.02C67.7265 10.756 67.3545 10.624 66.9145 10.624C66.4985 10.624 66.1465 10.752 65.8585 11.008C65.5785 11.256 65.4065 11.604 65.3425 12.052H68.4985ZM77.7407 9.352V16H76.0487V15.16C75.8327 15.448 75.5487 15.676 75.1967 15.844C74.8527 16.004 74.4767 16.084 74.0687 16.084C73.5487 16.084 73.0887 15.976 72.6887 15.76C72.2887 15.536 71.9727 15.212 71.7407 14.788C71.5167 14.356 71.4047 13.844 71.4047 13.252V9.352H73.0847V13.012C73.0847 13.54 73.2167 13.948 73.4807 14.236C73.7447 14.516 74.1047 14.656 74.5607 14.656C75.0247 14.656 75.3887 14.516 75.6527 14.236C75.9167 13.948 76.0487 13.54 76.0487 13.012V9.352H77.7407ZM87.6543 9.256C88.4703 9.256 89.1263 9.508 89.6223 10.012C90.1263 10.508 90.3783 11.204 90.3783 12.1V16H88.6983V12.328C88.6983 11.808 88.5663 11.412 88.3023 11.14C88.0383 10.86 87.6783 10.72 87.2223 10.72C86.7663 10.72 86.4023 10.86 86.1303 11.14C85.8663 11.412 85.7343 11.808 85.7343 12.328V16H84.0543V12.328C84.0543 11.808 83.9223 11.412 83.6583 11.14C83.3943 10.86 83.0343 10.72 82.5783 10.72C82.1143 10.72 81.7463 10.86 81.4743 11.14C81.2103 11.412 81.0783 11.808 81.0783 12.328V16H79.3983V9.352H81.0783V10.156C81.2943 9.876 81.5703 9.656 81.9063 9.496C82.2503 9.336 82.6263 9.256 83.0343 9.256C83.5543 9.256 84.0183 9.368 84.4263 9.592C84.8343 9.808 85.1503 10.12 85.3743 10.528C85.5903 10.144 85.9023 9.836 86.3103 9.604C86.7263 9.372 87.1743 9.256 87.6543 9.256Z" fill="#0D0522"/>
</svg>
