<svg width="16" height="16" viewBox="0 0 16 16" fill="none" xmlns="http://www.w3.org/2000/svg">
<g clip-path="url(#clip0_2_1072)">
<path d="M5.10548 12.9879L5.14862 12.9783L5.17874 13.0228C5.66984 13.8216 6.35714 14.4474 7.15174 14.819C7.94634 15.1907 8.8117 15.2912 9.63588 15.1075C10.4601 14.9239 11.2051 14.4645 11.7748 13.7888C12.3444 13.1132 12.7124 12.2523 12.8311 11.3175L12.8206 11.2687L12.8638 11.2591C13.5553 10.7433 14.0836 9.99966 14.3804 9.12438C14.6771 8.24911 14.7286 7.28244 14.5282 6.34943C14.3278 5.41642 13.8847 4.55999 13.2562 3.89087C12.6278 3.22176 11.8429 2.77076 11.003 2.59621L10.9599 2.60583L10.9484 2.55254C10.4573 1.75367 9.77003 1.12794 8.97543 0.756276C8.18083 0.384609 7.31549 0.284094 6.49131 0.46775C5.66713 0.651407 4.92204 1.11078 4.3524 1.78645C3.78276 2.46212 3.41478 3.323 3.29606 4.25776L3.28787 4.31542L3.24473 4.32504C2.55317 4.84084 2.02486 5.58446 1.72814 6.45974C1.43142 7.33501 1.37994 8.30165 1.58035 9.23467C1.78075 10.1677 2.22383 11.0241 2.85228 11.6932C3.48072 12.3624 4.26564 12.8133 5.10548 12.9879ZM11.7837 12.4303C11.5508 12.9231 11.224 13.3495 10.8254 13.6805C10.4268 14.0116 9.96566 14.2397 9.47306 14.3495C8.98046 14.4593 8.46789 14.4481 7.96996 14.3168C7.47203 14.1855 7.00032 13.9371 6.58668 13.5884C6.53841 13.5469 6.50115 13.4914 6.47937 13.4282C6.45759 13.3651 6.45219 13.297 6.46381 13.2322C6.47543 13.1673 6.50358 13.1085 6.54491 13.0625C6.58624 13.0165 6.63902 12.9854 6.69695 12.9729C7.47814 12.8026 8.18949 12.3826 8.74678 11.7624C8.78867 11.7165 8.84179 11.6853 8.90006 11.6724C8.9571 11.6602 9.01677 11.6662 9.07233 11.6899C9.83202 12.0136 10.6486 12.093 11.4272 11.9188C11.4856 11.9044 11.5472 11.9097 11.6044 11.9342C11.6615 11.9587 11.7117 12.0013 11.7486 12.0566C11.7874 12.111 11.8115 12.1762 11.8181 12.2442C11.8247 12.3122 11.8134 12.38 11.7856 12.4392L11.7837 12.4303ZM12.16 10.3551C12.1685 10.487 12.1402 10.6168 12.079 10.7263C12.0178 10.8359 11.9268 10.9197 11.8186 10.9662C11.6367 11.0477 11.4479 11.11 11.2544 11.1524C10.4716 11.33 9.64614 11.1968 8.91698 10.7753C8.84454 10.7337 8.76267 10.7204 8.68492 10.7378C8.60718 10.7551 8.53822 10.8019 8.48947 10.8706C8.00138 11.5556 7.31076 12.0216 6.53302 12.1906C6.33986 12.2346 6.14269 12.2582 5.94403 12.2613C5.82622 12.2654 5.70859 12.2282 5.60741 12.1549C5.50623 12.0816 5.42652 11.9758 5.37938 11.8521C5.3016 11.6433 5.23897 11.4285 5.19211 11.2099C5.09994 10.7809 5.0707 10.341 5.10559 9.90776C5.11389 9.8087 5.14282 9.7142 5.19005 9.63179C5.23728 9.54938 5.30152 9.48133 5.37765 9.43305C5.45454 9.38422 5.54137 9.35678 5.63119 9.35292C5.721 9.34907 5.8113 9.3689 5.89486 9.41084C6.71689 9.82681 7.62362 9.94726 8.48619 9.75505C9.34875 9.56284 10.1233 9.06775 10.6997 8.34016C10.7768 8.24013 10.882 8.17256 10.9994 8.14774C11.057 8.13665 11.116 8.13447 11.1748 8.14124C11.264 8.15168 11.3506 8.18575 11.4275 8.24065C11.5043 8.29556 11.5692 8.36969 11.6166 8.45687C11.8289 8.83426 11.9841 9.24645 12.0757 9.67594C12.1242 9.90216 12.1557 10.1318 12.1697 10.3622L12.16 10.3551ZM5.84755 8.27215C5.82641 8.17014 5.82696 8.06504 5.84915 7.96547C5.87135 7.86589 5.91455 7.77468 5.97522 7.69934C6.45326 7.11748 7.08544 6.72178 7.78669 6.56552C8.48794 6.40926 9.22459 6.49993 9.89751 6.82532C9.98386 6.86798 10.0607 6.9328 10.1217 7.01433C10.1826 7.09587 10.2259 7.19174 10.2479 7.29394C10.2698 7.39613 10.2698 7.50165 10.2478 7.60166C10.2259 7.70168 10.1826 7.79327 10.1216 7.86876C9.64224 8.44841 9.01006 8.84257 8.30933 8.99871C7.6086 9.15486 6.87258 9.06559 6.19934 8.74278C6.1152 8.69918 6.04047 8.63457 5.98108 8.5541C5.92169 8.47362 5.87931 8.37952 5.85731 8.27929L5.84755 8.27215ZM11.598 4.19909C11.5829 4.13186 11.5854 4.062 11.6053 3.99807C11.6251 3.93414 11.6615 3.87893 11.7098 3.83919C11.7454 3.81117 11.7857 3.79114 11.8286 3.78014C11.8998 3.76529 11.9745 3.78004 12.0389 3.82167C12.4902 4.10373 12.8863 4.48878 13.2003 4.95068C13.5143 5.41258 13.7389 5.9405 13.8588 6.4986C13.9786 7.0567 13.991 7.63192 13.8951 8.18517C13.7991 8.73842 13.5971 9.25675 13.3027 9.70497C13.2691 9.75726 13.2224 9.79684 13.168 9.81887C13.1136 9.8409 13.054 9.84444 12.9964 9.82906C12.9369 9.81368 12.8818 9.77956 12.8377 9.73077C12.7937 9.68198 12.7627 9.6206 12.7482 9.554C12.5602 8.67042 12.1539 7.85401 11.5768 7.20019C11.5343 7.15181 11.5044 7.09156 11.4904 7.02637C11.4764 6.96117 11.4789 6.89369 11.4977 6.83166C11.762 5.99442 11.805 5.07956 11.6216 4.19385L11.598 4.19909ZM4.33467 3.14229C4.56721 2.64966 4.89365 2.22346 5.29195 1.89248C5.69025 1.56149 6.15112 1.33345 6.64342 1.22375C7.13571 1.11405 7.64797 1.12525 8.14557 1.25659C8.64317 1.38793 9.11453 1.63636 9.52778 1.98509C9.57578 2.02629 9.61288 2.08149 9.63471 2.1442C9.65654 2.20692 9.66221 2.27453 9.65103 2.33909C9.63986 2.40366 9.61231 2.46248 9.57163 2.50865C9.53096 2.55481 9.47883 2.58641 9.42141 2.5997C8.64023 2.76997 7.92888 3.19006 7.37159 3.81021C7.33063 3.85776 7.27753 3.89007 7.21893 3.90313C7.16034 3.91619 7.09884 3.90941 7.04213 3.88363C6.28378 3.56024 5.46862 3.48054 4.69113 3.65377C4.6332 3.66798 4.5721 3.66292 4.51518 3.63921C4.45827 3.61549 4.40795 3.57414 4.37029 3.5201C4.33264 3.46607 4.30924 3.40167 4.30291 3.33464C4.29659 3.26762 4.30763 3.20082 4.33467 3.14229ZM3.95842 5.21751C3.95255 5.08418 3.98326 4.95385 4.04641 4.8441C4.10956 4.73434 4.20211 4.65045 4.31156 4.60376C4.4945 4.5257 4.6835 4.46491 4.87668 4.422C5.65767 4.24534 6.48097 4.37718 7.20923 4.79554C7.28098 4.83696 7.36214 4.85019 7.43921 4.83301C7.51629 4.81584 7.58463 4.7693 7.63285 4.70115C8.12171 4.00955 8.81629 3.53921 9.59914 3.36967C9.79482 3.32565 9.99411 3.29991 10.195 3.29272C10.3127 3.29107 10.4296 3.32991 10.53 3.40402C10.6304 3.47813 10.7095 3.58395 10.7567 3.70727C10.8358 3.9156 10.8997 4.1301 10.9479 4.34862C11.0407 4.77785 11.0686 5.21841 11.0305 5.6516C11.0231 5.75099 10.9946 5.84593 10.9473 5.9285C10.9 6.01108 10.8352 6.07888 10.7584 6.12631C10.6821 6.17462 10.5959 6.20171 10.5067 6.20541C10.4176 6.20911 10.328 6.18933 10.2452 6.14764C9.42312 5.73167 8.51639 5.61122 7.65383 5.80343C6.79126 5.99564 6.01675 6.49073 5.44035 7.21832C5.38162 7.29197 5.30769 7.34839 5.22451 7.38309C5.14132 7.41779 5.05117 7.42978 4.96128 7.41812C4.87231 7.40663 4.78604 7.37211 4.70934 7.31732C4.63264 7.26252 4.56764 7.18896 4.51948 7.10248C4.31016 6.72363 4.15636 6.31149 4.06426 5.88254C4.01156 5.66412 3.97485 5.44198 3.95449 5.21839L3.95842 5.21751ZM2.81764 5.87651C2.86071 5.81094 2.92375 5.76559 2.99563 5.74844C3.03916 5.7406 3.08393 5.74166 3.12782 5.75156C3.18698 5.76722 3.24154 5.80165 3.28489 5.85064C3.32825 5.89962 3.35852 5.96106 3.37202 6.02748C3.56027 6.91166 3.9681 7.72812 4.54736 8.38043C4.58986 8.42881 4.61984 8.48904 4.63384 8.55424C4.64784 8.61944 4.64531 8.68693 4.62652 8.74896C4.36738 9.58644 4.33119 10.5003 4.52224 11.3824C4.53749 11.448 4.53568 11.5164 4.51702 11.5792C4.49836 11.642 4.46366 11.6967 4.41708 11.7365C4.3705 11.7764 4.31404 11.7998 4.25448 11.8039C4.19492 11.8081 4.13479 11.7927 4.08134 11.7598C3.63007 11.4777 3.23396 11.0927 2.91996 10.6308C2.60595 10.1689 2.38138 9.64098 2.2615 9.08288C2.14163 8.52478 2.12925 7.94958 2.2252 7.39633C2.32116 6.84307 2.52322 6.32473 2.81764 5.87651Z" fill="#FFF9F0" stroke="#9835BA" stroke-width="0.13966"/>
<path d="M5.2256 12.969L5.26874 12.9594L5.29886 13.0038C5.78996 13.8027 6.47725 14.4284 7.27186 14.8001C8.06646 15.1718 8.93182 15.2723 9.756 15.0886C10.5802 14.905 11.3252 14.4456 11.8949 13.7699C12.4645 13.0942 12.8325 12.2334 12.9512 11.2986L12.9407 11.2498L12.9839 11.2401C13.6755 10.7243 14.2037 9.98072 14.5005 9.10545C14.7972 8.23017 14.8487 7.26351 14.6483 6.3305C14.4479 5.39749 14.0048 4.54105 13.3763 3.87194C12.7479 3.20282 11.963 2.75183 11.1232 2.57728L11.08 2.58689L11.0685 2.5336C10.5774 1.73473 9.89015 1.10901 9.09555 0.73734C8.30095 0.365673 7.43561 0.265157 6.61143 0.448814C5.78725 0.63247 5.04215 1.09185 4.47252 1.76752C3.90288 2.44318 3.5349 3.30406 3.41617 4.23882L3.40799 4.29649L3.36485 4.3061C2.67329 4.8219 2.14498 5.56553 1.84826 6.4408C1.55154 7.31607 1.50006 8.28272 1.70046 9.21573C1.90087 10.1487 2.34395 11.0052 2.97239 11.6743C3.60084 12.3434 4.38575 12.7944 5.2256 12.969ZM11.9038 12.4114C11.6709 12.9042 11.3442 13.3305 10.9455 13.6616C10.5469 13.9927 10.0858 14.2208 9.59318 14.3306C9.10057 14.4403 8.58801 14.4292 8.09008 14.2979C7.59214 14.1666 7.12044 13.9182 6.70679 13.5695C6.65852 13.528 6.62127 13.4724 6.59949 13.4093C6.57771 13.3461 6.57231 13.2781 6.58392 13.2132C6.59554 13.1484 6.62369 13.0895 6.66503 13.0436C6.70636 12.9976 6.75913 12.9665 6.81707 12.954C7.59825 12.7837 8.30961 12.3636 8.86689 11.7435C8.90879 11.6975 8.96191 11.6663 9.02018 11.6535C9.07722 11.6413 9.13689 11.6473 9.19245 11.6709C9.95214 11.9946 10.7687 12.074 11.5474 11.8999C11.6057 11.8854 11.6673 11.8908 11.7245 11.9153C11.7816 11.9398 11.8318 11.9824 11.8688 12.0377C11.9075 12.092 11.9316 12.1573 11.9382 12.2253C11.9448 12.2933 11.9335 12.3611 11.9057 12.4203L11.9038 12.4114ZM12.2801 10.3361C12.2887 10.468 12.2604 10.5978 12.1992 10.7074C12.138 10.8169 12.0469 10.9008 11.9387 10.9473C11.7568 11.0287 11.568 11.091 11.3745 11.1335C10.5917 11.3111 9.76626 11.1779 9.0371 10.7564C8.96465 10.7147 8.88279 10.7015 8.80504 10.7188C8.72729 10.7361 8.65834 10.783 8.60958 10.8516C8.1215 11.5367 7.43088 12.0026 6.65314 12.1716C6.45998 12.2156 6.2628 12.2393 6.06415 12.2424C5.94634 12.2465 5.8287 12.2093 5.72752 12.136C5.62634 12.0626 5.54664 11.9568 5.4995 11.8331C5.42172 11.6244 5.35909 11.4096 5.31223 11.1909C5.22006 10.762 5.19082 10.3221 5.2257 9.88882C5.23401 9.78977 5.26294 9.69527 5.31017 9.61286C5.3574 9.53044 5.42163 9.4624 5.49776 9.41411C5.57466 9.36528 5.66149 9.33784 5.7513 9.33399C5.84112 9.33013 5.93142 9.34996 6.01498 9.3919C6.83701 9.80788 7.74374 9.92832 8.6063 9.73611C9.46887 9.5439 10.2434 9.04882 10.8198 8.32122C10.8969 8.22119 11.0021 8.15362 11.1196 8.1288C11.1771 8.11772 11.2361 8.11553 11.2949 8.1223C11.3841 8.13274 11.4707 8.16681 11.5476 8.22172C11.6244 8.27662 11.6893 8.35075 11.7367 8.43794C11.949 8.81532 12.1042 9.22751 12.1958 9.65701C12.2443 9.88323 12.2758 10.1128 12.2898 10.3433L12.2801 10.3361ZM5.96766 8.25322C5.94653 8.15121 5.94708 8.04611 5.96927 7.94653C5.99146 7.84695 6.03467 7.75574 6.09533 7.6804C6.57338 7.09854 7.20556 6.70285 7.90681 6.54659C8.60805 6.39032 9.34471 6.48099 10.0176 6.80638C10.104 6.84904 10.1808 6.91386 10.2418 6.9954C10.3028 7.07693 10.346 7.17281 10.368 7.275C10.3899 7.37719 10.3899 7.48271 10.368 7.58273C10.346 7.68274 10.3027 7.77433 10.2418 7.84982C9.76235 8.42947 9.13018 8.82363 8.42945 8.97978C7.72872 9.13593 6.9927 9.04665 6.31946 8.72385C6.23532 8.68024 6.16059 8.61563 6.1012 8.53516C6.04181 8.45469 5.99943 8.36058 5.97743 8.26036L5.96766 8.25322ZM11.7182 4.18016C11.703 4.11292 11.7055 4.04306 11.7254 3.97914C11.7452 3.91521 11.7816 3.85999 11.8299 3.82025C11.8656 3.79223 11.9058 3.7722 11.9487 3.7612C12.0199 3.74635 12.0946 3.7611 12.1591 3.80274C12.6103 4.08479 13.0064 4.46985 13.3204 4.93175C13.6344 5.39364 13.859 5.92156 13.9789 6.47966C14.0988 7.03777 14.1111 7.61298 14.0152 8.16623C13.9192 8.71948 13.7172 9.23781 13.4228 9.68603C13.3893 9.73833 13.3425 9.7779 13.2881 9.79993C13.2337 9.82196 13.1741 9.8255 13.1165 9.81012C13.057 9.79475 13.0019 9.76062 12.9579 9.71183C12.9138 9.66305 12.8828 9.60167 12.8684 9.53506C12.6803 8.65148 12.274 7.83508 11.697 7.18125C11.6545 7.13288 11.6245 7.07262 11.6105 7.00743C11.5965 6.94223 11.599 6.87475 11.6178 6.81272C11.8821 5.97549 11.9251 5.06063 11.7417 4.17491L11.7182 4.18016ZM4.45479 3.12336C4.68733 2.63073 5.01377 2.20452 5.41207 1.87354C5.81037 1.54256 6.27124 1.31452 6.76353 1.20481C7.25583 1.09511 7.76809 1.10631 8.26569 1.23765C8.76329 1.369 9.23464 1.61742 9.6479 1.96615C9.69589 2.00735 9.73299 2.06255 9.75483 2.12526C9.77666 2.18798 9.78233 2.25559 9.77115 2.32016C9.75998 2.38472 9.73243 2.44355 9.69175 2.48971C9.65107 2.53587 9.59895 2.56747 9.54153 2.58076C8.76035 2.75103 8.04899 3.17112 7.49171 3.79128C7.45074 3.83882 7.39765 3.87113 7.33905 3.88419C7.28045 3.89725 7.21896 3.89047 7.16225 3.86469C6.4039 3.5413 5.58874 3.46161 4.81125 3.63484C4.75332 3.64905 4.69222 3.64398 4.6353 3.62027C4.57838 3.59656 4.52807 3.5552 4.49041 3.50117C4.45275 3.44713 4.42935 3.38273 4.42303 3.31571C4.41671 3.24868 4.42775 3.18188 4.45479 3.12336ZM4.07853 5.19858C4.07267 5.06524 4.10337 4.93491 4.16652 4.82516C4.22967 4.71541 4.32223 4.63152 4.43168 4.58482C4.61462 4.50676 4.80362 4.44598 4.9968 4.40306C5.77778 4.2264 6.60108 4.35824 7.32935 4.77661C7.4011 4.81803 7.48226 4.83125 7.55933 4.81408C7.6364 4.7969 7.70475 4.75036 7.75296 4.68221C8.24183 3.99061 8.93641 3.52027 9.71926 3.35073C9.91494 3.30672 10.1142 3.28098 10.3151 3.27378C10.4328 3.27213 10.5497 3.31098 10.6501 3.38509C10.7505 3.4592 10.8297 3.56501 10.8768 3.68834C10.9559 3.89666 11.0198 4.11117 11.068 4.32969C11.1609 4.75891 11.1888 5.19947 11.1506 5.63266C11.1432 5.73206 11.1147 5.82699 11.0674 5.90957C11.0201 5.99214 10.9553 6.05995 10.8786 6.10737C10.8022 6.15568 10.716 6.18277 10.6269 6.18648C10.5377 6.19018 10.4482 6.1704 10.3653 6.1287C9.54324 5.71273 8.63651 5.59229 7.77394 5.7845C6.91138 5.97671 6.13686 6.47179 5.56046 7.19938C5.50173 7.27303 5.42781 7.32946 5.34462 7.36416C5.26144 7.39885 5.17129 7.41084 5.0814 7.39918C4.99242 7.38769 4.90616 7.35318 4.82946 7.29838C4.75276 7.24359 4.68776 7.17002 4.6396 7.08354C4.43027 6.7047 4.27647 6.29255 4.18438 5.8636C4.13168 5.64518 4.09497 5.42304 4.07461 5.19945L4.07853 5.19858ZM2.93776 5.85757C2.98083 5.79201 3.04387 5.74665 3.11575 5.7295C3.15927 5.72167 3.20405 5.72273 3.24794 5.73262C3.3071 5.74829 3.36166 5.78271 3.40501 5.8317C3.44837 5.88069 3.47864 5.94212 3.49214 6.00855C3.68039 6.89272 4.08822 7.70918 4.66748 8.36149C4.70998 8.40987 4.73995 8.47011 4.75396 8.5353C4.76796 8.6005 4.76542 8.668 4.74664 8.73003C4.4875 9.5675 4.45131 10.4814 4.64235 11.3635C4.6576 11.4291 4.65579 11.4974 4.63713 11.5602C4.61848 11.6231 4.58378 11.6777 4.5372 11.7176C4.49062 11.7575 4.43416 11.7809 4.3746 11.785C4.31504 11.7891 4.25491 11.7738 4.20146 11.7409C3.75018 11.4588 3.35408 11.0738 3.04007 10.6119C2.72607 10.15 2.5015 9.62205 2.38162 9.06394C2.26174 8.50584 2.24936 7.93064 2.34532 7.37739C2.44128 6.82414 2.64334 6.30579 2.93776 5.85757Z" fill="#FFF9F0" stroke="#9835BA" stroke-width="0.13966"/>
<path d="M5.34584 12.95L5.38898 12.9404L5.4191 12.9849C5.9102 13.7838 6.59749 14.4095 7.3921 14.7812C8.1867 15.1528 9.05206 15.2533 9.87624 15.0697C10.7004 14.886 11.4455 14.4266 12.0151 13.751C12.5848 13.0753 12.9527 12.2144 13.0715 11.2797L13.061 11.2308L13.1041 11.2212C13.7957 10.7054 14.324 9.96178 14.6207 9.08651C14.9174 8.21124 14.9689 7.24457 14.7685 6.31156C14.5681 5.37855 14.125 4.52211 13.4966 3.853C12.8681 3.18389 12.0832 2.73289 11.2434 2.55834L11.2002 2.56796L11.1888 2.51466C10.6977 1.7158 10.0104 1.09007 9.21579 0.718404C8.42119 0.346737 7.55585 0.246221 6.73167 0.429878C5.90749 0.613534 5.16239 1.07291 4.59276 1.74858C4.02312 2.42425 3.65514 3.28513 3.53641 4.21988L3.52823 4.27755L3.48509 4.28716C2.79353 4.80297 2.26522 5.54659 1.9685 6.42186C1.67178 7.29714 1.6203 8.26378 1.8207 9.19679C2.02111 10.1298 2.46419 10.9863 3.09263 11.6554C3.72108 12.3245 4.50599 12.7755 5.34584 12.95ZM12.0241 12.3924C11.7912 12.8852 11.4644 13.3116 11.0658 13.6427C10.6672 13.9738 10.206 14.2019 9.71341 14.3116C9.22081 14.4214 8.70825 14.4103 8.21032 14.279C7.71238 14.1477 7.24068 13.8993 6.82703 13.5505C6.77876 13.5091 6.74151 13.4535 6.71973 13.3903C6.69795 13.3272 6.69255 13.2591 6.70416 13.1943C6.71578 13.1295 6.74393 13.0706 6.78527 13.0246C6.8266 12.9787 6.87937 12.9476 6.93731 12.935C7.71849 12.7648 8.42984 12.3447 8.98713 11.7245C9.02902 11.6786 9.08215 11.6474 9.14042 11.6345C9.19746 11.6223 9.25713 11.6284 9.31269 11.652C10.0724 11.9757 10.8889 12.0551 11.6676 11.881C11.7259 11.8665 11.7875 11.8719 11.8447 11.8964C11.9019 11.9209 11.9521 11.9634 11.989 12.0187C12.0277 12.0731 12.0519 12.1383 12.0585 12.2063C12.065 12.2743 12.0537 12.3421 12.026 12.4013L12.0241 12.3924ZM12.4003 10.3172C12.4089 10.4491 12.3806 10.5789 12.3194 10.6884C12.2582 10.798 12.1671 10.8819 12.0589 10.9284C11.8771 11.0098 11.6882 11.0721 11.4947 11.1146C10.7119 11.2921 9.8865 11.159 9.15734 10.7374C9.08489 10.6958 9.00303 10.6826 8.92528 10.6999C8.84753 10.7172 8.77858 10.7641 8.72982 10.8327C8.24174 11.5178 7.55112 11.9837 6.77338 12.1527C6.58022 12.1967 6.38304 12.2204 6.18439 12.2234C6.06658 12.2276 5.94894 12.1904 5.84776 12.117C5.74658 12.0437 5.66688 11.9379 5.61973 11.8142C5.54196 11.6055 5.47933 11.3907 5.43247 11.172C5.3403 10.7431 5.31106 10.3032 5.34594 9.86989C5.35425 9.77083 5.38318 9.67633 5.43041 9.59392C5.47764 9.51151 5.54187 9.44346 5.618 9.39518C5.6949 9.34635 5.78173 9.3189 5.87154 9.31505C5.96136 9.3112 6.05166 9.33103 6.13522 9.37297C6.95725 9.78894 7.86398 9.90939 8.72654 9.71718C9.58911 9.52497 10.3636 9.02988 10.94 8.30229C11.0171 8.20225 11.1224 8.13469 11.2398 8.10987C11.2974 8.09878 11.3563 8.0966 11.4151 8.10337C11.5043 8.1138 11.591 8.14788 11.6678 8.20278C11.7447 8.25768 11.8095 8.33182 11.857 8.419C12.0692 8.79638 12.2245 9.20857 12.3161 9.63807C12.3646 9.86429 12.396 10.0939 12.4101 10.3244L12.4003 10.3172ZM6.0879 8.23428C6.06677 8.13227 6.06731 8.02717 6.08951 7.92759C6.1117 7.82801 6.15491 7.73681 6.21557 7.66147C6.69362 7.07961 7.3258 6.68391 8.02705 6.52765C8.72829 6.37139 9.46495 6.46205 10.1379 6.78744C10.2242 6.83011 10.3011 6.89492 10.362 6.97646C10.423 7.058 10.4663 7.15387 10.4882 7.25606C10.5102 7.35826 10.5102 7.46378 10.4882 7.56379C10.4662 7.66381 10.423 7.75539 10.362 7.83088C9.88259 8.41054 9.25042 8.80469 8.54969 8.96084C7.84896 9.11699 7.11294 9.02771 6.4397 8.70491C6.35556 8.66131 6.28083 8.5967 6.22144 8.51622C6.16205 8.43575 6.11967 8.34165 6.09767 8.24142L6.0879 8.23428ZM11.8384 4.16122C11.8233 4.09399 11.8258 4.02413 11.8456 3.9602C11.8655 3.89627 11.9018 3.84105 11.9502 3.80132C11.9858 3.7733 12.0261 3.75327 12.069 3.74227C12.1401 3.72741 12.2148 3.74216 12.2793 3.7838C12.7306 4.06585 13.1267 4.45091 13.4407 4.91281C13.7547 5.37471 13.9792 5.90263 14.0991 6.46073C14.219 7.01883 14.2314 7.59405 14.1354 8.1473C14.0395 8.70055 13.8374 9.21887 13.543 9.6671C13.5095 9.71939 13.4627 9.75897 13.4083 9.78099C13.354 9.80302 13.2944 9.80657 13.2368 9.79119C13.1772 9.77581 13.1221 9.74168 13.0781 9.6929C13.0341 9.64411 13.003 9.58273 12.9886 9.51613C12.8006 8.63254 12.3943 7.81614 11.8172 7.16232C11.7747 7.11394 11.7447 7.05369 11.7307 6.98849C11.7167 6.9233 11.7192 6.85581 11.738 6.79378C12.0024 5.95655 12.0453 5.04169 11.8619 4.15598L11.8384 4.16122ZM4.57503 3.10442C4.80757 2.61179 5.13401 2.18559 5.53231 1.8546C5.9306 1.52362 6.39147 1.29558 6.88377 1.18588C7.37607 1.07618 7.88833 1.08737 8.38593 1.21872C8.88353 1.35006 9.35488 1.59849 9.76814 1.94721C9.81613 1.98841 9.85323 2.04361 9.87507 2.10633C9.8969 2.16904 9.90256 2.23666 9.89139 2.30122C9.88022 2.36578 9.85267 2.42461 9.81199 2.47077C9.77131 2.51694 9.71919 2.54854 9.66177 2.56183C8.88059 2.7321 8.16923 3.15218 7.61195 3.77234C7.57098 3.81988 7.51789 3.8522 7.45929 3.86526C7.40069 3.87831 7.3392 3.87153 7.28249 3.84576C6.52414 3.52236 5.70898 3.44267 4.93148 3.6159C4.87356 3.63011 4.81246 3.62505 4.75554 3.60133C4.69862 3.57762 4.64831 3.53626 4.61065 3.48223C4.57299 3.4282 4.54959 3.36379 4.54327 3.29677C4.53695 3.22974 4.54799 3.16294 4.57503 3.10442ZM4.19877 5.17964C4.19291 5.04631 4.22361 4.91598 4.28676 4.80622C4.34991 4.69647 4.44247 4.61258 4.55192 4.56588C4.73486 4.48783 4.92386 4.42704 5.11704 4.38413C5.89802 4.20747 6.72132 4.33931 7.44959 4.75767C7.52134 4.79909 7.6025 4.81231 7.67957 4.79514C7.75664 4.77796 7.82499 4.73143 7.8732 4.66327C8.36206 3.97167 9.05665 3.50134 9.8395 3.3318C10.0352 3.28778 10.2345 3.26204 10.4354 3.25485C10.553 3.25319 10.6699 3.29204 10.7704 3.36615C10.8708 3.44026 10.9499 3.54608 10.9971 3.6694C11.0761 3.87773 11.1401 4.09223 11.1883 4.31075C11.2811 4.73998 11.309 5.18054 11.2708 5.61373C11.2635 5.71312 11.235 5.80806 11.1876 5.89063C11.1403 5.9732 11.0756 6.04101 10.9988 6.08843C10.9224 6.13675 10.8362 6.16384 10.7471 6.16754C10.658 6.17124 10.5684 6.15146 10.4855 6.10977C9.66348 5.69379 8.75675 5.57335 7.89418 5.76556C7.03162 5.95777 6.2571 6.45286 5.6807 7.18045C5.62197 7.2541 5.54805 7.31052 5.46486 7.34522C5.38168 7.37991 5.29152 7.39191 5.20164 7.38025C5.11266 7.36875 5.0264 7.33424 4.9497 7.27945C4.873 7.22465 4.80799 7.15108 4.75984 7.06461C4.55051 6.68576 4.39671 6.27362 4.30462 5.84467C4.25192 5.62624 4.21521 5.4041 4.19485 5.18052L4.19877 5.17964ZM3.05799 5.83863C3.10107 5.77307 3.16411 5.72771 3.23599 5.71057C3.27951 5.70273 3.32429 5.70379 3.36818 5.71368C3.42734 5.72935 3.48189 5.76378 3.52525 5.81276C3.56861 5.86175 3.59888 5.92319 3.61238 5.98961C3.80062 6.87379 4.20846 7.69025 4.78772 8.34256C4.83022 8.39093 4.86019 8.45117 4.8742 8.51637C4.8882 8.58156 4.88566 8.64906 4.86688 8.71109C4.60774 9.54857 4.57155 10.4624 4.76259 11.3445C4.77784 11.4102 4.77603 11.4785 4.75737 11.5413C4.73872 11.6041 4.70402 11.6588 4.65744 11.6987C4.61086 11.7385 4.5544 11.7619 4.49484 11.7661C4.43527 11.7702 4.37515 11.7549 4.3217 11.7219C3.87042 11.4399 3.47432 11.0548 3.16031 10.5929C2.84631 10.131 2.62174 9.60311 2.50186 9.04501C2.38198 8.48691 2.3696 7.9117 2.46556 7.35845C2.56152 6.8052 2.76358 6.28686 3.05799 5.83863Z" fill="#FFF9F0" stroke="#9835BA" stroke-width="0.13966"/>
<path d="M5.46595 12.931L5.50909 12.9214L5.53922 12.9658C6.03032 13.7647 6.71761 14.3904 7.51221 14.7621C8.30681 15.1338 9.17217 15.2343 9.99635 15.0506C10.8205 14.867 11.5656 14.4076 12.1352 13.7319C12.7049 13.0563 13.0729 12.1954 13.1916 11.2606L13.1811 11.2118L13.2243 11.2022C13.9158 10.6864 14.4441 9.94274 14.7408 9.06747C15.0375 8.19219 15.089 7.22553 14.8886 6.29252C14.6882 5.35951 14.2451 4.50307 13.6167 3.83396C12.9882 3.16484 12.2034 2.71385 11.3635 2.5393L11.3203 2.54891L11.3089 2.49562C10.8178 1.69675 10.1305 1.07103 9.3359 0.699361C8.5413 0.327694 7.67597 0.227178 6.85179 0.410835C6.02761 0.594491 5.28251 1.05387 4.71287 1.72954C4.14323 2.4052 3.77526 3.26608 3.65653 4.20084L3.64835 4.25851L3.60521 4.26812C2.91365 4.78392 2.38534 5.52755 2.08862 6.40282C1.79189 7.27809 1.74041 8.24474 1.94082 9.17775C2.14123 10.1108 2.5843 10.9672 3.21275 11.6363C3.8412 12.3054 4.62611 12.7564 5.46595 12.931ZM12.1442 12.3734C11.9113 12.8662 11.5845 13.2925 11.1859 13.6236C10.7873 13.9547 10.3261 14.1828 9.83353 14.2926C9.34093 14.4024 8.82836 14.3912 8.33043 14.2599C7.8325 14.1286 7.36079 13.8802 6.94715 13.5315C6.89888 13.49 6.86163 13.4344 6.83985 13.3713C6.81807 13.3081 6.81266 13.2401 6.82428 13.1753C6.8359 13.1104 6.86405 13.0515 6.90538 13.0056C6.94672 12.9596 6.99949 12.9285 7.05743 12.916C7.83861 12.7457 8.54996 12.3256 9.10725 11.7055C9.14914 11.6595 9.20226 11.6284 9.26053 11.6155C9.31758 11.6033 9.37725 11.6093 9.43281 11.6329C10.1925 11.9566 11.009 12.036 11.7877 11.8619C11.846 11.8475 11.9077 11.8528 11.9648 11.8773C12.022 11.9018 12.0722 11.9444 12.1091 11.9997C12.1478 12.0541 12.172 12.1193 12.1786 12.1873C12.1851 12.2553 12.1738 12.3231 12.1461 12.3823L12.1442 12.3734ZM12.5204 10.2982C12.529 10.4301 12.5007 10.5598 12.4395 10.6694C12.3783 10.779 12.2873 10.8628 12.1791 10.9093C11.9972 10.9907 11.8083 11.0531 11.6149 11.0955C10.8321 11.2731 10.0066 11.1399 9.27746 10.7184C9.20501 10.6768 9.12315 10.6635 9.0454 10.6808C8.96765 10.6982 8.8987 10.745 8.84994 10.8137C8.36186 11.4987 7.67124 11.9647 6.8935 12.1336C6.70034 12.1776 6.50316 12.2013 6.30451 12.2044C6.18669 12.2085 6.06906 12.1713 5.96788 12.098C5.8667 12.0247 5.787 11.9188 5.73985 11.7952C5.66207 11.5864 5.59944 11.3716 5.55259 11.1529C5.46041 10.724 5.43117 10.2841 5.46606 9.85084C5.47437 9.75179 5.5033 9.65729 5.55053 9.57488C5.59775 9.49247 5.66199 9.42442 5.73812 9.37613C5.81502 9.32731 5.90185 9.29986 5.99166 9.29601C6.08147 9.29215 6.17178 9.31199 6.25533 9.35393C7.07737 9.7699 7.9841 9.89034 8.84666 9.69813C9.70922 9.50592 10.4837 9.01084 11.0601 8.28324C11.1372 8.18321 11.2425 8.11565 11.3599 8.09082C11.4175 8.07974 11.4765 8.07755 11.5353 8.08433C11.6245 8.09476 11.7111 8.12883 11.7879 8.18374C11.8648 8.23864 11.9296 8.31277 11.9771 8.39996C12.1894 8.77734 12.3446 9.18953 12.4362 9.61903C12.4847 9.84525 12.5161 10.0748 12.5302 10.3053L12.5204 10.2982ZM6.20802 8.21524C6.18689 8.11323 6.18743 8.00813 6.20963 7.90855C6.23182 7.80897 6.27503 7.71777 6.33569 7.64243C6.81373 7.06056 7.44592 6.66487 8.14716 6.50861C8.84841 6.35234 9.58506 6.44301 10.258 6.7684C10.3443 6.81106 10.4212 6.87588 10.4822 6.95742C10.5431 7.03895 10.5864 7.13483 10.6083 7.23702C10.6303 7.33921 10.6303 7.44473 10.6083 7.54475C10.5864 7.64476 10.5431 7.73635 10.4821 7.81184C10.0027 8.3915 9.37053 8.78565 8.6698 8.9418C7.96907 9.09795 7.23306 9.00867 6.55982 8.68587C6.47568 8.64226 6.40094 8.57765 6.34155 8.49718C6.28217 8.41671 6.23979 8.3226 6.21778 8.22238L6.20802 8.21524ZM11.9585 4.14218C11.9434 4.07494 11.9459 4.00508 11.9657 3.94116C11.9856 3.87723 12.0219 3.82201 12.0703 3.78227C12.1059 3.75425 12.1462 3.73422 12.1891 3.72322C12.2603 3.70837 12.335 3.72312 12.3994 3.76476C12.8507 4.04681 13.2468 4.43187 13.5608 4.89377C13.8748 5.35566 14.0994 5.88358 14.2192 6.44168C14.3391 6.99979 14.3515 7.575 14.2555 8.12825C14.1596 8.6815 13.9575 9.19983 13.6631 9.64805C13.6296 9.70035 13.5828 9.73992 13.5285 9.76195C13.4741 9.78398 13.4145 9.78753 13.3569 9.77214C13.2973 9.75677 13.2422 9.72264 13.1982 9.67385C13.1542 9.62507 13.1231 9.56369 13.1087 9.49708C12.9207 8.6135 12.5144 7.7971 11.9373 7.14327C11.8948 7.0949 11.8648 7.03465 11.8508 6.96945C11.8368 6.90425 11.8394 6.83677 11.8581 6.77474C12.1225 5.93751 12.1655 5.02265 11.982 4.13693L11.9585 4.14218ZM4.69515 3.08538C4.92769 2.59275 5.25413 2.16654 5.65243 1.83556C6.05072 1.50458 6.51159 1.27654 7.00389 1.16684C7.49619 1.05713 8.00844 1.06833 8.50605 1.19967C9.00365 1.33102 9.475 1.57945 9.88826 1.92817C9.93625 1.96937 9.97335 2.02457 9.99518 2.08728C10.017 2.15 10.0227 2.21762 10.0115 2.28218C10.0003 2.34674 9.97278 2.40557 9.93211 2.45173C9.89143 2.49789 9.83931 2.52949 9.78188 2.54278C9.0007 2.71305 8.28935 3.13314 7.73206 3.7533C7.6911 3.80084 7.63801 3.83316 7.57941 3.84621C7.52081 3.85927 7.45932 3.85249 7.4026 3.82671C6.64425 3.50332 5.8291 3.42363 5.0516 3.59686C4.99368 3.61107 4.93258 3.60601 4.87566 3.58229C4.81874 3.55858 4.76843 3.51722 4.73077 3.46319C4.69311 3.40915 4.66971 3.34475 4.66339 3.27773C4.65707 3.2107 4.6681 3.1439 4.69515 3.08538ZM4.31889 5.1606C4.31302 5.02726 4.34373 4.89693 4.40688 4.78718C4.47003 4.67743 4.56258 4.59354 4.67204 4.54684C4.85497 4.46879 5.04397 4.408 5.23716 4.36508C6.01814 4.18842 6.84144 4.32026 7.56971 4.73863C7.64146 4.78005 7.72262 4.79327 7.79969 4.7761C7.87676 4.75892 7.9451 4.71238 7.99332 4.64423C8.48218 3.95263 9.17677 3.4823 9.95961 3.31275C10.1553 3.26874 10.3546 3.243 10.5555 3.2358C10.6732 3.23415 10.7901 3.273 10.8905 3.34711C10.9909 3.42122 11.07 3.52704 11.1172 3.65036C11.1962 3.85868 11.2602 4.07319 11.3084 4.29171C11.4012 4.72093 11.4291 5.1615 11.3909 5.59469C11.3836 5.69408 11.3551 5.78902 11.3078 5.87159C11.2604 5.95416 11.1957 6.02197 11.1189 6.06939C11.0425 6.1177 10.9563 6.14479 10.8672 6.1485C10.7781 6.1522 10.6885 6.13242 10.6056 6.09072C9.78359 5.67475 8.87686 5.55431 8.0143 5.74652C7.15174 5.93873 6.37722 6.43381 5.80082 7.1614C5.74209 7.23505 5.66817 7.29148 5.58498 7.32618C5.50179 7.36087 5.41164 7.37287 5.32175 7.3612C5.23278 7.34971 5.14652 7.3152 5.06982 7.2604C4.99312 7.20561 4.92811 7.13204 4.87995 7.04557C4.67063 6.66672 4.51683 6.25457 4.42473 5.82563C4.37203 5.6072 4.33532 5.38506 4.31496 5.16147L4.31889 5.1606ZM3.17811 5.81959C3.22118 5.75403 3.28422 5.70867 3.3561 5.69153C3.39963 5.68369 3.44441 5.68475 3.4883 5.69464C3.54745 5.71031 3.60201 5.74474 3.64537 5.79372C3.68873 5.84271 3.719 5.90414 3.7325 5.97057C3.92074 6.85474 4.32858 7.6712 4.90784 8.32352C4.95034 8.37189 4.98031 8.43213 4.99431 8.49732C5.00832 8.56252 5.00578 8.63002 4.987 8.69205C4.72786 9.52953 4.69167 10.4434 4.88271 11.3255C4.89796 11.3911 4.89615 11.4594 4.87749 11.5223C4.85883 11.5851 4.82414 11.6397 4.77756 11.6796C4.73098 11.7195 4.67452 11.7429 4.61496 11.747C4.55539 11.7511 4.49526 11.7358 4.44182 11.7029C3.99054 11.4208 3.59444 11.0358 3.28043 10.5739C2.96642 10.112 2.74186 9.58407 2.62198 9.02596C2.5021 8.46786 2.48972 7.89266 2.58568 7.33941C2.68163 6.78616 2.88369 6.26781 3.17811 5.81959Z" fill="#FFF9F0" stroke="#9835BA" stroke-width="0.13966"/>
<path d="M5.58619 12.912L5.62933 12.9023L5.65946 12.9468C6.15056 13.7457 6.83785 14.3714 7.63245 14.7431C8.42705 15.1147 9.29241 15.2153 10.1166 15.0316C10.9408 14.8479 11.6858 14.3886 12.2555 13.7129C12.8251 13.0372 13.1931 12.1764 13.3118 11.2416L13.3013 11.1928L13.3445 11.1831C14.0361 10.6673 14.5643 9.92371 14.8611 9.04844C15.1578 8.17317 15.2093 7.2065 15.0089 6.27349C14.8085 5.34048 14.3654 4.48404 13.7369 3.81493C13.1085 3.14582 12.3236 2.69482 11.4838 2.52027L11.4406 2.52989L11.4291 2.47659C10.938 1.67773 10.2507 1.052 9.45614 0.680333C8.66154 0.308666 7.79621 0.208151 6.97203 0.391807C6.14785 0.575464 5.40275 1.03484 4.83311 1.71051C4.26347 2.38618 3.8955 3.24705 3.77677 4.18181L3.76859 4.23948L3.72545 4.24909C3.03389 4.7649 2.50558 5.50852 2.20885 6.38379C1.91213 7.25907 1.86065 8.22571 2.06106 9.15872C2.26147 10.0917 2.70454 10.9482 3.33299 11.6173C3.96144 12.2864 4.74635 12.7374 5.58619 12.912ZM12.2644 12.3544C12.0315 12.8472 11.7047 13.2735 11.3061 13.6046C10.9075 13.9357 10.4464 14.1638 9.95377 14.2736C9.46117 14.3833 8.9486 14.3722 8.45067 14.2409C7.95274 14.1096 7.48103 13.8612 7.06739 13.5124C7.01912 13.471 6.98186 13.4154 6.96009 13.3523C6.93831 13.2891 6.9329 13.2211 6.94452 13.1562C6.95614 13.0914 6.98429 13.0325 7.02562 12.9865C7.06695 12.9406 7.11973 12.9095 7.17767 12.897C7.95885 12.7267 8.6702 12.3066 9.22749 11.6865C9.26938 11.6405 9.3225 11.6093 9.38077 11.5965C9.43782 11.5843 9.49749 11.5903 9.55305 11.6139C10.3127 11.9376 11.1293 12.017 11.908 11.8429C11.9663 11.8284 12.0279 11.8338 12.0851 11.8583C12.1422 11.8828 12.1924 11.9254 12.2294 11.9806C12.2681 12.035 12.2922 12.1003 12.2988 12.1683C12.3054 12.2363 12.2941 12.3041 12.2663 12.3633L12.2644 12.3544ZM12.6407 10.2791C12.6493 10.411 12.621 10.5408 12.5598 10.6504C12.4986 10.7599 12.4075 10.8438 12.2993 10.8903C12.1174 10.9717 11.9286 11.034 11.7351 11.0765C10.9523 11.2541 10.1269 11.1209 9.39769 10.6994C9.32525 10.6577 9.24338 10.6445 9.16564 10.6618C9.08789 10.6791 9.01894 10.726 8.97018 10.7946C8.48209 11.4797 7.79148 11.9456 7.01374 12.1146C6.82058 12.1586 6.6234 12.1823 6.42475 12.1854C6.30693 12.1895 6.1893 12.1523 6.08812 12.079C5.98694 12.0056 5.90724 11.8998 5.86009 11.7761C5.78231 11.5674 5.71968 11.3526 5.67283 11.1339C5.58065 10.705 5.55141 10.2651 5.5863 9.83182C5.5946 9.73276 5.62354 9.63826 5.67076 9.55585C5.71799 9.47344 5.78223 9.40539 5.85836 9.3571C5.93526 9.30828 6.02209 9.28083 6.1119 9.27698C6.20171 9.27313 6.29201 9.29296 6.37557 9.3349C7.19761 9.75087 8.10434 9.87132 8.9669 9.67911C9.82946 9.4869 10.604 8.99181 11.1804 8.26422C11.2575 8.16418 11.3627 8.09662 11.4802 8.0718C11.5377 8.06071 11.5967 8.05853 11.6555 8.0653C11.7447 8.07573 11.8313 8.10981 11.9082 8.16471C11.985 8.21961 12.0499 8.29375 12.0973 8.38093C12.3096 8.75831 12.4648 9.1705 12.5564 9.6C12.6049 9.82622 12.6364 10.0558 12.6504 10.2863L12.6407 10.2791ZM6.32826 8.19621C6.30713 8.0942 6.30767 7.9891 6.32987 7.88952C6.35206 7.78994 6.39527 7.69874 6.45593 7.6234C6.93397 7.04154 7.56616 6.64584 8.2674 6.48958C8.96865 6.33332 9.7053 6.42398 10.3782 6.74937C10.4646 6.79204 10.5414 6.85685 10.6024 6.93839C10.6634 7.01992 10.7066 7.1158 10.7286 7.21799C10.7505 7.32018 10.7505 7.42571 10.7286 7.52572C10.7066 7.62574 10.6633 7.71732 10.6023 7.79281C10.1229 8.37247 9.49077 8.76662 8.79004 8.92277C8.08931 9.07892 7.3533 8.98964 6.68006 8.66684C6.59592 8.62324 6.52118 8.55863 6.46179 8.47815C6.40241 8.39768 6.36003 8.30358 6.33802 8.20335L6.32826 8.19621ZM12.0787 4.12315C12.0636 4.05592 12.0661 3.98605 12.086 3.92213C12.1058 3.8582 12.1422 3.80298 12.1905 3.76324C12.2261 3.73523 12.2664 3.7152 12.3093 3.7042C12.3805 3.68934 12.4552 3.70409 12.5197 3.74573C12.9709 4.02778 13.367 4.41284 13.681 4.87474C13.995 5.33663 14.2196 5.86455 14.3395 6.42266C14.4594 6.98076 14.4717 7.55597 14.3758 8.10923C14.2798 8.66248 14.0778 9.1808 13.7834 9.62902C13.7499 9.68132 13.7031 9.72089 13.6487 9.74292C13.5943 9.76495 13.5347 9.7685 13.4771 9.75311C13.4176 9.73774 13.3625 9.70361 13.3185 9.65483C13.2744 9.60604 13.2434 9.54466 13.229 9.47806C13.0409 8.59447 12.6346 7.77807 12.0575 7.12424C12.015 7.07587 11.9851 7.01562 11.9711 6.95042C11.9571 6.88523 11.9596 6.81774 11.9784 6.75571C12.2427 5.91848 12.2857 5.00362 12.1023 4.1179L12.0787 4.12315ZM4.81539 3.06635C5.04792 2.57372 5.37437 2.14751 5.77266 1.81653C6.17096 1.48555 6.63183 1.25751 7.12413 1.14781C7.61642 1.03811 8.12868 1.0493 8.62628 1.18065C9.12389 1.31199 9.59524 1.56042 10.0085 1.90914C10.0565 1.95034 10.0936 2.00554 10.1154 2.06826C10.1373 2.13097 10.1429 2.19859 10.1317 2.26315C10.1206 2.32771 10.093 2.38654 10.0523 2.4327C10.0117 2.47887 9.95955 2.51047 9.90212 2.52376C9.12094 2.69403 8.40959 3.11411 7.8523 3.73427C7.81134 3.78181 7.75825 3.81413 7.69965 3.82719C7.64105 3.84024 7.57956 3.83346 7.52284 3.80769C6.76449 3.48429 5.94934 3.4046 5.17184 3.57783C5.11392 3.59204 5.05282 3.58698 4.9959 3.56326C4.93898 3.53955 4.88867 3.49819 4.85101 3.44416C4.81335 3.39013 4.78995 3.32572 4.78363 3.2587C4.77731 3.19167 4.78834 3.12487 4.81539 3.06635ZM4.43913 5.14157C4.43326 5.00824 4.46397 4.87791 4.52712 4.76815C4.59027 4.6584 4.68282 4.57451 4.79228 4.52781C4.97521 4.44976 5.16421 4.38897 5.3574 4.34605C6.13838 4.1694 6.96168 4.30124 7.68995 4.7196C7.7617 4.76102 7.84286 4.77424 7.91993 4.75707C7.997 4.73989 8.06534 4.69336 8.11356 4.6252C8.60242 3.9336 9.29701 3.46327 10.0799 3.29372C10.2755 3.24971 10.4748 3.22397 10.6757 3.21678C10.7934 3.21512 10.9103 3.25397 11.0107 3.32808C11.1111 3.40219 11.1903 3.50801 11.2374 3.63133C11.3165 3.83965 11.3804 4.05416 11.4286 4.27268C11.5214 4.7019 11.5494 5.14247 11.5112 5.57566C11.5038 5.67505 11.4753 5.76999 11.428 5.85256C11.3807 5.93513 11.3159 6.00294 11.2392 6.05036C11.1628 6.09868 11.0766 6.12577 10.9875 6.12947C10.8983 6.13317 10.8087 6.11339 10.7259 6.0717C9.90383 5.65572 8.9971 5.53528 8.13454 5.72749C7.27198 5.9197 6.49746 6.41478 5.92106 7.14238C5.86233 7.21602 5.78841 7.27245 5.70522 7.30715C5.62203 7.34184 5.53188 7.35384 5.44199 7.34218C5.35302 7.33068 5.26676 7.29617 5.19006 7.24137C5.11336 7.18658 5.04835 7.11301 5.00019 7.02654C4.79087 6.64769 4.63707 6.23555 4.54497 5.8066C4.49227 5.58817 4.45556 5.36603 4.4352 5.14245L4.43913 5.14157ZM3.29835 5.80056C3.34142 5.735 3.40446 5.68964 3.47634 5.6725C3.51987 5.66466 3.56465 5.66572 3.60854 5.67561C3.66769 5.69128 3.72225 5.72571 3.76561 5.77469C3.80897 5.82368 3.83923 5.88512 3.85274 5.95154C4.04098 6.83572 4.44882 7.65218 5.02808 8.30449C5.07057 8.35286 5.10055 8.4131 5.11455 8.4783C5.12856 8.54349 5.12602 8.61099 5.10724 8.67302C4.8481 9.5105 4.81191 10.4244 5.00295 11.3065C5.0182 11.3721 5.01639 11.4404 4.99773 11.5032C4.97907 11.5661 4.94438 11.6207 4.8978 11.6606C4.85122 11.7005 4.79476 11.7239 4.73519 11.728C4.67563 11.7321 4.6155 11.7168 4.56206 11.6839C4.11078 11.4018 3.71467 11.0168 3.40067 10.5549C3.08666 10.093 2.8621 9.56504 2.74222 9.00694C2.62234 8.44884 2.60996 7.87363 2.70591 7.32038C2.80187 6.76713 3.00393 6.24879 3.29835 5.80056Z" fill="#FFFAF9" stroke="#9835BA" stroke-width="0.13966"/>
</g>
<defs>
<clipPath id="clip0_2_1072">
<rect width="16" height="16" fill="white"/>
</clipPath>
</defs>
</svg>
