<svg width="79" height="24" viewBox="0 0 79 24" fill="none" xmlns="http://www.w3.org/2000/svg">
<rect width="79" height="24" rx="12" fill="#FEFFFF"/>
<g clip-path="url(#clip0_4_1171)">
<path d="M13.1055 16.9879L13.1486 16.9783L13.1787 17.0228C13.6698 17.8216 14.3571 18.4474 15.1517 18.819C15.9463 19.1907 16.8117 19.2912 17.6359 19.1075C18.4601 18.9239 19.2051 18.4645 19.7748 17.7888C20.3444 17.1132 20.7124 16.2523 20.8311 15.3175L20.8206 15.2687L20.8638 15.2591C21.5553 14.7433 22.0836 13.9997 22.3804 13.1244C22.6771 12.2491 22.7286 11.2824 22.5282 10.3494C22.3278 9.41642 21.8847 8.55999 21.2562 7.89087C20.6278 7.22176 19.8429 6.77076 19.003 6.59621L18.9599 6.60583L18.9484 6.55254C18.4573 5.75367 17.77 5.12794 16.9754 4.75628C16.1808 4.38461 15.3155 4.28409 14.4913 4.46775C13.6671 4.65141 12.922 5.11078 12.3524 5.78645C11.7828 6.46212 11.4148 7.323 11.2961 8.25776L11.2879 8.31542L11.2447 8.32504C10.5532 8.84084 10.0249 9.58446 9.72814 10.4597C9.43142 11.335 9.37994 12.3017 9.58035 13.2347C9.78075 14.1677 10.2238 15.0241 10.8523 15.6932C11.4807 16.3624 12.2656 16.8133 13.1055 16.9879V16.9879ZM19.7837 16.4303C19.5508 16.9231 19.224 17.3495 18.8254 17.6805C18.4268 18.0116 17.9657 18.2397 17.4731 18.3495C16.9805 18.4593 16.4679 18.4481 15.97 18.3168C15.472 18.1855 15.0003 17.9371 14.5867 17.5884C14.5384 17.5469 14.5012 17.4914 14.4794 17.4282C14.4576 17.3651 14.4522 17.297 14.4638 17.2322C14.4754 17.1673 14.5036 17.1085 14.5449 17.0625C14.5862 17.0165 14.639 16.9854 14.697 16.9729V16.9729C15.4781 16.8026 16.1895 16.3826 16.7468 15.7624C16.7887 15.7165 16.8418 15.6853 16.9001 15.6724C16.9571 15.6602 17.0168 15.6662 17.0723 15.6899C17.832 16.0136 18.6486 16.093 19.4272 15.9188V15.9188C19.4856 15.9044 19.5472 15.9097 19.6044 15.9342C19.6615 15.9587 19.7117 16.0013 19.7486 16.0566C19.7874 16.111 19.8115 16.1762 19.8181 16.2442C19.8247 16.3122 19.8134 16.38 19.7856 16.4392L19.7837 16.4303ZM20.16 14.3551C20.1685 14.487 20.1402 14.6168 20.079 14.7263C20.0178 14.8359 19.9268 14.9197 19.8186 14.9662C19.6367 15.0477 19.4479 15.11 19.2544 15.1524C18.4716 15.33 17.6461 15.1968 16.917 14.7753C16.8445 14.7337 16.7627 14.7204 16.6849 14.7378C16.6072 14.7551 16.5382 14.8019 16.4895 14.8706V14.8706C16.0014 15.5556 15.3108 16.0216 14.533 16.1906C14.3399 16.2346 14.1427 16.2582 13.944 16.2613C13.8262 16.2654 13.7086 16.2282 13.6074 16.1549C13.5062 16.0816 13.4265 15.9758 13.3794 15.8521C13.3016 15.6433 13.239 15.4285 13.1921 15.2099C13.0999 14.7809 13.0707 14.341 13.1056 13.9078C13.1139 13.8087 13.1428 13.7142 13.1901 13.6318C13.2373 13.5494 13.3015 13.4813 13.3776 13.433C13.4545 13.3842 13.5414 13.3568 13.6312 13.3529C13.721 13.3491 13.8113 13.3689 13.8949 13.4108C14.7169 13.8268 15.6236 13.9473 16.4862 13.755C17.3488 13.5628 18.1233 13.0678 18.6997 12.3402C18.7768 12.2401 18.882 12.1726 18.9994 12.1477C19.057 12.1367 19.116 12.1345 19.1748 12.1412C19.264 12.1517 19.3506 12.1857 19.4275 12.2407C19.5043 12.2956 19.5692 12.3697 19.6166 12.4569C19.8289 12.8343 19.9841 13.2464 20.0757 13.6759C20.1242 13.9022 20.1557 14.1318 20.1697 14.3622L20.16 14.3551ZM13.8475 12.2722C13.8264 12.1701 13.827 12.065 13.8492 11.9655C13.8713 11.8659 13.9146 11.7747 13.9752 11.6993C14.4533 11.1175 15.0854 10.7218 15.7867 10.5655C16.4879 10.4093 17.2246 10.4999 17.8975 10.8253C17.9839 10.868 18.0607 10.9328 18.1217 11.0143C18.1826 11.0959 18.2259 11.1917 18.2479 11.2939C18.2698 11.3961 18.2698 11.5016 18.2478 11.6017C18.2259 11.7017 18.1826 11.7933 18.1216 11.8688C17.6422 12.4484 17.0101 12.8426 16.3093 12.9987C15.6086 13.1549 14.8726 13.0656 14.1993 12.7428C14.1152 12.6992 14.0405 12.6346 13.9811 12.5541C13.9217 12.4736 13.8793 12.3795 13.8573 12.2793L13.8475 12.2722ZM19.598 8.19909C19.5829 8.13186 19.5854 8.062 19.6053 7.99807C19.6251 7.93414 19.6615 7.87893 19.7098 7.83919C19.7454 7.81117 19.7857 7.79114 19.8286 7.78014C19.8998 7.76529 19.9745 7.78004 20.0389 7.82167C20.4902 8.10373 20.8863 8.48878 21.2003 8.95068C21.5143 9.41258 21.7389 9.9405 21.8588 10.4986C21.9786 11.0567 21.991 11.6319 21.8951 12.1852C21.7991 12.7384 21.5971 13.2567 21.3027 13.705C21.2691 13.7573 21.2224 13.7968 21.168 13.8189C21.1136 13.8409 21.054 13.8444 20.9964 13.8291C20.9369 13.8137 20.8818 13.7796 20.8377 13.7308C20.7937 13.682 20.7627 13.6206 20.7482 13.554C20.5602 12.6704 20.1539 11.854 19.5768 11.2002C19.5343 11.1518 19.5044 11.0916 19.4904 11.0264C19.4764 10.9612 19.4789 10.8937 19.4977 10.8317C19.762 9.99442 19.805 9.07956 19.6216 8.19385L19.598 8.19909ZM12.3347 7.14229C12.5672 6.64966 12.8937 6.22346 13.292 5.89248C13.6902 5.56149 14.1511 5.33345 14.6434 5.22375C15.1357 5.11405 15.648 5.12524 16.1456 5.25659C16.6432 5.38793 17.1145 5.63636 17.5278 5.98509C17.5758 6.02629 17.6129 6.08149 17.6347 6.1442C17.6565 6.20691 17.6622 6.27453 17.651 6.33909C17.6399 6.40366 17.6123 6.46248 17.5716 6.50865C17.531 6.55481 17.4788 6.58641 17.4214 6.5997C16.6402 6.76997 15.9289 7.19006 15.3716 7.81021C15.3306 7.85776 15.2775 7.89007 15.2189 7.90313C15.1603 7.91619 15.0988 7.90941 15.0421 7.88363C14.2838 7.56024 13.4686 7.48054 12.6911 7.65377V7.65377C12.6332 7.66798 12.5721 7.66292 12.5152 7.63921C12.4583 7.61549 12.408 7.57414 12.3703 7.5201C12.3326 7.46607 12.3092 7.40167 12.3029 7.33464C12.2966 7.26762 12.3076 7.20082 12.3347 7.14229V7.14229ZM11.9584 9.21751C11.9526 9.08418 11.9833 8.95385 12.0464 8.8441C12.1096 8.73434 12.2021 8.65045 12.3116 8.60376C12.4945 8.5257 12.6835 8.46491 12.8767 8.422C13.6577 8.24534 14.481 8.37718 15.2092 8.79554C15.281 8.83696 15.3621 8.85019 15.4392 8.83301C15.5163 8.81584 15.5846 8.7693 15.6328 8.70115V8.70115C16.1217 8.00955 16.8163 7.53921 17.5991 7.36967C17.7948 7.32565 17.9941 7.29991 18.195 7.29272C18.3127 7.29107 18.4296 7.32991 18.53 7.40402C18.6304 7.47813 18.7095 7.58395 18.7567 7.70727C18.8358 7.9156 18.8997 8.1301 18.9479 8.34862C19.0407 8.77785 19.0686 9.21841 19.0305 9.6516C19.0231 9.75099 18.9946 9.84593 18.9473 9.9285C18.9 10.0111 18.8352 10.0789 18.7584 10.1263C18.6821 10.1746 18.5959 10.2017 18.5067 10.2054C18.4176 10.2091 18.328 10.1893 18.2452 10.1476C17.4231 9.73167 16.5164 9.61122 15.6538 9.80343C14.7913 9.99564 14.0167 10.4907 13.4403 11.2183C13.3816 11.292 13.3077 11.3484 13.2245 11.3831C13.1413 11.4178 13.0512 11.4298 12.9613 11.4181C12.8723 11.4066 12.786 11.3721 12.7093 11.3173C12.6326 11.2625 12.5676 11.189 12.5195 11.1025C12.3102 10.7236 12.1564 10.3115 12.0643 9.88254C12.0116 9.66412 11.9748 9.44197 11.9545 9.21839L11.9584 9.21751ZM10.8176 9.87651C10.8607 9.81094 10.9238 9.76559 10.9956 9.74844C11.0392 9.7406 11.0839 9.74166 11.1278 9.75156C11.187 9.76722 11.2415 9.80165 11.2849 9.85064C11.3283 9.89962 11.3585 9.96106 11.372 10.0275C11.5603 10.9117 11.9681 11.7281 12.5474 12.3804C12.5899 12.4288 12.6198 12.489 12.6338 12.5542C12.6478 12.6194 12.6453 12.6869 12.6265 12.749C12.3674 13.5864 12.3312 14.5003 12.5222 15.3824C12.5375 15.448 12.5357 15.5164 12.517 15.5792C12.4984 15.642 12.4637 15.6967 12.4171 15.7365C12.3705 15.7764 12.314 15.7998 12.2545 15.8039C12.1949 15.8081 12.1348 15.7927 12.0813 15.7598C11.6301 15.4777 11.234 15.0927 10.92 14.6308C10.6059 14.1689 10.3814 13.641 10.2615 13.0829C10.1416 12.5248 10.1292 11.9496 10.2252 11.3963C10.3212 10.8431 10.5232 10.3247 10.8176 9.87651Z" fill="#FFF9F0" stroke="#9835BA" stroke-width="0.13966"/>
<path d="M13.2256 16.969L13.2687 16.9594L13.2989 17.0038C13.79 17.8027 14.4773 18.4284 15.2719 18.8001C16.0665 19.1718 16.9318 19.2723 17.756 19.0886C18.5802 18.905 19.3252 18.4456 19.8949 17.7699C20.4645 17.0943 20.8325 16.2334 20.9512 15.2986L20.9407 15.2498L20.9839 15.2402C21.6755 14.7244 22.2037 13.9807 22.5005 13.1055C22.7972 12.2302 22.8487 11.2635 22.6483 10.3305C22.4479 9.3975 22.0048 8.54107 21.3763 7.87195C20.7479 7.20284 19.963 6.75184 19.1232 6.57729L19.08 6.58691L19.0685 6.53362C18.5774 5.73475 17.8902 5.10902 17.0955 4.73736C16.3009 4.36569 15.4356 4.26517 14.6114 4.44883C13.7873 4.63249 13.0422 5.09186 12.4725 5.76753C11.9029 6.4432 11.5349 7.30408 11.4162 8.23883L11.408 8.2965L11.3649 8.30612C10.6733 8.82192 10.145 9.56554 9.84826 10.4408C9.55154 11.3161 9.50006 12.2827 9.70046 13.2157C9.90087 14.1488 10.3439 15.0052 10.9724 15.6743C11.6008 16.3434 12.3858 16.7944 13.2256 16.969V16.969ZM19.9038 16.4114C19.6709 16.9042 19.3442 17.3305 18.9455 17.6616C18.5469 17.9927 18.0858 18.2208 17.5932 18.3306C17.1006 18.4404 16.588 18.4292 16.0901 18.2979C15.5921 18.1666 15.1204 17.9182 14.7068 17.5695C14.6585 17.528 14.6213 17.4724 14.5995 17.4093C14.5777 17.3461 14.5723 17.2781 14.5839 17.2133C14.5955 17.1484 14.6237 17.0895 14.665 17.0436C14.7064 16.9976 14.7591 16.9665 14.8171 16.954V16.954C15.5983 16.7837 16.3096 16.3636 16.8669 15.7435C16.9088 15.6975 16.9619 15.6664 17.0202 15.6535C17.0772 15.6413 17.1369 15.6473 17.1924 15.6709C17.9521 15.9946 18.7687 16.074 19.5474 15.8999V15.8999C19.6057 15.8855 19.6673 15.8908 19.7245 15.9153C19.7816 15.9398 19.8318 15.9824 19.8688 16.0377C19.9075 16.0921 19.9316 16.1573 19.9382 16.2253C19.9448 16.2933 19.9335 16.3611 19.9057 16.4203L19.9038 16.4114ZM20.2801 14.3362C20.2887 14.4681 20.2604 14.5978 20.1992 14.7074C20.138 14.817 20.0469 14.9008 19.9387 14.9473C19.7568 15.0287 19.568 15.0911 19.3745 15.1335C18.5917 15.3111 17.7663 15.1779 17.0371 14.7564C16.9647 14.7148 16.8828 14.7015 16.805 14.7188C16.7273 14.7362 16.6583 14.783 16.6096 14.8517V14.8517C16.1215 15.5367 15.4309 16.0027 14.6531 16.1716C14.46 16.2156 14.2628 16.2393 14.0642 16.2424C13.9463 16.2465 13.8287 16.2093 13.7275 16.136C13.6263 16.0627 13.5466 15.9568 13.4995 15.8332C13.4217 15.6244 13.3591 15.4096 13.3122 15.1909C13.2201 14.762 13.1908 14.3221 13.2257 13.8888C13.234 13.7898 13.2629 13.6953 13.3102 13.6129C13.3574 13.5305 13.4216 13.4624 13.4978 13.4141C13.5747 13.3653 13.6615 13.3379 13.7513 13.334C13.8411 13.3301 13.9314 13.35 14.015 13.3919C14.837 13.8079 15.7437 13.9283 16.6063 13.7361C17.4689 13.5439 18.2434 13.0488 18.8198 12.3212C18.8969 12.2212 19.0021 12.1536 19.1196 12.1288C19.1771 12.1177 19.2361 12.1155 19.2949 12.1223C19.3841 12.1328 19.4707 12.1668 19.5476 12.2217C19.6244 12.2766 19.6893 12.3508 19.7367 12.438C19.949 12.8153 20.1042 13.2275 20.1958 13.657C20.2443 13.8832 20.2758 14.1128 20.2898 14.3433L20.2801 14.3362ZM13.9677 12.2532C13.9465 12.1512 13.9471 12.0461 13.9693 11.9465C13.9915 11.847 14.0347 11.7558 14.0953 11.6804C14.5734 11.0986 15.2056 10.7029 15.9068 10.5466C16.6081 10.3903 17.3447 10.481 18.0176 10.8064C18.104 10.8491 18.1808 10.9139 18.2418 10.9954C18.3028 11.0769 18.346 11.1728 18.368 11.275C18.3899 11.3772 18.3899 11.4827 18.368 11.5827C18.346 11.6828 18.3027 11.7743 18.2418 11.8498C17.7624 12.4295 17.1302 12.8236 16.4294 12.9798C15.7287 13.1359 14.9927 13.0467 14.3195 12.7239C14.2353 12.6803 14.1606 12.6156 14.1012 12.5352C14.0418 12.4547 13.9994 12.3606 13.9774 12.2604L13.9677 12.2532ZM19.7182 8.18017C19.703 8.11294 19.7055 8.04308 19.7254 7.97915C19.7452 7.91522 19.7816 7.86001 19.8299 7.82027C19.8656 7.79225 19.9058 7.77222 19.9487 7.76122C20.0199 7.74637 20.0946 7.76112 20.1591 7.80275C20.6103 8.08481 21.0064 8.46986 21.3204 8.93176C21.6344 9.39366 21.859 9.92158 21.9789 10.4797C22.0988 11.0378 22.1111 11.613 22.0152 12.1662C21.9192 12.7195 21.7172 13.2378 21.4228 13.686C21.3893 13.7383 21.3425 13.7779 21.2881 13.7999C21.2337 13.822 21.1741 13.8255 21.1165 13.8101C21.057 13.7948 21.0019 13.7606 20.9579 13.7118C20.9138 13.6631 20.8828 13.6017 20.8684 13.5351C20.6803 12.6515 20.274 11.8351 19.697 11.1813C19.6545 11.1329 19.6245 11.0726 19.6105 11.0074C19.5965 10.9422 19.599 10.8748 19.6178 10.8127C19.8821 9.9755 19.9251 9.06064 19.7417 8.17493L19.7182 8.18017ZM12.4548 7.12337C12.6873 6.63074 13.0138 6.20454 13.4121 5.87356C13.8104 5.54257 14.2712 5.31453 14.7635 5.20483C15.2558 5.09513 15.7681 5.10632 16.2657 5.23767C16.7633 5.36901 17.2346 5.61744 17.6479 5.96617C17.6959 6.00736 17.733 6.06256 17.7548 6.12528C17.7767 6.18799 17.7823 6.25561 17.7712 6.32017C17.76 6.38474 17.7324 6.44356 17.6918 6.48973C17.6511 6.53589 17.599 6.56749 17.5415 6.58078C16.7603 6.75105 16.049 7.17114 15.4917 7.79129C15.4507 7.83884 15.3977 7.87115 15.3391 7.88421C15.2805 7.89727 15.219 7.89049 15.1622 7.86471C14.4039 7.54132 13.5887 7.46162 12.8112 7.63485V7.63485C12.7533 7.64906 12.6922 7.644 12.6353 7.62029C12.5784 7.59657 12.5281 7.55522 12.4904 7.50118C12.4528 7.44715 12.4294 7.38275 12.423 7.31572C12.4167 7.2487 12.4277 7.1819 12.4548 7.12337V7.12337ZM12.0785 9.19859C12.0727 9.06526 12.1034 8.93493 12.1665 8.82517C12.2297 8.71542 12.3222 8.63153 12.4317 8.58484C12.6146 8.50678 12.8036 8.44599 12.9968 8.40308C13.7778 8.22642 14.6011 8.35826 15.3294 8.77662C15.4011 8.81804 15.4823 8.83126 15.5593 8.81409C15.6364 8.79692 15.7047 8.75038 15.753 8.68223V8.68223C16.2418 7.99063 16.9364 7.52029 17.7193 7.35075C17.9149 7.30673 18.1142 7.28099 18.3151 7.2738C18.4328 7.27214 18.5497 7.31099 18.6501 7.3851C18.7505 7.45921 18.8297 7.56503 18.8768 7.68835C18.9559 7.89668 19.0198 8.11118 19.068 8.3297C19.1609 8.75893 19.1888 9.19949 19.1506 9.63268C19.1432 9.73207 19.1147 9.82701 19.0674 9.90958C19.0201 9.99215 18.9553 10.06 18.8786 10.1074C18.8022 10.1557 18.716 10.1828 18.6269 10.1865C18.5377 10.1902 18.4482 10.1704 18.3653 10.1287C17.5432 9.71275 16.6365 9.5923 15.7739 9.78451C14.9114 9.97672 14.1369 10.4718 13.5605 11.1994C13.5017 11.273 13.4278 11.3295 13.3446 11.3642C13.2614 11.3989 13.1713 11.4109 13.0814 11.3992C12.9924 11.3877 12.9062 11.3532 12.8295 11.2984C12.7528 11.2436 12.6878 11.17 12.6396 11.0836C12.4303 10.7047 12.2765 10.2926 12.1844 9.86362C12.1317 9.64519 12.095 9.42305 12.0746 9.19947L12.0785 9.19859ZM10.9378 9.85759C10.9808 9.79202 11.0439 9.74666 11.1157 9.72952C11.1593 9.72168 11.204 9.72274 11.2479 9.73264C11.3071 9.7483 11.3617 9.78273 11.405 9.83172C11.4484 9.8807 11.4786 9.94214 11.4921 10.0086C11.6804 10.8927 12.0882 11.7092 12.6675 12.3615C12.71 12.4099 12.74 12.4701 12.754 12.5353C12.768 12.6005 12.7654 12.668 12.7466 12.73C12.4875 13.5675 12.4513 14.4814 12.6424 15.3635C12.6576 15.4291 12.6558 15.4974 12.6371 15.5603C12.6185 15.6231 12.5838 15.6777 12.5372 15.7176C12.4906 15.7575 12.4342 15.7809 12.3746 15.785C12.315 15.7891 12.2549 15.7738 12.2015 15.7409C11.7502 15.4588 11.3541 15.0738 11.0401 14.6119C10.7261 14.15 10.5015 13.6221 10.3816 13.064C10.2617 12.5059 10.2494 11.9307 10.3453 11.3774C10.4413 10.8242 10.6433 10.3058 10.9378 9.85759Z" fill="#FFF9F0" stroke="#9835BA" stroke-width="0.13966"/>
<path d="M13.3458 16.9501L13.389 16.9404L13.4191 16.9849C13.9102 17.7838 14.5975 18.4095 15.3921 18.7812C16.1867 19.1528 17.0521 19.2534 17.8762 19.0697C18.7004 18.886 19.4455 18.4267 20.0151 17.751C20.5848 17.0753 20.9527 16.2145 21.0715 15.2797L21.061 15.2309L21.1041 15.2212C21.7957 14.7054 22.324 13.9618 22.6207 13.0865C22.9174 12.2113 22.9689 11.2446 22.7685 10.3116C22.5681 9.37858 22.125 8.52214 21.4966 7.85303C20.8681 7.18392 20.0832 6.73292 19.2434 6.55837L19.2002 6.56799L19.1888 6.51469C18.6977 5.71583 18.0104 5.0901 17.2158 4.71843C16.4212 4.34677 15.5559 4.24625 14.7317 4.42991C13.9075 4.61356 13.1624 5.07294 12.5928 5.74861C12.0231 6.42428 11.6551 7.28516 11.5364 8.21991L11.5282 8.27758L11.4851 8.28719C10.7935 8.803 10.2652 9.54662 9.9685 10.4219C9.67178 11.2972 9.6203 12.2638 9.8207 13.1968C10.0211 14.1298 10.4642 14.9863 11.0926 15.6554C11.7211 16.3245 12.506 16.7755 13.3458 16.9501V16.9501ZM20.0241 16.3925C19.7912 16.8853 19.4644 17.3116 19.0658 17.6427C18.6672 17.9738 18.206 18.2019 17.7134 18.3117C17.2208 18.4214 16.7082 18.4103 16.2103 18.279C15.7124 18.1477 15.2407 17.8993 14.827 17.5505C14.7788 17.5091 14.7415 17.4535 14.7197 17.3904C14.6979 17.3272 14.6925 17.2592 14.7042 17.1943C14.7158 17.1295 14.7439 17.0706 14.7853 17.0246C14.8266 16.9787 14.8794 16.9476 14.9373 16.9351V16.9351C15.7185 16.7648 16.4298 16.3447 16.9871 15.7246C17.029 15.6786 17.0821 15.6474 17.1404 15.6346C17.1975 15.6224 17.2571 15.6284 17.3127 15.652C18.0724 15.9757 18.8889 16.0551 19.6676 15.881V15.881C19.7259 15.8665 19.7875 15.8719 19.8447 15.8964C19.9019 15.9209 19.9521 15.9635 19.989 16.0187C20.0277 16.0731 20.0519 16.1384 20.0585 16.2064C20.065 16.2744 20.0537 16.3422 20.026 16.4014L20.0241 16.3925ZM20.4003 14.3172C20.4089 14.4491 20.3806 14.5789 20.3194 14.6885C20.2582 14.798 20.1671 14.8819 20.0589 14.9284C19.8771 15.0098 19.6882 15.0721 19.4947 15.1146C18.7119 15.2922 17.8865 15.159 17.1573 14.7375C17.0849 14.6958 17.003 14.6826 16.9253 14.6999C16.8475 14.7172 16.7786 14.7641 16.7298 14.8327V14.8327C16.2417 15.5178 15.5511 15.9837 14.7734 16.1527C14.5802 16.1967 14.383 16.2204 14.1844 16.2235C14.0666 16.2276 13.9489 16.1904 13.8478 16.1171C13.7466 16.0437 13.6669 15.9379 13.6197 15.8142C13.542 15.6055 13.4793 15.3907 13.4325 15.172C13.3403 14.7431 13.3111 14.3032 13.3459 13.8699C13.3542 13.7709 13.3832 13.6764 13.4304 13.594C13.4776 13.5115 13.5419 13.4435 13.618 13.3952C13.6949 13.3464 13.7817 13.3189 13.8715 13.3151C13.9614 13.3112 14.0517 13.3311 14.1352 13.373C14.9572 13.789 15.864 13.9094 16.7265 13.7172C17.5891 13.525 18.3636 13.0299 18.94 12.3023C19.0171 12.2023 19.1224 12.1347 19.2398 12.1099C19.2974 12.0988 19.3563 12.0966 19.4151 12.1034C19.5043 12.1138 19.591 12.1479 19.6678 12.2028C19.7447 12.2577 19.8095 12.3318 19.857 12.419C20.0692 12.7964 20.2245 13.2086 20.3161 13.6381C20.3646 13.8643 20.396 14.0939 20.4101 14.3244L20.4003 14.3172ZM14.0879 12.2343C14.0668 12.1323 14.0673 12.0272 14.0895 11.9276C14.1117 11.828 14.1549 11.7368 14.2156 11.6615C14.6936 11.0796 15.3258 10.6839 16.027 10.5277C16.7283 10.3714 17.4649 10.4621 18.1379 10.7875C18.2242 10.8301 18.3011 10.895 18.362 10.9765C18.423 11.058 18.4663 11.1539 18.4882 11.2561C18.5102 11.3583 18.5102 11.4638 18.4882 11.5638C18.4662 11.6638 18.423 11.7554 18.362 11.8309C17.8826 12.4106 17.2504 12.8047 16.5497 12.9609C15.849 13.117 15.1129 13.0277 14.4397 12.7049C14.3556 12.6613 14.2808 12.5967 14.2214 12.5163C14.1621 12.4358 14.1197 12.3417 14.0977 12.2415L14.0879 12.2343ZM19.8384 8.16125C19.8233 8.09402 19.8258 8.02416 19.8456 7.96023C19.8655 7.8963 19.9018 7.84108 19.9502 7.80135C19.9858 7.77333 20.0261 7.7533 20.069 7.7423C20.1401 7.72745 20.2148 7.74219 20.2793 7.78383C20.7306 8.06589 21.1267 8.45094 21.4407 8.91284C21.7547 9.37474 21.9792 9.90266 22.0991 10.4608C22.219 11.0189 22.2314 11.5941 22.1354 12.1473C22.0395 12.7006 21.8374 13.2189 21.543 13.6671C21.5095 13.7194 21.4627 13.759 21.4083 13.781C21.354 13.8031 21.2944 13.8066 21.2368 13.7912C21.1772 13.7758 21.1221 13.7417 21.0781 13.6929C21.0341 13.6441 21.003 13.5828 20.9886 13.5162C20.8006 12.6326 20.3943 11.8162 19.8172 11.1623C19.7747 11.114 19.7447 11.0537 19.7307 10.9885C19.7167 10.9233 19.7192 10.8558 19.738 10.7938C20.0024 9.95658 20.0453 9.04172 19.8619 8.15601L19.8384 8.16125ZM12.575 7.10445C12.8076 6.61182 13.134 6.18562 13.5323 5.85463C13.9306 5.52365 14.3915 5.29561 14.8838 5.18591C15.3761 5.07621 15.8883 5.0874 16.3859 5.21875C16.8835 5.35009 17.3549 5.59852 17.7681 5.94724C17.8161 5.98844 17.8532 6.04364 17.8751 6.10636C17.8969 6.16907 17.9026 6.23669 17.8914 6.30125C17.8802 6.36581 17.8527 6.42464 17.812 6.4708C17.7713 6.51697 17.7192 6.54857 17.6618 6.56186C16.8806 6.73213 16.1692 7.15221 15.6119 7.77237C15.571 7.81991 15.5179 7.85223 15.4593 7.86529C15.4007 7.87834 15.3392 7.87156 15.2825 7.84579C14.5241 7.5224 13.709 7.4427 12.9315 7.61593V7.61593C12.8736 7.63014 12.8125 7.62508 12.7555 7.60137C12.6986 7.57765 12.6483 7.5363 12.6107 7.48226C12.573 7.42823 12.5496 7.36382 12.5433 7.2968C12.5369 7.22977 12.548 7.16297 12.575 7.10445V7.10445ZM12.1988 9.17967C12.1929 9.04634 12.2236 8.91601 12.2868 8.80625C12.3499 8.6965 12.4425 8.61261 12.5519 8.56592C12.7349 8.48786 12.9239 8.42707 13.117 8.38416C13.898 8.2075 14.7213 8.33934 15.4496 8.7577C15.5213 8.79912 15.6025 8.81234 15.6796 8.79517C15.7566 8.778 15.825 8.73146 15.8732 8.66331V8.66331C16.3621 7.9717 17.0566 7.50137 17.8395 7.33183C18.0352 7.28781 18.2345 7.26207 18.4354 7.25488C18.553 7.25322 18.6699 7.29207 18.7704 7.36618C18.8708 7.44029 18.9499 7.54611 18.9971 7.66943C19.0761 7.87776 19.1401 8.09226 19.1883 8.31078C19.2811 8.74001 19.309 9.18057 19.2708 9.61376C19.2635 9.71315 19.235 9.80809 19.1876 9.89066C19.1403 9.97323 19.0756 10.041 18.9988 10.0885C18.9224 10.1368 18.8362 10.1639 18.7471 10.1676C18.658 10.1713 18.5684 10.1515 18.4855 10.1098C17.6635 9.69383 16.7567 9.57338 15.8942 9.76559C15.0316 9.9578 14.2571 10.4529 13.6807 11.1805C13.622 11.2541 13.5481 11.3106 13.4649 11.3452C13.3817 11.3799 13.2915 11.3919 13.2016 11.3803C13.1127 11.3688 13.0264 11.3343 12.9497 11.2795C12.873 11.2247 12.808 11.1511 12.7598 11.0646C12.5505 10.6858 12.3967 10.2736 12.3046 9.8447C12.2519 9.62627 12.2152 9.40413 12.1948 9.18055L12.1988 9.17967ZM11.058 9.83867C11.1011 9.7731 11.1641 9.72774 11.236 9.7106C11.2795 9.70276 11.3243 9.70382 11.3682 9.71371C11.4273 9.72938 11.4819 9.76381 11.5253 9.8128C11.5686 9.86178 11.5989 9.92322 11.6124 9.98964C11.8006 10.8738 12.2085 11.6903 12.7877 12.3426C12.8302 12.391 12.8602 12.4512 12.8742 12.5164C12.8882 12.5816 12.8857 12.6491 12.8669 12.7111C12.6077 13.5486 12.5716 14.4625 12.7626 15.3446C12.7778 15.4102 12.776 15.4785 12.7574 15.5413C12.7387 15.6042 12.704 15.6588 12.6574 15.6987C12.6109 15.7386 12.5544 15.762 12.4948 15.7661C12.4353 15.7702 12.3751 15.7549 12.3217 15.722C11.8704 15.4399 11.4743 15.0549 11.1603 14.593C10.8463 14.1311 10.6217 13.6031 10.5019 13.045C10.382 12.4869 10.3696 11.9117 10.4656 11.3585C10.5615 10.8052 10.7636 10.2869 11.058 9.83867Z" fill="#FFF9F0" stroke="#9835BA" stroke-width="0.13966"/>
<path d="M13.466 16.931L13.5091 16.9214L13.5392 16.9659C14.0303 17.7647 14.7176 18.3905 15.5122 18.7621C16.3068 19.1338 17.1722 19.2343 17.9964 19.0507C18.8205 18.867 19.5656 18.4076 20.1352 17.732C20.7049 17.0563 21.0729 16.1954 21.1916 15.2607L21.1811 15.2118L21.2243 15.2022C21.9158 14.6864 22.4441 13.9428 22.7408 13.0675C23.0375 12.1922 23.089 11.2256 22.8886 10.2925C22.6882 9.35954 22.2451 8.5031 21.6167 7.83399C20.9882 7.16488 20.2034 6.71388 19.3635 6.53933L19.3203 6.54895L19.3089 6.49565C18.8178 5.69678 18.1305 5.07106 17.3359 4.69939C16.5413 4.32772 15.676 4.22721 14.8518 4.41087C14.0276 4.59452 13.2825 5.0539 12.7129 5.72957C12.1432 6.40524 11.7753 7.26611 11.6565 8.20087L11.6483 8.25854L11.6052 8.26815C10.9136 8.78395 10.3853 9.52758 10.0886 10.4029C9.79189 11.2781 9.74041 12.2448 9.94082 13.1778C10.1412 14.1108 10.5843 14.9672 11.2128 15.6364C11.8412 16.3055 12.6261 16.7565 13.466 16.931V16.931ZM20.1442 16.3734C19.9113 16.8662 19.5845 17.2926 19.1859 17.6237C18.7873 17.9547 18.3261 18.1829 17.8335 18.2926C17.3409 18.4024 16.8284 18.3913 16.3304 18.26C15.8325 18.1287 15.3608 17.8802 14.9472 17.5315C14.8989 17.4901 14.8616 17.4345 14.8398 17.3713C14.8181 17.3082 14.8127 17.2401 14.8243 17.1753C14.8359 17.1105 14.8641 17.0516 14.9054 17.0056C14.9467 16.9596 14.9995 16.9286 15.0574 16.916V16.916C15.8386 16.7458 16.55 16.3257 17.1072 15.7055C17.1491 15.6596 17.2023 15.6284 17.2605 15.6155C17.3176 15.6033 17.3772 15.6094 17.4328 15.633C18.1925 15.9567 19.009 16.0361 19.7877 15.862V15.862C19.846 15.8475 19.9077 15.8528 19.9648 15.8773C20.022 15.9018 20.0722 15.9444 20.1091 15.9997C20.1478 16.0541 20.172 16.1193 20.1786 16.1873C20.1851 16.2553 20.1738 16.3231 20.1461 16.3823L20.1442 16.3734ZM20.5204 14.2982C20.529 14.4301 20.5007 14.5599 20.4395 14.6694C20.3783 14.779 20.2873 14.8629 20.1791 14.9093C19.9972 14.9908 19.8083 15.0531 19.6149 15.0955C18.8321 15.2731 18.0066 15.1399 17.2775 14.7184C17.205 14.6768 17.1231 14.6635 17.0454 14.6809C16.9677 14.6982 16.8987 14.7451 16.8499 14.8137V14.8137C16.3619 15.4988 15.6712 15.9647 14.8935 16.1337C14.7003 16.1777 14.5032 16.2014 14.3045 16.2044C14.1867 16.2086 14.0691 16.1714 13.9679 16.098C13.8667 16.0247 13.787 15.9189 13.7399 15.7952C13.6621 15.5865 13.5994 15.3717 13.5526 15.153C13.4604 14.724 13.4312 14.2841 13.4661 13.8509C13.4744 13.7518 13.5033 13.6573 13.5505 13.5749C13.5978 13.4925 13.662 13.4244 13.7381 13.3762C13.815 13.3273 13.9018 13.2999 13.9917 13.296C14.0815 13.2922 14.1718 13.312 14.2553 13.354C15.0774 13.7699 15.9841 13.8904 16.8467 13.6982C17.7092 13.506 18.4837 13.0109 19.0601 12.2833C19.1372 12.1832 19.2425 12.1157 19.3599 12.0909C19.4175 12.0798 19.4765 12.0776 19.5353 12.0844C19.6245 12.0948 19.7111 12.1289 19.7879 12.1838C19.8648 12.2387 19.9296 12.3128 19.9771 12.4C20.1894 12.7774 20.3446 13.1896 20.4362 13.6191C20.4847 13.8453 20.5161 14.0749 20.5302 14.3053L20.5204 14.2982ZM14.208 12.2153C14.1869 12.1133 14.1874 12.0082 14.2096 11.9086C14.2318 11.809 14.275 11.7178 14.3357 11.6425C14.8137 11.0606 15.4459 10.6649 16.1472 10.5086C16.8484 10.3524 17.5851 10.443 18.258 10.7684C18.3443 10.8111 18.4212 10.8759 18.4822 10.9574C18.5431 11.039 18.5864 11.1349 18.6083 11.2371C18.6303 11.3392 18.6303 11.4448 18.6083 11.5448C18.5864 11.6448 18.5431 11.7364 18.4821 11.8119C18.0027 12.3915 17.3705 12.7857 16.6698 12.9418C15.9691 13.098 15.2331 13.0087 14.5598 12.6859C14.4757 12.6423 14.4009 12.5777 14.3416 12.4972C14.2822 12.4167 14.2398 12.3226 14.2178 12.2224L14.208 12.2153ZM19.9585 8.14221C19.9434 8.07497 19.9459 8.00511 19.9657 7.94119C19.9856 7.87726 20.0219 7.82204 20.0703 7.7823C20.1059 7.75428 20.1462 7.73425 20.1891 7.72325C20.2603 7.7084 20.335 7.72315 20.3994 7.76479C20.8507 8.04684 21.2468 8.4319 21.5608 8.8938C21.8748 9.35569 22.0994 9.88361 22.2192 10.4417C22.3391 10.9998 22.3515 11.575 22.2555 12.1283C22.1596 12.6815 21.9575 13.1999 21.6631 13.6481C21.6296 13.7004 21.5828 13.74 21.5285 13.762C21.4741 13.784 21.4145 13.7876 21.3569 13.7722C21.2973 13.7568 21.2422 13.7227 21.1982 13.6739C21.1542 13.6251 21.1231 13.5637 21.1087 13.4971C20.9207 12.6135 20.5144 11.7971 19.9373 11.1433C19.8948 11.0949 19.8648 11.0347 19.8508 10.9695C19.8368 10.9043 19.8394 10.8368 19.8581 10.7748C20.1225 9.93754 20.1655 9.02268 19.982 8.13696L19.9585 8.14221ZM12.6951 7.08541C12.9277 6.59278 13.2541 6.16657 13.6524 5.83559C14.0507 5.50461 14.5116 5.27657 15.0039 5.16687C15.4962 5.05717 16.0084 5.06836 16.506 5.1997C17.0036 5.33105 17.475 5.57948 17.8883 5.9282C17.9363 5.9694 17.9733 6.0246 17.9952 6.08732C18.017 6.15003 18.0227 6.21765 18.0115 6.28221C18.0003 6.34677 17.9728 6.4056 17.9321 6.45176C17.8914 6.49793 17.8393 6.52952 17.7819 6.54281C17.0007 6.71308 16.2894 7.13317 15.7321 7.75333C15.6911 7.80087 15.638 7.83319 15.5794 7.84624C15.5208 7.8593 15.4593 7.85252 15.4026 7.82674C14.6443 7.50335 13.8291 7.42366 13.0516 7.59689V7.59689C12.9937 7.6111 12.9326 7.60604 12.8757 7.58232C12.8187 7.55861 12.7684 7.51725 12.7308 7.46322C12.6931 7.40918 12.6697 7.34478 12.6634 7.27776C12.6571 7.21073 12.6681 7.14393 12.6951 7.08541V7.08541ZM12.3189 9.16063C12.313 9.02729 12.3437 8.89696 12.4069 8.78721C12.47 8.67746 12.5626 8.59357 12.672 8.54687C12.855 8.46882 13.044 8.40803 13.2372 8.36511C14.0181 8.18846 14.8414 8.32029 15.5697 8.73866C15.6415 8.78008 15.7226 8.7933 15.7997 8.77613C15.8768 8.75895 15.9451 8.71241 15.9933 8.64426V8.64426C16.4822 7.95266 17.1768 7.48233 17.9596 7.31278C18.1553 7.26877 18.3546 7.24303 18.5555 7.23583C18.6732 7.23418 18.7901 7.27303 18.8905 7.34714C18.9909 7.42125 19.07 7.52707 19.1172 7.65039C19.1962 7.85871 19.2602 8.07322 19.3084 8.29174C19.4012 8.72096 19.4291 9.16153 19.3909 9.59472C19.3836 9.69411 19.3551 9.78905 19.3078 9.87162C19.2604 9.95419 19.1957 10.022 19.1189 10.0694C19.0425 10.1177 18.9563 10.1448 18.8672 10.1485C18.7781 10.1522 18.6885 10.1324 18.6056 10.0908C17.7836 9.67478 16.8769 9.55434 16.0143 9.74655C15.1517 9.93876 14.3772 10.4338 13.8008 11.1614C13.7421 11.2351 13.6682 11.2915 13.585 11.3262C13.5018 11.3609 13.4116 11.3729 13.3218 11.3612C13.2328 11.3497 13.1465 11.3152 13.0698 11.2604C12.9931 11.2056 12.9281 11.1321 12.88 11.0456C12.6706 10.6667 12.5168 10.2546 12.4247 9.82566C12.372 9.60723 12.3353 9.38509 12.315 9.1615L12.3189 9.16063ZM11.1781 9.81962C11.2212 9.75406 11.2842 9.7087 11.3561 9.69156C11.3996 9.68372 11.4444 9.68478 11.4883 9.69467C11.5475 9.71034 11.602 9.74477 11.6454 9.79375C11.6887 9.84274 11.719 9.90417 11.7325 9.9706C11.9207 10.8548 12.3286 11.6712 12.9078 12.3235C12.9503 12.3719 12.9803 12.4322 12.9943 12.4974C13.0083 12.5626 13.0058 12.63 12.987 12.6921C12.7279 13.5296 12.6917 14.4434 12.8827 15.3255C12.898 15.3911 12.8961 15.4595 12.8775 15.5223C12.8588 15.5851 12.8241 15.6398 12.7776 15.6796C12.731 15.7195 12.6745 15.7429 12.615 15.747C12.5554 15.7512 12.4953 15.7359 12.4418 15.7029C11.9905 15.4209 11.5944 15.0358 11.2804 14.5739C10.9664 14.112 10.7419 13.5841 10.622 13.026C10.5021 12.4679 10.4897 11.8927 10.5857 11.3394C10.6816 10.7862 10.8837 10.2678 11.1781 9.81962Z" fill="#FFF9F0" stroke="#9835BA" stroke-width="0.13966"/>
<path d="M13.5862 16.912L13.6293 16.9024L13.6595 16.9468C14.1506 17.7457 14.8378 18.3714 15.6325 18.7431C16.4271 19.1148 17.2924 19.2153 18.1166 19.0316C18.9408 18.848 19.6858 18.3886 20.2555 17.7129C20.8251 17.0373 21.1931 16.1764 21.3118 15.2416L21.3013 15.1928L21.3445 15.1831C22.0361 14.6673 22.5643 13.9237 22.8611 13.0485C23.1578 12.1732 23.2093 11.2065 23.0089 10.2735C22.8085 9.34049 22.3654 8.48406 21.7369 7.81495C21.1085 7.14583 20.3236 6.69484 19.4838 6.52028L19.4406 6.5299L19.4291 6.47661C18.938 5.67774 18.2507 5.05202 17.4561 4.68035C16.6615 4.30868 15.7962 4.20817 14.972 4.39182C14.1478 4.57548 13.4028 5.03486 12.8331 5.71052C12.2635 6.38619 11.8955 7.24707 11.7768 8.18183L11.7686 8.2395L11.7254 8.24911C11.0339 8.76491 10.5056 9.50854 10.2089 10.3838C9.91213 11.2591 9.86065 12.2257 10.0611 13.1587C10.2615 14.0918 10.7045 14.9482 11.333 15.6173C11.9614 16.2864 12.7463 16.7374 13.5862 16.912V16.912ZM20.2644 16.3544C20.0315 16.8472 19.7047 17.2735 19.3061 17.6046C18.9075 17.9357 18.4464 18.1638 17.9538 18.2736C17.4612 18.3834 16.9486 18.3722 16.4507 18.2409C15.9527 18.1096 15.481 17.8612 15.0674 17.5125C15.0191 17.471 14.9819 17.4154 14.9601 17.3523C14.9383 17.2891 14.9329 17.2211 14.9445 17.1563C14.9561 17.0914 14.9843 17.0325 15.0256 16.9866C15.067 16.9406 15.1197 16.9095 15.1777 16.897V16.897C15.9588 16.7267 16.6702 16.3066 17.2275 15.6865C17.2694 15.6405 17.3225 15.6093 17.3808 15.5965C17.4378 15.5843 17.4975 15.5903 17.553 15.6139C18.3127 15.9376 19.1293 16.017 19.908 15.8429V15.8429C19.9663 15.8285 20.0279 15.8338 20.0851 15.8583C20.1422 15.8828 20.1924 15.9254 20.2294 15.9807C20.2681 16.035 20.2922 16.1003 20.2988 16.1683C20.3054 16.2363 20.2941 16.3041 20.2663 16.3633L20.2644 16.3544ZM20.6407 14.2792C20.6493 14.411 20.621 14.5408 20.5598 14.6504C20.4986 14.76 20.4075 14.8438 20.2993 14.8903C20.1174 14.9717 19.9286 15.0341 19.7351 15.0765C18.9523 15.2541 18.1269 15.1209 17.3977 14.6994C17.3253 14.6578 17.2434 14.6445 17.1656 14.6618C17.0879 14.6791 17.0189 14.726 16.9702 14.7946V14.7946C16.4821 15.4797 15.7915 15.9457 15.0137 16.1146C14.8206 16.1586 14.6234 16.1823 14.4247 16.1854C14.3069 16.1895 14.1893 16.1523 14.0881 16.079C13.9869 16.0057 13.9072 15.8998 13.8601 15.7762C13.7823 15.5674 13.7197 15.3526 13.6728 15.1339C13.5807 14.705 13.5514 14.2651 13.5863 13.8318C13.5946 13.7328 13.6235 13.6383 13.6708 13.5559C13.718 13.4735 13.7822 13.4054 13.8584 13.3571C13.9353 13.3083 14.0221 13.2808 14.1119 13.277C14.2017 13.2731 14.292 13.293 14.3756 13.3349C15.1976 13.7509 16.1043 13.8713 16.9669 13.6791C17.8295 13.4869 18.604 12.9918 19.1804 12.2642C19.2575 12.1642 19.3627 12.0966 19.4802 12.0718C19.5377 12.0607 19.5967 12.0585 19.6555 12.0653C19.7447 12.0757 19.8313 12.1098 19.9082 12.1647C19.985 12.2196 20.0499 12.2938 20.0973 12.3809C20.3096 12.7583 20.4648 13.1705 20.5564 13.6C20.6049 13.8262 20.6364 14.0558 20.6504 14.2863L20.6407 14.2792ZM14.3283 12.1962C14.3071 12.0942 14.3077 11.9891 14.3299 11.8895C14.3521 11.79 14.3953 11.6988 14.4559 11.6234C14.934 11.0415 15.5662 10.6459 16.2674 10.4896C16.9687 10.3333 17.7053 10.424 18.3782 10.7494C18.4646 10.7921 18.5414 10.8569 18.6024 10.9384C18.6634 11.0199 18.7066 11.1158 18.7286 11.218C18.7505 11.3202 18.7505 11.4257 18.7286 11.5257C18.7066 11.6258 18.6633 11.7173 18.6023 11.7928C18.1229 12.3725 17.4908 12.7666 16.79 12.9228C16.0893 13.0789 15.3533 12.9897 14.6801 12.6669C14.5959 12.6233 14.5212 12.5586 14.4618 12.4782C14.4024 12.3977 14.36 12.3036 14.338 12.2034L14.3283 12.1962ZM20.0787 8.12316C20.0636 8.05593 20.0661 7.98607 20.086 7.92214C20.1058 7.85822 20.1422 7.803 20.1905 7.76326C20.2261 7.73524 20.2664 7.71521 20.3093 7.70421C20.3805 7.68936 20.4552 7.70411 20.5197 7.74575C20.9709 8.0278 21.367 8.41286 21.681 8.87475C21.995 9.33665 22.2196 9.86457 22.3395 10.4227C22.4594 10.9808 22.4717 11.556 22.3758 12.1092C22.2798 12.6625 22.0778 13.1808 21.7834 13.629C21.7499 13.6813 21.7031 13.7209 21.6487 13.7429C21.5943 13.765 21.5347 13.7685 21.4771 13.7531C21.4176 13.7378 21.3625 13.7036 21.3185 13.6548C21.2744 13.6061 21.2434 13.5447 21.229 13.4781C21.0409 12.5945 20.6346 11.7781 20.0575 11.1243C20.015 11.0759 19.9851 11.0156 19.9711 10.9504C19.9571 10.8852 19.9596 10.8178 19.9784 10.7557C20.2427 9.9185 20.2857 9.00364 20.1023 8.11792L20.0787 8.12316ZM12.8154 7.06637C13.0479 6.57374 13.3744 6.14753 13.7727 5.81655C14.171 5.48557 14.6318 5.25752 15.1241 5.14782C15.6164 5.03812 16.1287 5.04932 16.6263 5.18066C17.1239 5.312 17.5952 5.56043 18.0085 5.90916C18.0565 5.95036 18.0936 6.00556 18.1154 6.06827C18.1373 6.13099 18.1429 6.1986 18.1317 6.26317C18.1206 6.32773 18.093 6.38655 18.0523 6.43272C18.0117 6.47888 17.9595 6.51048 17.9021 6.52377C17.1209 6.69404 16.4096 7.11413 15.8523 7.73429C15.8113 7.78183 15.7582 7.81414 15.6996 7.8272C15.641 7.84026 15.5796 7.83348 15.5228 7.8077C14.7645 7.48431 13.9493 7.40462 13.1718 7.57784V7.57784C13.1139 7.59206 13.0528 7.58699 12.9959 7.56328C12.939 7.53957 12.8887 7.49821 12.851 7.44418C12.8133 7.39014 12.7899 7.32574 12.7836 7.25871C12.7773 7.19169 12.7883 7.12489 12.8154 7.06637V7.06637ZM12.4391 9.14159C12.4333 9.00825 12.464 8.87792 12.5271 8.76817C12.5903 8.65841 12.6828 8.57453 12.7923 8.52783C12.9752 8.44977 13.1642 8.38899 13.3574 8.34607C14.1384 8.16941 14.9617 8.30125 15.6899 8.71962C15.7617 8.76103 15.8429 8.77426 15.9199 8.75708C15.997 8.73991 16.0653 8.69337 16.1136 8.62522V8.62522C16.6024 7.93362 17.297 7.46328 18.0799 7.29374C18.2755 7.24972 18.4748 7.22399 18.6757 7.21679C18.7934 7.21514 18.9103 7.25398 19.0107 7.32809C19.1111 7.4022 19.1903 7.50802 19.2374 7.63134C19.3165 7.83967 19.3804 8.05417 19.4286 8.27269C19.5214 8.70192 19.5494 9.14248 19.5112 9.57567C19.5038 9.67507 19.4753 9.77 19.428 9.85258C19.3807 9.93515 19.3159 10.003 19.2392 10.0504C19.1628 10.0987 19.0766 10.1258 18.9875 10.1295C18.8983 10.1332 18.8087 10.1134 18.7259 10.0717C17.9038 9.65574 16.9971 9.53529 16.1345 9.7275C15.272 9.91971 14.4975 10.4148 13.9211 11.1424C13.8623 11.216 13.7884 11.2725 13.7052 11.3072C13.622 11.3419 13.5319 11.3539 13.442 11.3422C13.353 11.3307 13.2668 11.2962 13.1901 11.2414C13.1134 11.1866 13.0484 11.113 13.0002 11.0266C12.7909 10.6477 12.6371 10.2356 12.545 9.80661C12.4923 9.58819 12.4556 9.36605 12.4352 9.14246L12.4391 9.14159ZM11.2984 9.80058C11.3414 9.73502 11.4045 9.68966 11.4763 9.67251C11.5199 9.66468 11.5646 9.66573 11.6085 9.67563C11.6677 9.6913 11.7223 9.72572 11.7656 9.77471C11.809 9.8237 11.8392 9.88513 11.8527 9.95155C12.041 10.8357 12.4488 11.6522 13.0281 12.3045C13.0706 12.3529 13.1005 12.4131 13.1146 12.4783C13.1286 12.5435 13.126 12.611 13.1072 12.673C12.8481 13.5105 12.8119 14.4244 13.0029 15.3065C13.0182 15.3721 13.0164 15.4404 12.9977 15.5033C12.9791 15.5661 12.9444 15.6207 12.8978 15.6606C12.8512 15.7005 12.7948 15.7239 12.7352 15.728C12.6756 15.7321 12.6155 15.7168 12.5621 15.6839C12.1108 15.4018 11.7147 15.0168 11.4007 14.5549C11.0867 14.093 10.8621 13.5651 10.7422 13.007C10.6223 12.4489 10.61 11.8736 10.7059 11.3204C10.8019 10.7671 11.0039 10.2488 11.2984 9.80058Z" fill="#FFFAF9" stroke="#9835BA" stroke-width="0.13966"/>
</g>
<path d="M33.5 16.072C33.34 16.072 33.2 16.016 33.08 15.904C32.96 15.792 32.9 15.652 32.9 15.484V8.632C32.9 8.408 32.928 8.248 32.984 8.152C33.04 8.048 33.144 7.98 33.296 7.948C33.456 7.908 33.712 7.888 34.064 7.888C35.552 7.888 36.664 8.108 37.4 8.548C38.144 8.988 38.516 9.624 38.516 10.456C38.516 11.128 38.28 11.68 37.808 12.112C37.336 12.544 36.764 12.86 36.092 13.06C35.42 13.26 34.752 13.372 34.088 13.396V15.484C34.088 15.652 34.032 15.792 33.92 15.904C33.808 16.016 33.668 16.072 33.5 16.072ZM34.088 12.22C34.872 12.172 35.608 12.016 36.296 11.752C36.984 11.48 37.328 11.048 37.328 10.456C37.328 10.016 37.06 9.676 36.524 9.436C35.996 9.196 35.24 9.076 34.256 9.076H34.088V12.22ZM41.2008 16.072C40.7368 16.072 40.3328 15.972 39.9888 15.772C39.6528 15.564 39.3928 15.328 39.2088 15.064C39.0328 14.792 38.9448 14.572 38.9448 14.404C38.9448 14.244 39.0008 14.112 39.1128 14.008C39.2248 13.896 39.3568 13.84 39.5088 13.84C39.6448 13.84 39.7568 13.876 39.8448 13.948C39.9408 14.02 40.0088 14.116 40.0488 14.236C40.1368 14.484 40.2808 14.68 40.4808 14.824C40.6808 14.968 40.9288 15.04 41.2248 15.04C41.5368 15.04 41.7808 14.964 41.9568 14.812C42.1328 14.66 42.2208 14.488 42.2208 14.296C42.2208 14.112 42.1448 13.968 41.9928 13.864C41.8488 13.752 41.5528 13.628 41.1048 13.492C40.4488 13.292 39.9768 13.056 39.6888 12.784C39.4008 12.504 39.2568 12.14 39.2568 11.692C39.2568 11.22 39.4448 10.836 39.8208 10.54C40.1968 10.236 40.7208 10.084 41.3928 10.084C42.0168 10.084 42.5008 10.22 42.8448 10.492C43.1968 10.764 43.3728 11.128 43.3728 11.584C43.3728 11.832 43.3208 12.024 43.2168 12.16C43.1128 12.288 42.9648 12.352 42.7728 12.352C42.6048 12.352 42.4688 12.3 42.3648 12.196C42.2608 12.092 42.2088 11.98 42.2088 11.86C42.2088 11.82 42.2168 11.772 42.2328 11.716C42.2568 11.652 42.2688 11.604 42.2688 11.572C42.2688 11.428 42.1968 11.312 42.0528 11.224C41.9168 11.136 41.7048 11.092 41.4168 11.092C41.0568 11.092 40.7888 11.144 40.6128 11.248C40.4448 11.352 40.3608 11.492 40.3608 11.668C40.3608 11.852 40.4488 12.004 40.6248 12.124C40.8008 12.236 41.1168 12.364 41.5728 12.508C42.2368 12.716 42.6968 12.944 42.9528 13.192C43.2168 13.44 43.3488 13.788 43.3488 14.236C43.3488 14.54 43.2568 14.836 43.0728 15.124C42.8968 15.404 42.6448 15.632 42.3168 15.808C41.9968 15.984 41.6248 16.072 41.2008 16.072ZM45.3985 18.22C45.2545 18.22 45.1305 18.16 45.0265 18.04C44.9225 17.928 44.8705 17.792 44.8705 17.632C44.8705 17.56 44.8905 17.476 44.9305 17.38L45.9745 15.136L43.8265 10.948C43.7785 10.852 43.7545 10.756 43.7545 10.66C43.7545 10.5 43.8105 10.364 43.9225 10.252C44.0425 10.132 44.1865 10.072 44.3545 10.072C44.4825 10.072 44.5945 10.108 44.6905 10.18C44.7865 10.252 44.8585 10.336 44.9065 10.432L46.5985 13.78L48.1105 10.432C48.1585 10.328 48.2305 10.24 48.3265 10.168C48.4305 10.096 48.5425 10.06 48.6625 10.06C48.8065 10.06 48.9305 10.116 49.0345 10.228C49.1385 10.34 49.1905 10.48 49.1905 10.648C49.1905 10.744 49.1745 10.824 49.1425 10.888L45.9385 17.848C45.8905 17.96 45.8185 18.048 45.7225 18.112C45.6265 18.184 45.5185 18.22 45.3985 18.22ZM52.0226 16.144C51.7426 16.144 51.4586 16.116 51.1706 16.06C50.8826 16.012 50.6866 15.972 50.5826 15.94C50.4546 15.9 50.3466 15.824 50.2586 15.712C50.1706 15.6 50.1266 15.48 50.1266 15.352V8.548C50.1266 8.38 50.1826 8.24 50.2946 8.128C50.4146 8.016 50.5586 7.96 50.7266 7.96C51.5346 7.96 52.3506 8.08 53.1746 8.32C53.9986 8.56 54.7106 9.008 55.3106 9.664C55.9186 10.32 56.2226 11.228 56.2226 12.388C56.2226 13.228 56.0386 13.932 55.6706 14.5C55.3026 15.06 54.8026 15.476 54.1706 15.748C53.5386 16.012 52.8226 16.144 52.0226 16.144ZM52.0226 14.944C52.9586 14.944 53.6906 14.728 54.2186 14.296C54.7546 13.864 55.0226 13.228 55.0226 12.388C55.0226 11.348 54.6826 10.576 54.0026 10.072C53.3306 9.568 52.4386 9.272 51.3266 9.184V14.872C51.5986 14.92 51.8306 14.944 52.0226 14.944ZM62.5374 16.084C62.2494 16.084 62.0614 15.948 61.9734 15.676L61.1094 13.18L58.6614 13.72L57.8814 15.688C57.8334 15.8 57.7614 15.892 57.6654 15.964C57.5774 16.036 57.4654 16.072 57.3294 16.072C57.1694 16.072 57.0294 16.016 56.9094 15.904C56.7894 15.792 56.7294 15.66 56.7294 15.508C56.7294 15.404 56.7574 15.284 56.8134 15.148L57.2934 13.948C57.2454 13.932 57.2094 13.916 57.1854 13.9C56.9774 13.796 56.8734 13.62 56.8734 13.372C56.8734 13.228 56.9134 13.104 56.9934 13C57.0814 12.896 57.1934 12.828 57.3294 12.796L57.7734 12.7L59.5494 8.188C59.5974 8.068 59.6734 7.976 59.7774 7.912C59.8814 7.848 59.9934 7.816 60.1134 7.816C60.2414 7.816 60.3534 7.848 60.4494 7.912C60.5454 7.976 60.6174 8.076 60.6654 8.212L63.0534 15.136C63.0614 15.152 63.0774 15.2 63.1014 15.28C63.1254 15.352 63.1374 15.428 63.1374 15.508C63.1374 15.66 63.0814 15.796 62.9694 15.916C62.8574 16.028 62.7134 16.084 62.5374 16.084ZM60.7134 12.064L60.0654 10.132L59.1654 12.4L60.7134 12.064ZM66.5841 16.072C65.9921 16.072 65.4601 15.908 64.9881 15.58C64.5161 15.244 64.1441 14.788 63.8721 14.212C63.6081 13.636 63.4761 12.992 63.4761 12.28C63.4761 11.472 63.6401 10.732 63.9681 10.06C64.2961 9.388 64.7321 8.86 65.2761 8.476C65.8281 8.084 66.4201 7.888 67.0521 7.888C67.6441 7.888 68.1761 8.052 68.6481 8.38C69.1281 8.708 69.5001 9.16 69.7641 9.736C70.0361 10.312 70.1721 10.96 70.1721 11.68C70.1721 12.496 70.0081 13.24 69.6801 13.912C69.3521 14.576 68.9121 15.104 68.3601 15.496C67.8161 15.88 67.2241 16.072 66.5841 16.072ZM66.5841 14.932C67.0161 14.932 67.4121 14.796 67.7721 14.524C68.1401 14.252 68.4321 13.872 68.6481 13.384C68.8641 12.896 68.9721 12.344 68.9721 11.728C68.9721 11.168 68.8761 10.684 68.6841 10.276C68.5001 9.868 68.2521 9.56 67.9401 9.352C67.6361 9.136 67.3161 9.028 66.9801 9.028C66.5641 9.028 66.1801 9.168 65.8281 9.448C65.4761 9.728 65.1961 10.116 64.9881 10.612C64.7801 11.1 64.6761 11.656 64.6761 12.28C64.6761 12.84 64.7641 13.32 64.9401 13.72C65.1161 14.12 65.3481 14.424 65.6361 14.632C65.9321 14.832 66.2481 14.932 66.5841 14.932Z" fill="#0D0522"/>
<defs>
<clipPath id="clip0_4_1171">
<rect width="16" height="16" fill="white" transform="translate(8 4)"/>
</clipPath>
</defs>
</svg>
